<?xml version="1.0" encoding="UTF-8" standalone="no"?>
<svg
   width="267"
   zoomAndPan="magnify"
   viewBox="0 0 200.25 279.2717"
   height="372.36227"
   preserveAspectRatio="xMidYMid"
   version="1.0"
   id="svg34"
   sodipodi:docname="FullLogo.svg"
   inkscape:version="1.3.2 (091e20e, 2023-11-25, custom)"
   xmlns:inkscape="http://www.inkscape.org/namespaces/inkscape"
   xmlns:sodipodi="http://sodipodi.sourceforge.net/DTD/sodipodi-0.dtd"
   xmlns="http://www.w3.org/2000/svg"
   xmlns:svg="http://www.w3.org/2000/svg">
  <sodipodi:namedview
     id="namedview34"
     pagecolor="#ffffff"
     bordercolor="#000000"
     borderopacity="0.25"
     inkscape:showpageshadow="2"
     inkscape:pageopacity="0.0"
     inkscape:pagecheckerboard="0"
     inkscape:deskcolor="#d1d1d1"
     inkscape:zoom="1.478"
     inkscape:cx="133.28823"
     inkscape:cy="208.05142"
     inkscape:window-width="1920"
     inkscape:window-height="974"
     inkscape:window-x="-11"
     inkscape:window-y="-11"
     inkscape:window-maximized="1"
     inkscape:current-layer="svg34" />
  <defs
     id="defs2">
    <g
       id="g1" />
    <clipPath
       id="b6467d9a5e">
      <path
         d="M 87.347656,31 H 287.59766 V 253.25 H 87.347656 Z m 0,0"
         clip-rule="nonzero"
         id="path1" />
    </clipPath>
    <clipPath
       id="b9149aa4f3">
      <path
         d="M 129.16797,113.58203 H 245.82812 V 230.29297 H 129.16797 Z m 0,0"
         clip-rule="nonzero"
         id="path2" />
    </clipPath>
  </defs>
  <g
     id="g35"
     transform="translate(-87.347656,-31.332441)">
    <g
       clip-path="url(#b6467d9a5e)"
       id="g3">
      <path
         fill="#21c637"
         d="m 287.60937,155.79687 c 0.0234,2.23438 -0.16796,4.46485 -0.29296,6.69922 -0.0664,1.1211 -0.23047,2.22657 -0.34375,3.34375 -0.12891,1.10938 -0.22657,2.23047 -0.4336,3.32813 -2.57422,17.75781 -10.34765,34.75 -21.97265,48.57422 -11.60938,13.83593 -27.09766,24.53906 -44.40235,30.29687 -4.33203,1.39844 -8.73437,2.64063 -13.23047,3.42969 l -1.68359,0.32422 c -0.55859,0.10937 -1.125,0.17187 -1.69141,0.2539 l -3.39062,0.48438 -3.41016,0.31641 -1.71094,0.15625 -1.71093,0.0742 -3.42578,0.13672 -3.42969,-0.0312 -1.71875,-0.0195 c -0.57031,-0.0195 -1.14063,-0.0625 -1.71094,-0.0977 l -3.42969,-0.21094 -3.41797,-0.37891 -1.70703,-0.1914 -1.69922,-0.27735 -3.39453,-0.5664 -3.36718,-0.72266 c -17.92188,-4.0508 -34.71875,-13.19533 -47.97657,-26.12111 -13.27343,-12.90625 -22.957028,-29.57813 -27.546871,-47.67579 l -0.828125,-3.40234 -0.664063,-3.4375 c -0.105469,-0.57422 -0.234375,-1.14844 -0.320312,-1.72266 L 88.453125,166.625 c -0.15625,-1.15625 -0.34375,-2.3125 -0.472656,-3.47266 C 87.789062,160.82422 87.5,158.5 87.460938,156.16016 c -0.03906,-1.16407 -0.113282,-2.33204 -0.117188,-3.50391 l 0.04297,-3.50781 c 0.160156,-9.35938 1.734375,-18.70703 4.480469,-27.70313 2.695312,-9.01953 6.8125,-17.59765 11.886721,-25.546872 0.60156,-1.015626 1.3125,-1.960938 1.97656,-2.9375 0.6875,-0.960938 1.33594,-1.949219 2.05469,-2.882813 1.46875,-1.851563 2.85937,-3.765625 4.44922,-5.519531 0.77734,-0.886719 1.53906,-1.792969 2.33593,-2.667969 0.57813,-0.597656 1.02735,-1.308594 1.33985,-2.082031 19.76562,-48.699219 88.39062,-67.210938 141.16406,-24.921875 0.82031,0.660156 0.39062,1.984375 -0.65625,2.027343 -17.64844,0.710938 -30.19922,16.246094 -48.16406,30.15625 -19.03907,14.742188 -44.15625,27.648438 -87.85547,19.148438 -0.17578,-0.0312 -0.34766,-0.0703 -0.51563,-0.10937 -1.8125,-0.44532 -2.35156,-2.75391 -0.89062,-3.91016 1.53906,-1.21875 3.10156,-2.41797 4.67969,-3.601564 3.96484,-2.964844 8.03906,-5.816406 12.18749,-8.570312 2.07032,-1.375 4.16407,-2.726563 6.27344,-4.058594 2.10938,-1.324219 4.23438,-2.628906 6.375,-3.90625 4.28516,-2.558594 8.63672,-5.011719 13.04688,-7.351562 4.41015,-2.339844 8.89062,-4.558594 13.4414,-6.625 4.55469,-2.0625 9.17969,-3.96875 13.90625,-5.613282 2.36328,-0.816406 4.75391,-1.566406 7.17578,-2.214844 1.34766,-0.359374 2.70313,-0.6875 4.07032,-0.972656 0.16015,-0.03516 0.11718,-0.273437 -0.043,-0.253906 -1.39063,0.183594 -2.77344,0.40625 -4.15625,0.664062 -2.48047,0.464844 -4.94141,1.03125 -7.38281,1.675782 -4.88282,1.285156 -9.69141,2.847656 -14.44141,4.574218 -4.74609,1.730469 -9.4375,3.621094 -14.07422,5.644532 -4.63672,2.019531 -9.21875,4.160156 -13.75391,6.417968 -2.26562,1.125 -4.51953,2.28125 -6.76171,3.460938 -2.24219,1.183594 -4.46875,2.394531 -6.6836,3.628906 -3.00781,1.683594 -5.98437,3.417969 -8.9375,5.210938 l -0.22265,0.21875 c -0.72266,0.746094 -1.41407,1.523437 -2.125,2.285156 -1.45313,1.496094 -2.71485,3.148438 -4.06641,4.738281 -0.66016,0.804688 -1.25,1.664063 -1.88281,2.492189 -0.61328,0.83984 -1.27344,1.65234 -1.82813,2.53516 -4.6875,6.88671 -8.57812,14.375 -11.21484,22.32421 -2.679688,7.92578 -4.351563,16.22657 -4.742188,24.64063 l -0.140625,3.15625 c -0.03125,1.05078 0.01172,2.10547 0.01172,3.16015 -0.03125,2.10938 0.171875,4.20704 0.277344,6.3125 0.08203,1.05469 0.226562,2.09766 0.332031,3.14454 l 0.175781,1.57421 c 0.05859,0.52344 0.164063,1.04297 0.242188,1.5625 l 0.503906,3.125 0.660156,3.09375 c 3.656247,16.49219 11.992187,31.99219 23.855467,44.25 11.84766,12.26954 27.15625,21.25 43.80078,25.54688 l 3.12891,0.77344 3.16406,0.625 1.58594,0.30859 4.79297,0.67969 3.21875,0.29687 c 0.53906,0.0469 1.07421,0.10547 1.61328,0.14063 l 1.61328,0.0664 3.23437,0.12891 3.23828,-0.0352 1.6211,-0.0195 1.61328,-0.0977 3.23437,-0.20313 3.22266,-0.35937 c 0.53516,-0.0625 1.07422,-0.10547 1.60938,-0.19141 l 1.60156,-0.26172 c 4.28515,-0.61328 8.49219,-1.67187 12.65234,-2.8789 16.61719,-4.96875 31.80469,-14.75391 43.44141,-27.80079 11.64453,-13.03125 19.76172,-29.35156 22.8164,-46.73437 0.23438,-1.07422 0.36719,-2.17188 0.52344,-3.26172 0.14453,-1.09375 0.34375,-2.18359 0.44141,-3.27734 0.1914,-2.19922 0.44531,-4.39453 0.48437,-6.60547 0.10547,-2.20703 0.16016,-4.41797 0.0859,-6.62891 -0.0547,-2.21094 -0.17969,-4.41797 -0.39062,-6.62109 -0.81641,-8.81641 -2.85157,-17.53516 -6.05469,-25.82813 3.44922,8.19141 5.76172,16.88282 6.85156,25.73828 0.28125,2.21875 0.47656,4.44141 0.59766,6.67188 0.14062,2.23047 0.15625,4.46875 0.11718,6.70312"
         fill-opacity="1"
         fill-rule="nonzero"
         id="path3" />
    </g>
    <g
       fill="#127019"
       fill-opacity="1"
       id="g6">
      <g
         transform="translate(103.51172,297.83852)"
         id="g5">
        <g
           id="g4">
          <path
             d="m 21.464844,-11.316406 c -1.625,4.667968 -6.472656,6.859375 -10.714844,6.859375 -3.253906,0 -5.019531,-1.730469 -5.019531,-4.136719 0,-3.148438 1.90625,-4.914062 5.375,-4.914062 1.199219,0.707031 2.226562,1.023437 3.109375,1.023437 2.121094,0 3.289062,-1.730469 3.289062,-3.394531 0,-1.449219 -0.882812,-2.863282 -2.863281,-2.933594 -2.121094,0 -3.21875,-1.449219 -3.21875,-3.113281 0,-2.296875 1.308594,-4.03125 3.640625,-4.03125 1.097656,0 2.160156,0.777343 2.40625,1.628906 0.496094,1.765625 1.484375,2.582031 2.722656,2.582031 1.238282,0 2.441406,-0.851562 2.546875,-2.40625 0.210938,-3.75 -3.148437,-6.542968 -7.566406,-6.542968 -5.058594,0 -9.441406,4.03125 -9.441406,8.910156 0,1.488281 0.492187,2.796875 1.378906,3.855468 -5.269531,0.992188 -7.1796875,5.871094 -7.1796875,9.621094 C -0.0703125,-3.535156 4.171875,0 10.644531,0 c 6.613281,0 13.046875,-3.785156 15.097657,-10.503906 0.109374,-0.28125 0.144531,-0.566406 0.144531,-0.8125 0,-1.238282 -0.992188,-1.910156 -2.050781,-1.910156 -0.992188,0 -2.015626,0.601562 -2.371094,1.910156 z m 0,0"
             id="path4" />
        </g>
      </g>
    </g>
    <g
       fill="#127019"
       fill-opacity="1"
       id="g9">
      <g
         transform="translate(123.38147,297.83852)"
         id="g8">
        <g
           id="g7">
          <path
             d="m 17.117188,-10.503906 c -1.804688,4.5625 -5.234376,6.261718 -7.921876,6.261718 -2.441406,0 -3.996093,-1.414062 -3.996093,-3.21875 0,-0.390624 0.070312,-0.8125 0.210937,-1.273437 l 2.15625,-6.117187 c 0.320313,-0.847657 1.027344,-1.378907 1.59375,-1.378907 0.707032,0 1.058594,0.421875 1.058594,1.023438 0,0.390625 -0.140625,0.816406 -0.386719,1.308593 -0.179687,0.355469 -0.285156,0.707032 -0.285156,1.0625 0,1.238282 1.167969,2.191407 2.40625,2.191407 1.023437,0 2.121094,-0.636719 2.757813,-2.261719 0.351562,-0.957031 0.496093,-1.804688 0.496093,-2.617188 0,-3.324218 -2.757812,-5.234374 -5.800781,-5.234374 -2.792969,0 -5.800781,1.625 -7.074219,5.339843 L 0.316406,-9.476562 C 0.0351562,-8.628906 -0.105469,-7.78125 -0.105469,-7 c 0,4.066406 3.535157,7 8.734375,7 5.234375,0 10.394532,-2.96875 12.660156,-9.40625 0.105469,-0.246094 0.140626,-0.496094 0.140626,-0.707031 0,-1.132813 -1.097657,-1.839844 -2.191407,-1.839844 -0.886719,0 -1.769531,0.425781 -2.121093,1.449219 z m 0,0"
             id="path6" />
        </g>
      </g>
    </g>
    <g
       fill="#127019"
       fill-opacity="1"
       id="g12">
      <g
         transform="translate(139.18536,297.83852)"
         id="g11">
        <g
           id="g10">
          <path
             d="m 14.957031,-7.390625 c 0,0.035156 0,-0.53125 -0.140625,-1.203125 0.246094,-0.175781 0.496094,-0.460938 0.707032,-0.777344 0.601562,-0.882812 1.664062,-3.960937 1.664062,-5.375 0,-3.605468 -2.972656,-6.011718 -6.789062,-6.011718 -3.324219,0 -6.472657,1.839843 -7.605469,4.984374 L 0.210938,-8.488281 C -0.105469,-7.601562 -0.246094,-6.71875 -0.246094,-5.941406 -0.246094,-2.226562 2.933594,0 6.542969,0 c 2.757812,0 5.269531,-0.882812 6.753906,-3.429688 0.636719,0.175782 1.378906,0.28125 2.121094,0.28125 4.171875,0 7.460937,-2.96875 8.664062,-6.683593 0.105469,-0.386719 0.175781,-0.742188 0.175781,-1.058594 0,-1.308594 -0.953124,-2.050781 -1.980468,-2.050781 -0.953125,0 -1.945313,0.566406 -2.332032,1.871094 -0.777343,2.195312 -2.40625,3.714843 -4.492187,3.714843 -0.140625,0 -0.351563,0 -0.496094,-0.035156 z m -3.289062,-5.445313 c -0.105469,0.316407 -0.210938,0.601563 -0.246094,0.882813 -1.945313,-0.210937 -3.675781,1.378906 -3.675781,3.5 0.035156,1.203125 0.636718,1.839844 1.308594,2.40625 -0.460938,1.238281 -1.488282,1.839844 -2.582032,1.839844 -1.378906,0 -1.734375,-0.851563 -1.734375,-1.699219 0,-0.671875 0.175781,-1.308594 0.320313,-1.660156 l 2.507812,-7.179688 c 0.425782,-1.167968 1.664063,-1.839844 2.757813,-1.839844 1.097656,0 1.804687,0.742188 1.804687,1.558594 0,0.636719 -0.210937,1.449219 -0.460937,2.191406 z m 0,0"
             id="path9" />
        </g>
      </g>
    </g>
    <g
       fill="#127019"
       fill-opacity="1"
       id="g15">
      <g
         transform="translate(157.6409,297.83852)"
         id="g14">
        <g
           id="g13">
          <path
             d="m 12.589844,-4.171875 12.269531,-22.242187 c 0.460937,-0.816407 0.601563,-1.488282 0.601563,-2.089844 0,-1.414063 -0.988282,-2.191406 -2.191407,-2.191406 -1.132812,0 -2.511719,0.742187 -3.289062,2.476562 -5.410157,10.042969 -8.488281,15.699219 -11.847657,21.816406 -0.53125,0.921875 -1.167968,1.628906 -1.660156,1.453125 -0.179687,-0.035156 -0.320312,-0.25 -0.320312,-0.636719 0,-0.179687 0.035156,-0.390624 0.105468,-0.671874 l 4.738282,-20.441407 c 0.07422,-0.316406 0.109375,-0.636719 0.109375,-0.917969 0,-1.980468 -1.453125,-3.078124 -2.902344,-3.078124 -1.273437,0 -2.507813,0.847656 -2.898437,2.6875 L 0.601562,-6.648438 C 0.460938,-6.082031 0.425781,-5.550781 0.425781,-5.09375 0.425781,-1.769531 3.464844,0 6.367188,0 c 2.050781,0 4.417968,-0.917969 6.222656,-4.171875 z m 0,0"
             id="path12" />
        </g>
      </g>
    </g>
    <g
       fill="#127019"
       fill-opacity="1"
       id="g18">
      <g
         transform="translate(177.19247,297.83852)"
         id="g17">
        <g
           id="g16">
          <path
             d="m 9.511719,-24.011719 c 1.59375,0 2.902343,-1.308593 2.902343,-2.933593 0,-1.59375 -1.308593,-2.867188 -2.902343,-2.867188 -1.589844,0 -2.898438,1.273438 -2.898438,2.867188 0,1.625 1.308594,2.933593 2.898438,2.933593 z M 4.738281,-5.976562 8.628906,-17.082031 c 0.140625,-0.457031 0.316406,-0.953125 0.316406,-1.304688 0,-1.558593 -1.164062,-2.371093 -2.367187,-2.371093 -1.097656,0 -2.265625,0.777343 -2.828125,2.441406 -1.132812,3.324218 -2.617188,7.53125 -3.75,10.820312 -0.210938,0.707032 -0.496094,1.660156 -0.496094,2.261719 C -0.496094,-1.910156 2.261719,0 5.515625,0 c 3.464844,0 7.285156,-2.121094 9.761719,-9.441406 0.07031,-0.210938 0.105468,-0.425782 0.105468,-0.636719 0,-1.097656 -1.0625,-1.769531 -2.121093,-1.769531 -0.957031,0 -1.910157,0.496094 -2.335938,1.59375 -1.660156,4.597656 -3.535156,6.046875 -4.949219,6.046875 -0.8125,0 -1.34375,-0.53125 -1.34375,-1.203125 0,-0.175782 0.035157,-0.355469 0.105469,-0.566406 z m 0,0"
             id="path15" />
        </g>
      </g>
    </g>
    <g
       fill="#127019"
       fill-opacity="1"
       id="g21">
      <g
         transform="translate(186.95057,297.83852)"
         id="g20">
        <g
           id="g19">
          <path
             d="m 22.171875,-11.953125 c -0.988281,0 -2.085937,0.601563 -2.511719,1.945313 -1.378906,4.351562 -3.605468,5.800781 -5.195312,5.800781 -0.601563,0 -0.957032,-0.320313 -0.957032,-0.886719 0,-0.28125 0.07031,-0.636719 0.175782,-1.023438 l 3.960937,-11.457031 c 0.144531,-0.425781 0.214844,-0.8125 0.214844,-1.167969 0,-1.554687 -1.273437,-2.371093 -2.582031,-2.371093 -0.992188,0 -2.015625,0.460937 -2.582032,1.34375 -0.742187,-0.457031 -2.121093,-0.988281 -3.925781,-0.988281 -2.332031,0 -4.878906,1.273437 -5.835937,3.996093 L -0.390625,-7.25 c -0.210937,0.636719 -0.351563,1.273438 -0.351563,1.910156 C -0.742188,-2.40625 1.625,0 4.738281,0 6.402344,0 8.097656,-0.742188 9.40625,-1.910156 10.539062,-0.28125 13.046875,0 14.109375,0 c 2.933594,0 6.859375,-1.484375 9.125,-7.214844 0.492187,-1.378906 0.882813,-2.261718 0.882813,-2.898437 0,-1.203125 -0.917969,-1.839844 -1.945313,-1.839844 z M 10.503906,-12.304688 8.804688,-7.039062 C 8.0625,-4.738281 6.71875,-4.207031 5.976562,-4.207031 c -0.777343,0 -1.167968,-0.496094 -1.167968,-1.308594 0,-0.460937 0.105468,-0.886719 0.210937,-1.203125 l 2.265625,-7.109375 c 0.671875,-2.15625 1.660156,-2.4375 2.226563,-2.4375 0.671875,0 1.414062,0.671875 1.414062,1.875 0,0.527344 -0.140625,1.199219 -0.421875,2.085937 z m 0,0"
             id="path18" />
        </g>
      </g>
    </g>
    <g
       fill="#127019"
       fill-opacity="1"
       id="g24">
      <g
         transform="translate(205.51218,297.83852)"
         id="g23">
        <g
           id="g22">
          <path
             d="m 13.542969,-3.078125 4.882812,-13.683594 c 0.246094,-0.742187 0.351563,-1.34375 0.351563,-1.804687 0,-1.589844 -1.097656,-1.910156 -1.554688,-2.085938 -0.214844,-0.07031 -0.460937,-0.105468 -0.707031,-0.105468 -1.0625,0 -2.160156,0.53125 -2.582031,1.769531 -1.203125,-1.273438 -2.546875,-1.769531 -4.421875,-1.769531 -2.617188,0 -5.375,1.484374 -6.542969,4.773437 l -3.0039062,8.558594 c -0.2460938,0.742187 -0.3906248,1.519531 -0.3906248,2.226562 0,2.792969 1.945312,4.667969 4.351562,5.199219 -3.289062,0.636719 -7.496093,1.910156 -8.558593,5.410156 -0.175782,0.601563 -0.246094,1.132813 -0.246094,1.664063 0,3.429687 3.179687,5.691406 6.648437,5.691406 3.5,0 6.789063,-1.875 8.238281,-5.976563 l 1.625,-4.492187 c 5.058594,-1.589844 10.257813,-4.347656 12.695313,-11.773437 0.105469,-0.285157 0.144531,-0.566407 0.144531,-0.8125 0,-1.203126 -0.921875,-1.910157 -1.980468,-1.910157 -0.957032,0 -1.980469,0.601563 -2.476563,1.980469 -1.308594,3.605469 -3.679687,5.726562 -6.472656,7.140625 z m -1.519531,-10.925781 -2.6875,7.460937 c -0.707032,1.34375 -1.910157,2.335938 -3.113282,2.335938 -0.847656,0 -1.484375,-0.425781 -1.484375,-1.203125 0,-0.175782 0.070313,-0.460938 0.140625,-0.707032 L 8.0625,-15.101562 c 0.355469,-0.988282 1.167969,-1.484376 1.945312,-1.484376 1.097657,0 2.050782,0.8125 2.050782,2.085938 0,0.144531 0,0.320312 -0.03516,0.496094 z M 5.164062,3.925781 4.3125,6.328125 C 3.820312,7.636719 2.722656,8.308594 1.660156,8.308594 c -0.8125,0 -1.199218,-0.492188 -1.199218,-1.128906 0,-0.214844 0.070312,-0.496094 0.175781,-0.742188 C 1.132812,5.199219 2.863281,4.527344 5.164062,3.925781 Z m 0,0"
             id="path21" />
        </g>
      </g>
    </g>
    <g
       fill="#127019"
       fill-opacity="1"
       id="g27">
      <g
         transform="translate(224.39199,297.83852)"
         id="g26">
        <g
           id="g25">
          <path
             d="m 13.542969,-3.078125 4.882812,-13.683594 c 0.246094,-0.742187 0.351563,-1.34375 0.351563,-1.804687 0,-1.589844 -1.097656,-1.910156 -1.554688,-2.085938 -0.214844,-0.07031 -0.460937,-0.105468 -0.707031,-0.105468 -1.0625,0 -2.160156,0.53125 -2.582031,1.769531 -1.203125,-1.273438 -2.546875,-1.769531 -4.421875,-1.769531 -2.617188,0 -5.375,1.484374 -6.542969,4.773437 l -3.0039062,8.558594 c -0.2460938,0.742187 -0.3906248,1.519531 -0.3906248,2.226562 0,2.792969 1.945312,4.667969 4.351562,5.199219 -3.289062,0.636719 -7.496093,1.910156 -8.558593,5.410156 -0.175782,0.601563 -0.246094,1.132813 -0.246094,1.664063 0,3.429687 3.179687,5.691406 6.648437,5.691406 3.5,0 6.789063,-1.875 8.238281,-5.976563 l 1.625,-4.492187 c 5.058594,-1.589844 10.257813,-4.347656 12.695313,-11.773437 0.105469,-0.285157 0.144531,-0.566407 0.144531,-0.8125 0,-1.203126 -0.921875,-1.910157 -1.980468,-1.910157 -0.957032,0 -1.980469,0.601563 -2.476563,1.980469 -1.308594,3.605469 -3.679687,5.726562 -6.472656,7.140625 z m -1.519531,-10.925781 -2.6875,7.460937 c -0.707032,1.34375 -1.910157,2.335938 -3.113282,2.335938 -0.847656,0 -1.484375,-0.425781 -1.484375,-1.203125 0,-0.175782 0.070313,-0.460938 0.140625,-0.707032 L 8.0625,-15.101562 c 0.355469,-0.988282 1.167969,-1.484376 1.945312,-1.484376 1.097657,0 2.050782,0.8125 2.050782,2.085938 0,0.144531 0,0.320312 -0.03516,0.496094 z M 5.164062,3.925781 4.3125,6.328125 C 3.820312,7.636719 2.722656,8.308594 1.660156,8.308594 c -0.8125,0 -1.199218,-0.492188 -1.199218,-1.128906 0,-0.214844 0.070312,-0.496094 0.175781,-0.742188 C 1.132812,5.199219 2.863281,4.527344 5.164062,3.925781 Z m 0,0"
             id="path24" />
        </g>
      </g>
    </g>
    <g
       fill="#127019"
       fill-opacity="1"
       id="g30">
      <g
         transform="translate(243.2718,297.83852)"
         id="g29">
        <g
           id="g28">
          <path
             d="m 9.511719,-24.011719 c 1.59375,0 2.902343,-1.308593 2.902343,-2.933593 0,-1.59375 -1.308593,-2.867188 -2.902343,-2.867188 -1.589844,0 -2.898438,1.273438 -2.898438,2.867188 0,1.625 1.308594,2.933593 2.898438,2.933593 z M 4.738281,-5.976562 8.628906,-17.082031 c 0.140625,-0.457031 0.316406,-0.953125 0.316406,-1.304688 0,-1.558593 -1.164062,-2.371093 -2.367187,-2.371093 -1.097656,0 -2.265625,0.777343 -2.828125,2.441406 -1.132812,3.324218 -2.617188,7.53125 -3.75,10.820312 -0.210938,0.707032 -0.496094,1.660156 -0.496094,2.261719 C -0.496094,-1.910156 2.261719,0 5.515625,0 c 3.464844,0 7.285156,-2.121094 9.761719,-9.441406 0.07031,-0.210938 0.105468,-0.425782 0.105468,-0.636719 0,-1.097656 -1.0625,-1.769531 -2.121093,-1.769531 -0.957031,0 -1.910157,0.496094 -2.335938,1.59375 -1.660156,4.597656 -3.535156,6.046875 -4.949219,6.046875 -0.8125,0 -1.34375,-0.53125 -1.34375,-1.203125 0,-0.175782 0.035157,-0.355469 0.105469,-0.566406 z m 0,0"
             id="path27" />
        </g>
      </g>
    </g>
    <g
       fill="#127019"
       fill-opacity="1"
       id="g33">
      <g
         transform="translate(253.0299,297.83852)"
         id="g32">
        <g
           id="g31">
          <path
             d="m 14.957031,-7.390625 c 0,0.035156 0,-0.53125 -0.140625,-1.203125 0.246094,-0.175781 0.496094,-0.460938 0.707032,-0.777344 0.601562,-0.882812 1.664062,-3.960937 1.664062,-5.375 0,-3.605468 -2.972656,-6.011718 -6.789062,-6.011718 -3.324219,0 -6.472657,1.839843 -7.605469,4.984374 L 0.210938,-8.488281 C -0.105469,-7.601562 -0.246094,-6.71875 -0.246094,-5.941406 -0.246094,-2.226562 2.933594,0 6.542969,0 c 2.757812,0 5.269531,-0.882812 6.753906,-3.429688 0.636719,0.175782 1.378906,0.28125 2.121094,0.28125 4.171875,0 7.460937,-2.96875 8.664062,-6.683593 0.105469,-0.386719 0.175781,-0.742188 0.175781,-1.058594 0,-1.308594 -0.953124,-2.050781 -1.980468,-2.050781 -0.953125,0 -1.945313,0.566406 -2.332032,1.871094 -0.777343,2.195312 -2.40625,3.714843 -4.492187,3.714843 -0.140625,0 -0.351563,0 -0.496094,-0.035156 z m -3.289062,-5.445313 c -0.105469,0.316407 -0.210938,0.601563 -0.246094,0.882813 -1.945313,-0.210937 -3.675781,1.378906 -3.675781,3.5 0.035156,1.203125 0.636718,1.839844 1.308594,2.40625 -0.460938,1.238281 -1.488282,1.839844 -2.582032,1.839844 -1.378906,0 -1.734375,-0.851563 -1.734375,-1.699219 0,-0.671875 0.175781,-1.308594 0.320313,-1.660156 l 2.507812,-7.179688 c 0.425782,-1.167968 1.664063,-1.839844 2.757813,-1.839844 1.097656,0 1.804687,0.742188 1.804687,1.558594 0,0.636719 -0.210937,1.449219 -0.460937,2.191406 z m 0,0"
             id="path30" />
        </g>
      </g>
    </g>
    <g
       clip-path="url(#b9149aa4f3)"
       id="g34">
      <path
         fill="#127019"
         d="m 239.88281,125.48047 c -0.85937,4.78515 -3.07812,9.09375 -6.51562,12.40625 l -17.32813,17.32812 c -0.60937,0.60938 -0.85937,1.59375 -0.60937,2.45313 l 16.34375,54.4375 -5.16016,5.15625 -14.13672,-24.07813 c -3.80859,-6.51562 -8.48047,-12.40625 -13.76172,-17.69922 -0.98437,-0.97265 -2.45703,-0.97265 -3.4414,-0.11328 l -25.79688,22.60938 c -0.62109,0.60937 -0.98437,1.46875 -0.87109,2.32812 l 4.42187,21.5 -2.20703,2.21875 -12.28125,-16.83203 c -0.49609,-0.62109 -1.23437,-0.98437 -1.96875,-0.98437 -0.37109,0 -0.62109,0.11718 -0.98437,0.23828 l -4.54688,1.96875 1.96875,-4.54688 c 0.48828,-1.09765 0.125,-2.32812 -0.85937,-2.94922 l -16.71485,-12.41015 2.20313,-2.20703 21.51172,4.42578 c 0.85937,0.12109 1.72265,-0.125 2.33203,-0.85938 l 22.60937,-25.8125 c 0.85938,-0.98437 0.85938,-2.45312 -0.125,-3.4375 -5.28125,-5.28125 -11.30078,-9.95312 -17.6875,-13.76562 l -24.08203,-14.01172 5.15625,-5.15625 54.4375,16.34375 c 0.85938,0.24609 1.84375,0 2.45313,-0.61328 l 17.32812,-17.32813 c 3.44922,-3.3125 7.7461,-5.65234 12.41016,-6.51171 l 5.65234,-0.98438 c 0.4961,-0.125 0.7461,0.125 0.85938,0.24609 0.125,0.125 0.375,0.48829 0.25,0.86329 z m 4.29688,-10.20313 c -1.34766,-1.35546 -3.3125,-1.96484 -5.28125,-1.60546 l -5.65625,0.98437 c -5.76953,1.10938 -10.92578,3.8125 -15.10938,7.87109 l -16.34375,16.34375 -54.4375,-16.34375 c -0.85937,-0.24609 -1.83984,0 -2.45312,0.61329 l -8.48047,8.48046 c -0.48828,0.48828 -0.85938,1.34766 -0.73828,2.08203 0.11718,0.7461 0.48828,1.48047 1.22265,1.84375 l 26.79297,15.73438 c 5.40625,3.19922 10.56641,7 15.11328,11.30859 l -20.15625,22.97266 -21.375,-4.42578 c -0.85937,-0.1211 -1.71875,0.125 -2.20703,0.73828 l -5.16797,5.16797 c -0.48828,0.48437 -0.73437,1.22265 -0.73437,1.96484 0,0.73828 0.37109,1.34766 0.98437,1.84375 l 17.44922,12.89453 -1.60547,3.8125 c -0.73437,1.71875 -0.36328,3.6875 0.98438,4.91797 1.35547,1.22266 3.19922,1.72266 4.91797,0.98438 l 3.8125,-1.60547 12.90625,17.45312 c 0.48437,0.60938 1.09765,0.98438 1.83203,0.98438 h 0.25 c 0.62109,0 1.23047,-0.25 1.71875,-0.73438 l 5.16797,-5.16015 c 0.60937,-0.6211 0.85937,-1.48047 0.73437,-2.21485 l -4.42187,-21.3789 22.84765,-20.15235 c 4.3086,4.54688 8.10938,9.70313 11.3086,15.10938 l 15.73437,26.79297 c 0.35938,0.61328 1.09766,1.09765 1.83985,1.22265 0.73828,0.125 1.47265,-0.125 2.08203,-0.73437 l 8.48437,-8.48438 c 0.60938,-0.60937 0.85938,-1.59375 0.60938,-2.45312 l -16.21875,-54.4375 16.21875,-16.21875 c 4.18359,-4.0586 6.88672,-9.33985 7.87109,-15.10938 l 0.98438,-5.65625 c 0.48828,-1.96484 -0.125,-3.93359 -1.46875,-5.40625 h -0.0117"
         fill-opacity="1"
         fill-rule="nonzero"
         id="path33" />
    </g>
  </g>
</svg>
