<?xml version="1.0" encoding="UTF-8" standalone="no"?>
<svg
   width="476.64291"
   zoomAndPan="magnify"
   viewBox="0 0 357.48219 97.817537"
   height="130.42339"
   preserveAspectRatio="xMidYMid"
   version="1.0"
   id="svg34"
   sodipodi:docname="NameLogo.svg"
   inkscape:version="1.3.2 (091e20e, 2023-11-25, custom)"
   xmlns:inkscape="http://www.inkscape.org/namespaces/inkscape"
   xmlns:sodipodi="http://sodipodi.sourceforge.net/DTD/sodipodi-0.dtd"
   xmlns="http://www.w3.org/2000/svg"
   xmlns:svg="http://www.w3.org/2000/svg">
  <sodipodi:namedview
     id="namedview34"
     pagecolor="#ffffff"
     bordercolor="#000000"
     borderopacity="0.25"
     inkscape:showpageshadow="2"
     inkscape:pageopacity="0.0"
     inkscape:pagecheckerboard="0"
     inkscape:deskcolor="#d1d1d1"
     inkscape:zoom="1.478"
     inkscape:cx="192.82815"
     inkscape:cy="37.550744"
     inkscape:window-width="1920"
     inkscape:window-height="974"
     inkscape:window-x="-11"
     inkscape:window-y="-11"
     inkscape:window-maximized="1"
     inkscape:current-layer="svg34" />
  <defs
     id="defs2">
    <g
       id="g1" />
    <clipPath
       id="5a2b6cb32e">
      <path
         d="m 11.964844,142 h 88.281246 v 98.55078 H 11.964844 Z m 0,0"
         clip-rule="nonzero"
         id="path1" />
    </clipPath>
    <clipPath
       id="d7b9c76778">
      <path
         d="m 30.402344,178.97656 h 51.429687 v 51.45313 H 30.402344 Z m 0,0"
         clip-rule="nonzero"
         id="path2" />
    </clipPath>
  </defs>
  <g
     id="g35"
     transform="translate(-11.964844,-142.71762)">
    <g
       fill="#127019"
       fill-opacity="1"
       id="g5">
      <g
         transform="translate(107.39903,211.25015)"
         id="g4">
        <g
           id="g3">
          <path
             d="m 32.367188,-17.0625 c -2.453126,7.039062 -9.757813,10.34375 -16.15625,10.34375 -4.90625,0 -7.574219,-2.613281 -7.574219,-6.238281 0,-4.746094 2.882812,-7.414063 8.105469,-7.414063 1.816406,1.066406 3.359374,1.546875 4.695312,1.546875 3.199219,0 4.957031,-2.613281 4.957031,-5.117187 0,-2.1875 -1.332031,-4.320313 -4.316406,-4.425782 -3.199219,0 -4.855469,-2.1875 -4.855469,-4.695312 0,-3.464844 1.972656,-6.078125 5.492188,-6.078125 1.65625,0 3.253906,1.171875 3.628906,2.453125 0.746094,2.667969 2.238281,3.894531 4.105469,3.894531 1.867187,0 3.679687,-1.28125 3.839843,-3.628906 0.320313,-5.652344 -4.746093,-9.863281 -11.414062,-9.863281 -7.625,0 -14.238281,6.078125 -14.238281,13.4375 0,2.238281 0.75,4.210937 2.082031,5.8125 -7.945312,1.492187 -10.824219,8.851562 -10.824219,14.503906 0,7.199219 6.398438,12.53125 16.15625,12.53125 9.972657,0 19.675781,-5.707031 22.769531,-15.835938 0.160157,-0.429687 0.214844,-0.855468 0.214844,-1.226562 0,-1.867188 -1.496094,-2.882812 -3.09375,-2.882812 -1.492187,0 -3.039062,0.910156 -3.574218,2.882812 z m 0,0"
             id="path3" />
        </g>
      </g>
    </g>
    <g
       fill="#127019"
       fill-opacity="1"
       id="g8">
      <g
         transform="translate(137.36163,211.25015)"
         id="g7">
        <g
           id="g6">
          <path
             d="m 25.808594,-15.835938 c -2.71875,6.878907 -7.890625,9.4375 -11.945313,9.4375 -3.679687,0 -6.023437,-2.132812 -6.023437,-4.851562 0,-0.589844 0.105468,-1.226562 0.320312,-1.921875 l 3.25,-9.222656 c 0.480469,-1.28125 1.546875,-2.082031 2.402344,-2.082031 1.066406,0 1.597656,0.640624 1.597656,1.546874 0,0.585938 -0.210937,1.226563 -0.585937,1.972657 -0.265625,0.535156 -0.425781,1.066406 -0.425781,1.601562 0,1.863281 1.757812,3.304688 3.625,3.304688 1.546874,0 3.199218,-0.960938 4.160156,-3.414063 0.53125,-1.4375 0.746094,-2.71875 0.746094,-3.945312 0,-5.011719 -4.160157,-7.890625 -8.746094,-7.890625 -4.210938,0 -8.746094,2.453125 -10.664063,8.050781 l -3.039062,8.957031 c -0.4257815,1.28125 -0.640625,2.5625 -0.640625,3.734375 C -0.160156,-4.425781 5.171875,0 13.011719,0 20.902344,0 28.6875,-4.480469 32.101562,-14.183594 c 0.160157,-0.375 0.214844,-0.746094 0.214844,-1.066406 0,-1.707031 -1.65625,-2.773438 -3.308594,-2.773438 -1.332031,0 -2.664062,0.640626 -3.199218,2.1875 z m 0,0"
             id="path5" />
        </g>
      </g>
    </g>
    <g
       fill="#127019"
       fill-opacity="1"
       id="g11">
      <g
         transform="translate(161.19311,211.25015)"
         id="g10">
        <g
           id="g9">
          <path
             d="m 22.554688,-11.144531 c 0,0.05469 0,-0.800781 -0.210938,-1.8125 0.371094,-0.265625 0.746094,-0.695313 1.066406,-1.175781 0.90625,-1.332032 2.503906,-5.96875 2.503906,-8.105469 0,-5.4375 -4.476562,-9.0625 -10.238281,-9.0625 -5.011719,0 -9.757812,2.773437 -11.464843,7.519531 L 0.320312,-12.796875 C -0.160156,-11.464844 -0.375,-10.132812 -0.375,-8.957031 -0.375,-3.359375 4.425781,0 9.863281,0 c 4.160157,0 7.945313,-1.332031 10.1875,-5.171875 0.960938,0.265625 2.078125,0.425781 3.199219,0.425781 6.292969,0 11.25,-4.480468 13.0625,-10.078125 0.160156,-0.585937 0.269531,-1.121093 0.269531,-1.601562 0,-1.972657 -1.441406,-3.089844 -2.988281,-3.089844 -1.4375,0 -2.933594,0.851563 -3.519531,2.824219 -1.171875,3.308594 -3.625,5.601562 -6.769531,5.601562 -0.214844,0 -0.535157,0 -0.75,-0.05469 z m -4.957032,-8.210938 c -0.160156,0.476563 -0.320312,0.90625 -0.375,1.332031 -2.929687,-0.320312 -5.542968,2.078126 -5.542968,5.277344 0.05078,1.816406 0.957031,2.773438 1.972656,3.628906 -0.695313,1.863282 -2.242188,2.773438 -3.894532,2.773438 -2.078124,0 -2.613281,-1.28125 -2.613281,-2.5625 0,-1.011719 0.269531,-1.972656 0.480469,-2.503906 l 3.785156,-10.828125 c 0.640625,-1.757813 2.507813,-2.769531 4.160156,-2.769531 1.652344,0 2.71875,1.117187 2.71875,2.34375 0,0.960937 -0.320312,2.1875 -0.691406,3.308593 z m 0,0"
             id="path8" />
        </g>
      </g>
    </g>
    <g
       fill="#127019"
       fill-opacity="1"
       id="g14">
      <g
         transform="translate(189.02314,211.25015)"
         id="g13">
        <g
           id="g12">
          <path
             d="m 18.984375,-6.292969 18.503906,-33.539062 c 0.691407,-1.226563 0.90625,-2.242188 0.90625,-3.148438 0,-2.132812 -1.492187,-3.304687 -3.308593,-3.304687 -1.703126,0 -3.785157,1.117187 -4.957032,3.730468 -8.160156,15.144532 -12.796875,23.675782 -17.863281,32.902344 -0.800781,1.386719 -1.761719,2.453125 -2.507813,2.1875 -0.265624,-0.054687 -0.480468,-0.375 -0.480468,-0.960937 0,-0.265625 0.054687,-0.585938 0.160156,-1.011719 l 7.148438,-30.824219 c 0.105468,-0.476562 0.15625,-0.957031 0.15625,-1.386719 0,-2.984374 -2.183594,-4.636718 -4.371094,-4.636718 -1.917969,0 -3.785156,1.277344 -4.371094,4.050781 L 0.90625,-10.023438 C 0.691406,-9.171875 0.640625,-8.371094 0.640625,-7.679688 0.640625,-2.667969 5.226562,0 9.597656,0 c 3.09375,0 6.667969,-1.386719 9.386719,-6.292969 z m 0,0"
             id="path11" />
        </g>
      </g>
    </g>
    <g
       fill="#127019"
       fill-opacity="1"
       id="g17">
      <g
         transform="translate(218.50593,211.25015)"
         id="g16">
        <g
           id="g15">
          <path
             d="m 14.34375,-36.207031 c 2.398438,0 4.375,-1.972657 4.375,-4.425781 0,-2.398438 -1.976562,-4.320313 -4.375,-4.320313 -2.398438,0 -4.371094,1.921875 -4.371094,4.320313 0,2.453124 1.972656,4.425781 4.371094,4.425781 z m -7.199219,27.195312 5.867188,-16.746093 c 0.210937,-0.691407 0.480469,-1.4375 0.480469,-1.972657 0,-2.34375 -1.761719,-3.570312 -3.574219,-3.570312 -1.652344,0 -3.414063,1.171875 -4.265625,3.679687 C 3.945312,-22.609375 1.707031,-16.265625 0,-11.304688 -0.320312,-10.238281 -0.746094,-8.796875 -0.746094,-7.890625 -0.746094,-2.878906 3.414062,0 8.320312,0 c 5.222657,0 10.984376,-3.199219 14.714844,-14.238281 0.109375,-0.320313 0.160156,-0.640625 0.160156,-0.960938 0,-1.652343 -1.597656,-2.664062 -3.199218,-2.664062 -1.4375,0 -2.878906,0.746093 -3.519532,2.398437 -2.503906,6.933594 -5.332031,9.121094 -7.464843,9.121094 -1.226563,0 -2.027344,-0.800781 -2.027344,-1.816406 0,-0.265625 0.054687,-0.53125 0.160156,-0.851563 z m 0,0"
             id="path14" />
        </g>
      </g>
    </g>
    <g
       fill="#127019"
       fill-opacity="1"
       id="g20">
      <g
         transform="translate(233.22066,211.25015)"
         id="g19">
        <g
           id="g18">
          <path
             d="m 33.433594,-18.023438 c -1.492188,0 -3.144532,0.90625 -3.785156,2.933594 -2.078126,6.558594 -5.4375,8.746094 -7.839844,8.746094 -0.90625,0 -1.4375,-0.480469 -1.4375,-1.335938 0,-0.425781 0.105468,-0.957031 0.265625,-1.546874 l 5.972656,-17.277344 c 0.214844,-0.636719 0.320313,-1.226563 0.320313,-1.757813 0,-2.347656 -1.921876,-3.574219 -3.894532,-3.574219 -1.492187,0 -3.039062,0.695313 -3.890625,2.027344 -1.121093,-0.691406 -3.199219,-1.492187 -5.921875,-1.492187 -3.515625,0 -7.355468,1.917969 -8.796875,6.023437 l -5.011719,14.347656 C -0.90625,-9.972656 -1.121094,-9.011719 -1.121094,-8.050781 -1.121094,-3.625 2.453125,0 7.144531,0 9.652344,0 12.210938,-1.121094 14.183594,-2.878906 15.890625,-0.425781 19.675781,0 21.277344,0 c 4.425781,0 10.34375,-2.238281 13.757812,-10.878906 0.746094,-2.078125 1.332032,-3.414063 1.332032,-4.371094 0,-1.8125 -1.386719,-2.773438 -2.933594,-2.773438 z m -17.597656,-0.535156 -2.558594,7.945313 c -1.121094,3.46875 -3.144532,4.269531 -4.265625,4.269531 -1.171875,0 -1.757813,-0.75 -1.757813,-1.976562 0,-0.691407 0.160156,-1.332032 0.316406,-1.8125 l 3.414063,-10.71875 c 1.015625,-3.25 2.507813,-3.679688 3.359375,-3.679688 1.015625,0 2.132812,1.015625 2.132812,2.828125 0,0.800781 -0.210937,1.8125 -0.640624,3.144531 z m 0,0"
             id="path17" />
        </g>
      </g>
    </g>
    <g
       fill="#127019"
       fill-opacity="1"
       id="g23">
      <g
         transform="translate(261.21064,211.25015)"
         id="g22">
        <g
           id="g21">
          <path
             d="m 20.421875,-4.640625 7.359375,-20.636719 c 0.375,-1.117187 0.535156,-2.023437 0.535156,-2.71875 0,-2.398437 -1.652344,-2.878906 -2.347656,-3.144531 -0.320312,-0.109375 -0.691406,-0.160156 -1.066406,-0.160156 -1.597656,0 -3.253906,0.800781 -3.890625,2.664062 -1.816407,-1.917969 -3.839844,-2.664062 -6.667969,-2.664062 -3.945312,0 -8.105469,2.238281 -9.863281,7.199219 l -4.5351565,12.902343 C -0.425781,-10.078125 -0.640625,-8.90625 -0.640625,-7.839844 -0.640625,-3.625 2.292969,-0.800781 5.917969,0 0.960938,0.960938 -5.386719,2.878906 -6.984375,8.160156 c -0.269531,0.90625 -0.375,1.703125 -0.375,2.503906 0,5.171876 4.800781,8.585938 10.027344,8.585938 5.277343,0 10.238281,-2.824219 12.421875,-9.011719 l 2.453125,-6.773437 c 7.625,-2.398438 15.464843,-6.558594 19.144531,-17.757813 0.160156,-0.425781 0.214844,-0.851562 0.214844,-1.222656 0,-1.816406 -1.386719,-2.882813 -2.988282,-2.882813 -1.4375,0 -2.984374,0.90625 -3.730468,2.988282 -1.976563,5.4375 -5.546875,8.636718 -9.761719,10.769531 z m -2.292969,-16.476563 -4.050781,11.253907 c -1.066406,2.023437 -2.878906,3.519531 -4.691406,3.519531 -1.28125,0 -2.242188,-0.640625 -2.242188,-1.816406 0,-0.265625 0.109375,-0.691406 0.214844,-1.066406 l 4.796875,-13.542969 c 0.535156,-1.492188 1.761719,-2.238281 2.933594,-2.238281 1.652344,0 3.09375,1.226562 3.09375,3.144531 0,0.214843 0,0.480469 -0.05469,0.746093 z M 7.785156,5.917969 6.503906,9.546875 c -0.746094,1.972656 -2.398437,2.984375 -3.996094,2.984375 -1.226562,0 -1.816406,-0.746094 -1.816406,-1.707031 0,-0.320313 0.109375,-0.746094 0.269532,-1.117188 C 1.707031,7.839844 4.320312,6.824219 7.785156,5.917969 Z m 0,0"
             id="path20" />
        </g>
      </g>
    </g>
    <g
       fill="#127019"
       fill-opacity="1"
       id="g26">
      <g
         transform="translate(289.68045,211.25015)"
         id="g25">
        <g
           id="g24">
          <path
             d="m 20.421875,-4.640625 7.359375,-20.636719 c 0.375,-1.117187 0.535156,-2.023437 0.535156,-2.71875 0,-2.398437 -1.652344,-2.878906 -2.347656,-3.144531 -0.320312,-0.109375 -0.691406,-0.160156 -1.066406,-0.160156 -1.597656,0 -3.253906,0.800781 -3.890625,2.664062 -1.816407,-1.917969 -3.839844,-2.664062 -6.667969,-2.664062 -3.945312,0 -8.105469,2.238281 -9.863281,7.199219 l -4.5351565,12.902343 C -0.425781,-10.078125 -0.640625,-8.90625 -0.640625,-7.839844 -0.640625,-3.625 2.292969,-0.800781 5.917969,0 0.960938,0.960938 -5.386719,2.878906 -6.984375,8.160156 c -0.269531,0.90625 -0.375,1.703125 -0.375,2.503906 0,5.171876 4.800781,8.585938 10.027344,8.585938 5.277343,0 10.238281,-2.824219 12.421875,-9.011719 l 2.453125,-6.773437 c 7.625,-2.398438 15.464843,-6.558594 19.144531,-17.757813 0.160156,-0.425781 0.214844,-0.851562 0.214844,-1.222656 0,-1.816406 -1.386719,-2.882813 -2.988282,-2.882813 -1.4375,0 -2.984374,0.90625 -3.730468,2.988282 -1.976563,5.4375 -5.546875,8.636718 -9.761719,10.769531 z m -2.292969,-16.476563 -4.050781,11.253907 c -1.066406,2.023437 -2.878906,3.519531 -4.691406,3.519531 -1.28125,0 -2.242188,-0.640625 -2.242188,-1.816406 0,-0.265625 0.109375,-0.691406 0.214844,-1.066406 l 4.796875,-13.542969 c 0.535156,-1.492188 1.761719,-2.238281 2.933594,-2.238281 1.652344,0 3.09375,1.226562 3.09375,3.144531 0,0.214843 0,0.480469 -0.05469,0.746093 z M 7.785156,5.917969 6.503906,9.546875 c -0.746094,1.972656 -2.398437,2.984375 -3.996094,2.984375 -1.226562,0 -1.816406,-0.746094 -1.816406,-1.707031 0,-0.320313 0.109375,-0.746094 0.269532,-1.117188 C 1.707031,7.839844 4.320312,6.824219 7.785156,5.917969 Z m 0,0"
             id="path23" />
        </g>
      </g>
    </g>
    <g
       fill="#127019"
       fill-opacity="1"
       id="g29">
      <g
         transform="translate(318.15026,211.25015)"
         id="g28">
        <g
           id="g27">
          <path
             d="m 14.34375,-36.207031 c 2.398438,0 4.375,-1.972657 4.375,-4.425781 0,-2.398438 -1.976562,-4.320313 -4.375,-4.320313 -2.398438,0 -4.371094,1.921875 -4.371094,4.320313 0,2.453124 1.972656,4.425781 4.371094,4.425781 z m -7.199219,27.195312 5.867188,-16.746093 c 0.210937,-0.691407 0.480469,-1.4375 0.480469,-1.972657 0,-2.34375 -1.761719,-3.570312 -3.574219,-3.570312 -1.652344,0 -3.414063,1.171875 -4.265625,3.679687 C 3.945312,-22.609375 1.707031,-16.265625 0,-11.304688 -0.320312,-10.238281 -0.746094,-8.796875 -0.746094,-7.890625 -0.746094,-2.878906 3.414062,0 8.320312,0 c 5.222657,0 10.984376,-3.199219 14.714844,-14.238281 0.109375,-0.320313 0.160156,-0.640625 0.160156,-0.960938 0,-1.652343 -1.597656,-2.664062 -3.199218,-2.664062 -1.4375,0 -2.878906,0.746093 -3.519532,2.398437 -2.503906,6.933594 -5.332031,9.121094 -7.464843,9.121094 -1.226563,0 -2.027344,-0.800781 -2.027344,-1.816406 0,-0.265625 0.054687,-0.53125 0.160156,-0.851563 z m 0,0"
             id="path26" />
        </g>
      </g>
    </g>
    <g
       fill="#127019"
       fill-opacity="1"
       id="g32">
      <g
         transform="translate(332.86499,211.25015)"
         id="g31">
        <g
           id="g30">
          <path
             d="m 22.554688,-11.144531 c 0,0.05469 0,-0.800781 -0.210938,-1.8125 0.371094,-0.265625 0.746094,-0.695313 1.066406,-1.175781 0.90625,-1.332032 2.503906,-5.96875 2.503906,-8.105469 0,-5.4375 -4.476562,-9.0625 -10.238281,-9.0625 -5.011719,0 -9.757812,2.773437 -11.464843,7.519531 L 0.320312,-12.796875 C -0.160156,-11.464844 -0.375,-10.132812 -0.375,-8.957031 -0.375,-3.359375 4.425781,0 9.863281,0 c 4.160157,0 7.945313,-1.332031 10.1875,-5.171875 0.960938,0.265625 2.078125,0.425781 3.199219,0.425781 6.292969,0 11.25,-4.480468 13.0625,-10.078125 0.160156,-0.585937 0.269531,-1.121093 0.269531,-1.601562 0,-1.972657 -1.441406,-3.089844 -2.988281,-3.089844 -1.4375,0 -2.933594,0.851563 -3.519531,2.824219 -1.171875,3.308594 -3.625,5.601562 -6.769531,5.601562 -0.214844,0 -0.535157,0 -0.75,-0.05469 z m -4.957032,-8.210938 c -0.160156,0.476563 -0.320312,0.90625 -0.375,1.332031 -2.929687,-0.320312 -5.542968,2.078126 -5.542968,5.277344 0.05078,1.816406 0.957031,2.773438 1.972656,3.628906 -0.695313,1.863282 -2.242188,2.773438 -3.894532,2.773438 -2.078124,0 -2.613281,-1.28125 -2.613281,-2.5625 0,-1.011719 0.269531,-1.972656 0.480469,-2.503906 l 3.785156,-10.828125 c 0.640625,-1.757813 2.507813,-2.769531 4.160156,-2.769531 1.652344,0 2.71875,1.117187 2.71875,2.34375 0,0.960937 -0.320312,2.1875 -0.691406,3.308593 z m 0,0"
             id="path29" />
        </g>
      </g>
    </g>
    <g
       clip-path="url(#5a2b6cb32e)"
       id="g33">
      <path
         fill="#21c637"
         d="m 100.25,197.58984 c 0.0117,0.98438 -0.0742,1.96875 -0.12891,2.95313 -0.0273,0.49219 -0.10156,0.98047 -0.15234,1.47265 -0.05469,0.48829 -0.09766,0.98438 -0.1875,1.46875 -1.136719,7.82813 -4.566406,15.31641 -9.6875,21.41407 -5.117188,6.09765 -11.945312,10.8164 -19.578125,13.35547 -1.90625,0.61718 -3.847656,1.16406 -5.832031,1.51171 l -0.742188,0.14454 c -0.246094,0.0469 -0.496094,0.0742 -0.746094,0.10937 l -1.492187,0.21484 -1.503906,0.14063 -0.753907,0.0664 -0.753906,0.0312 -1.511718,0.0625 -1.511719,-0.0156 -0.757813,-0.008 c -0.25,-0.008 -0.503906,-0.0273 -0.753906,-0.043 l -1.511719,-0.0898 -1.507812,-0.16797 -0.753907,-0.0859 -0.746093,-0.12109 -1.496094,-0.25 -1.484375,-0.32032 C 38.753906,237.64827 31.347656,233.61702 25.503906,227.9178 19.652344,222.2303 15.382812,214.87874 13.359375,206.90217 l -0.363281,-1.5 -0.292969,-1.51562 C 12.65625,203.63281 12.597656,203.37891 12.5625,203.125 l -0.109375,-0.76172 c -0.07031,-0.51172 -0.152344,-1.01953 -0.207031,-1.53125 -0.08594,-1.02734 -0.214844,-2.05078 -0.230469,-3.08203 -0.01953,-0.51563 -0.05078,-1.03125 -0.05078,-1.54688 l 0.01953,-1.54687 c 0.07031,-4.125 0.761719,-8.24609 1.972656,-12.21094 1.191407,-3.97656 3.003907,-7.75781 5.242188,-11.26562 0.265625,-0.44532 0.578125,-0.86328 0.871093,-1.29297 0.300782,-0.42188 0.585938,-0.85938 0.90625,-1.26953 0.644532,-0.81641 1.257813,-1.66016 1.960938,-2.4336 0.339844,-0.39453 0.679688,-0.79297 1.027344,-1.17578 0.257812,-0.26562 0.453125,-0.57812 0.59375,-0.91797 8.710937,-21.46875 38.964844,-29.63281 62.230468,-10.98828 0.363282,0.28906 0.171876,0.875 -0.289062,0.89453 -7.78125,0.3125 -13.3125,7.16016 -21.234375,13.29297 -8.394531,6.5 -19.464844,12.19141 -38.730469,8.44141 -0.07813,-0.0117 -0.152344,-0.0312 -0.226562,-0.0469 -0.796875,-0.19531 -1.039063,-1.21484 -0.394532,-1.72656 0.679688,-0.53516 1.367188,-1.0625 2.0625,-1.58594 1.75,-1.30468 3.546876,-2.5625 5.375,-3.77734 0.914063,-0.60547 1.835938,-1.20313 2.765626,-1.78906 0.929687,-0.58594 1.867187,-1.16016 2.8125,-1.72266 1.886718,-1.12891 3.804687,-2.20703 5.75,-3.24219 1.945312,-1.03125 3.921874,-2.00781 5.925781,-2.91797 2.007812,-0.91015 4.046875,-1.75 6.128906,-2.47656 1.042969,-0.35937 2.097656,-0.6914 3.164063,-0.97656 0.59375,-0.15625 1.191406,-0.30078 1.792968,-0.42969 0.07422,-0.0156 0.05469,-0.11719 -0.01563,-0.10937 -0.613281,0.0781 -1.226562,0.17968 -1.835937,0.29297 -1.089844,0.20312 -2.175782,0.45312 -3.25,0.73828 -2.15625,0.5664 -4.273438,1.2539 -6.367188,2.01562 -2.09375,0.76563 -4.164062,1.59766 -6.207031,2.48828 -2.042969,0.89063 -4.0625,1.83594 -6.0625,2.82813 -1,0.49609 -1.992187,1.00781 -2.980469,1.52734 -0.988281,0.52344 -1.972656,1.05469 -2.949218,1.60156 -1.324219,0.73829 -2.636719,1.50391 -3.9375,2.29688 l -0.09766,0.0937 c -0.320312,0.32812 -0.625,0.67187 -0.9375,1.00781 -0.640625,0.66016 -1.199219,1.39063 -1.792969,2.08985 -0.292968,0.35546 -0.550781,0.73437 -0.832031,1.09765 -0.269531,0.3711 -0.558593,0.73047 -0.804687,1.11719 -2.066406,3.03906 -3.78125,6.33984 -4.941406,9.84375 -1.183594,3.49219 -1.921876,7.15234 -2.09375,10.86328 l -0.0625,1.39063 c -0.01172,0.46093 0.0078,0.92578 0.0078,1.39453 -0.01563,0.92968 0.07422,1.85156 0.121094,2.78125 0.03516,0.46484 0.101562,0.92578 0.148437,1.38672 l 0.07422,0.69531 c 0.02734,0.23047 0.07422,0.45703 0.109375,0.6875 l 0.222656,1.3789 0.289063,1.36329 c 1.613281,7.26953 5.285156,14.10156 10.515625,19.50781 5.226562,5.40625 11.972656,9.36719 19.3125,11.26172 l 1.378906,0.33984 1.394531,0.27734 0.699219,0.13672 0.703125,0.0977 1.410156,0.19922 1.417969,0.13281 c 0.238281,0.0195 0.472656,0.0469 0.710937,0.0625 l 0.710938,0.0273 1.425781,0.0547 1.429688,-0.0117 0.710937,-0.0117 0.714844,-0.043 1.425781,-0.0898 1.417969,-0.15625 c 0.238281,-0.0273 0.476562,-0.0469 0.710938,-0.082 l 0.707031,-0.11719 c 1.886719,-0.26953 3.742187,-0.73828 5.578125,-1.26953 7.324218,-2.1914 14.019531,-6.5039 19.148437,-12.25781 5.132813,-5.74609 8.714844,-12.9375 10.058594,-20.60156 0.105469,-0.47266 0.164063,-0.95703 0.234375,-1.4375 0.0625,-0.48438 0.148438,-0.96094 0.191406,-1.44532 0.08594,-0.96875 0.199219,-1.9375 0.214844,-2.91015 0.04687,-0.97266 0.07031,-1.94922 0.03906,-2.92188 -0.02344,-0.97656 -0.08203,-1.94922 -0.171874,-2.92187 -0.363282,-3.88672 -1.257813,-7.73047 -2.671876,-11.38672 1.523438,3.61328 2.542969,7.44141 3.023438,11.34766 0.121091,0.97656 0.207031,1.95703 0.261721,2.9414 0.0625,0.98438 0.0703,1.96875 0.0508,2.95703"
         fill-opacity="1"
         fill-rule="nonzero"
         id="path32" />
    </g>
    <g
       clip-path="url(#d7b9c76778)"
       id="g34">
      <path
         fill="#127019"
         d="m 79.210938,184.22266 c -0.378907,2.10937 -1.355469,4.00781 -2.871094,5.46875 l -7.640625,7.64062 c -0.269531,0.26953 -0.378907,0.70313 -0.269531,1.08203 l 7.207031,23.9961 -2.277344,2.27734 -6.230469,-10.61719 c -1.679687,-2.87109 -3.738281,-5.46875 -6.066406,-7.80469 -0.433594,-0.42968 -1.082031,-0.42968 -1.515625,-0.0508 l -11.375,9.96875 c -0.273437,0.26953 -0.433594,0.64844 -0.382813,1.02735 l 1.949219,9.48047 -0.972656,0.97656 -5.414063,-7.42188 c -0.222656,-0.27343 -0.546874,-0.43359 -0.871093,-0.43359 -0.164063,0 -0.273438,0.0508 -0.433594,0.10547 l -2.003906,0.86719 0.867187,-2.00391 c 0.214844,-0.48438 0.05469,-1.02734 -0.378906,-1.30078 l -7.367188,-5.46875 0.972657,-0.97266 9.484375,1.94922 c 0.378906,0.0547 0.757812,-0.0547 1.027344,-0.37891 l 9.964843,-11.3789 c 0.378907,-0.4336 0.378907,-1.08203 -0.05469,-1.51563 -2.328125,-2.32812 -4.980469,-4.38672 -7.796875,-6.0664 l -10.617188,-6.17969 2.273438,-2.27344 24,7.20703 c 0.378906,0.10938 0.8125,0 1.082031,-0.26953 l 7.636719,-7.64062 c 1.519531,-1.46094 3.417969,-2.49219 5.472656,-2.8711 l 2.492187,-0.43359 c 0.21875,-0.0547 0.328126,0.0547 0.378907,0.10937 0.05469,0.0547 0.164062,0.21485 0.109375,0.37891 z m 1.894531,-4.4961 c -0.59375,-0.59765 -1.460938,-0.86719 -2.328125,-0.70703 l -2.492188,0.43359 c -2.546875,0.48829 -4.820312,1.67969 -6.664062,3.46875 l -7.203125,7.20313 -24,-7.20313 c -0.378907,-0.10937 -0.8125,0 -1.082031,0.26954 l -3.738282,3.73828 c -0.214844,0.21484 -0.378906,0.59375 -0.324218,0.91797 0.05078,0.32812 0.214843,0.65234 0.539062,0.8125 l 11.8125,6.9375 c 2.382812,1.41015 4.65625,3.08593 6.660156,4.98437 l -8.886718,10.12891 -9.421876,-1.94922 c -0.378906,-0.0547 -0.757812,0.0547 -0.972656,0.32422 l -2.277344,2.27734 c -0.214843,0.21484 -0.324218,0.53906 -0.324218,0.86719 0,0.32422 0.164062,0.59375 0.433594,0.8125 l 7.691406,5.68359 -0.707032,1.67969 c -0.324218,0.75781 -0.160156,1.625 0.433594,2.17187 0.597656,0.53516 1.410156,0.75782 2.167969,0.4336 l 1.679687,-0.71094 5.691407,7.69531 c 0.214843,0.26953 0.484375,0.4336 0.808593,0.4336 h 0.109376 c 0.273437,0 0.542968,-0.10938 0.757812,-0.32422 l 2.277344,-2.27344 c 0.269531,-0.27344 0.378906,-0.65234 0.324218,-0.97656 l -1.949218,-9.42578 10.070312,-8.88282 c 1.902344,2.00391 3.578125,4.27735 4.988282,6.66016 l 6.933593,11.8125 c 0.160157,0.26953 0.484375,0.48438 0.8125,0.53906 0.324219,0.0547 0.648438,-0.0547 0.917969,-0.32422 l 3.742188,-3.74218 c 0.269531,-0.26563 0.378906,-0.70313 0.269531,-1.08203 l -7.152344,-23.9961 7.152344,-7.15234 c 1.84375,-1.78906 3.035156,-4.11719 3.46875,-6.66016 l 0.433593,-2.49219 c 0.214844,-0.86718 -0.05469,-1.73437 -0.648437,-2.38281 h -0.0039"
         fill-opacity="1"
         fill-rule="nonzero"
         id="path33" />
    </g>
  </g>
</svg>
