<?xml version="1.0" encoding="UTF-8" standalone="no"?>
<svg
   width="30.236324"
   height="7.8178267"
   fill="currentColor"
   class="bi bi-tree"
   viewBox="0 0 30.236324 7.8178267"
   version="1.1"
   id="svg1"
   sodipodi:docname="NameLogo.svg"
   xml:space="preserve"
   inkscape:version="1.3.2 (091e20e, 2023-11-25, custom)"
   xmlns:inkscape="http://www.inkscape.org/namespaces/inkscape"
   xmlns:sodipodi="http://sodipodi.sourceforge.net/DTD/sodipodi-0.dtd"
   xmlns="http://www.w3.org/2000/svg"
   xmlns:svg="http://www.w3.org/2000/svg"><defs
     id="defs1"><linearGradient
       id="swatch15"
       inkscape:swatch="solid"><stop
         style="stop-color:#127019;stop-opacity:1;"
         offset="0"
         id="stop15" /></linearGradient></defs><sodipodi:namedview
     id="namedview1"
     pagecolor="#ffffff"
     bordercolor="#000000"
     borderopacity="0.25"
     inkscape:showpageshadow="2"
     inkscape:pageopacity="0.0"
     inkscape:pagecheckerboard="0"
     inkscape:deskcolor="#d1d1d1"
     showgrid="false"
     inkscape:zoom="32"
     inkscape:cx="12.625"
     inkscape:cy="4.140625"
     inkscape:window-width="1920"
     inkscape:window-height="974"
     inkscape:window-x="-11"
     inkscape:window-y="-11"
     inkscape:window-maximized="1"
     inkscape:current-layer="g16" /><g
     id="g16"
     transform="matrix(1.2041332,0,0,1.2083884,-5.3056325,-4.105461)"><g
       id="g2"><g
         id="g17"
         transform="translate(-2.4332171,0.90687666)"><g
           style="fill:#127019;fill-opacity:1;stroke:none;stroke-width:0;stroke-dasharray:none;stroke-dashoffset:0"
           id="g1"
           transform="matrix(0.14144024,0.21632123,-0.21632123,0.14144024,5.2791276,1.5549367)"><path
             d="m 22.81329,-12.191771 c 0.28,-0.56 0.785,-1.151 1.572,-1.151 0.787,0 1.292,0.592 1.572,1.151 0.289,0.579 0.428,1.28 0.428,1.849 v 3.6910004 l 5.17,2.585 a 1.5,1.5 0 0 1 0.83,1.342 v 1.382 a 0.5,0.5 0 0 1 -0.582,0.49300001 l -5.507,-0.91800001 -0.375,2.25300001 1.318,1.31799999 a 0.5,0.5 0 0 1 -0.354,0.854 h -5 a 0.5,0.5 0 0 1 -0.354,-0.854 l 1.319,-1.31799999 -0.376,-2.25300001 -5.507,0.91800001 a 0.5,0.5 0 0 1 -0.582,-0.49300001 v -1.382 a 1.5,1.5 0 0 1 0.83,-1.342 l 5.17,-2.585 v -3.6910004 c 0,-0.568 0.14,-1.271 0.428,-1.849 m 0.894,0.448 c -0.211,0.421 -0.322,0.97 -0.322,1.401 v 4.0000004 a 0.5,0.5 0 0 1 -0.276,0.447 l -5.448,2.724 a 0.5,0.5 0 0 0 -0.276,0.447 v 0.792 l 5.418,-0.903 a 0.5,0.5 0 0 1 0.575,0.41 l 0.5,3.00000001 a 0.5,0.5 0 0 1 -0.14,0.43699999 l -0.645,0.646 h 2.586 l -0.647,-0.646 a 0.5,0.5 0 0 1 -0.14,-0.43599999 l 0.5,-3.00000001 a 0.5,0.5 0 0 1 0.576,-0.411 l 5.417,0.903 v -0.792 a 0.5,0.5 0 0 0 -0.276,-0.447 l -5.448,-2.724 a 0.5,0.5 0 0 1 -0.276,-0.447 v -4.0000004 c 0,-0.432 -0.11,-0.979 -0.322,-1.401 -0.22,-0.44 -0.465,-0.599 -0.678,-0.599 -0.213,0 -0.458,0.158 -0.678,0.599"
             id="path1-5"
             inkscape:label="path1-5"
             style="fill:#127019;fill-opacity:1;stroke:none;stroke-width:0;stroke-dasharray:none;stroke-dashoffset:0" /></g><g
           id="g15"><path
             d="m 10.88996,2.6222724 c 0,0 -0.353868,0.058591 -0.639993,-0.017316 -2.1189834,-0.5618027 -2.2324344,1.1277774 -2.2118824,1.14783 0,0 0.209729,-0.099527 0.403439,-0.1049822 1.229422,-0.034033 1.8727034,-0.6084023 1.8727034,-0.6084023 0,0 -0.7576494,0.7025351 -1.8398314,0.7161834 -0.239001,0.00295 -0.5418,0.2082905 -0.7818876,0.4567519 0,0 0.1451676,0.032825 0.2025986,0.054266 0.10507,-0.1109154 0.227255,-0.2022275 0.368044,-0.2617818 0.928973,0.8225204 1.8262664,0.2366299 2.0668224,-0.017915 0.56806,-0.6010136 0.560042,-1.3647165 0.560042,-1.3647165 z"
             id="path1"
             style="fill:#21c637;fill-opacity:1;stroke-width:0.0993534" /><path
             style="display:inline;fill:none;fill-opacity:1;stroke:#21c637;stroke-width:0.181417;stroke-dasharray:none;stroke-dashoffset:0;stroke-opacity:1;paint-order:normal"
             id="path2"
             sodipodi:type="arc"
             sodipodi:cx="9.5990467"
             sodipodi:cy="6.2003407"
             sodipodi:rx="2.6689763"
             sodipodi:ry="2.6689763"
             sodipodi:start="0"
             sodipodi:end="4.0095405"
             sodipodi:open="true"
             sodipodi:arc-type="arc"
             d="M 12.268023,6.2003407 A 2.6689763,2.6689763 0 0 1 10.218637,8.7964035 2.6689763,2.6689763 0 0 1 7.2177408,7.4056691 2.6689763,2.6689763 0 0 1 7.8738372,4.163901" /></g></g><text
         xml:space="preserve"
         style="font-size:4.15068px;opacity:0.99;fill:none;fill-opacity:1;stroke:#21c637;stroke-width:0;stroke-dasharray:none;stroke-dashoffset:0;stroke-opacity:1;paint-order:normal"
         x="10.624665"
         y="8.3353834"
         id="text17"
         transform="scale(1.0017654,0.99823772)"><tspan
           sodipodi:role="line"
           id="tspan17"
           style="font-style:normal;font-variant:normal;font-weight:normal;font-stretch:normal;font-size:4.15068px;font-family:'Protest Riot';-inkscape-font-specification:'Protest Riot';opacity:1;fill:#127019;fill-opacity:1;stroke-width:0"
           x="10.624665"
           y="8.3353834">EcoViaggio</tspan></text></g></g></svg>
