<?xml version="1.0" encoding="UTF-8" standalone="no"?>
<svg
   width="30.236324"
   height="7.8178267"
   fill="currentColor"
   class="bi bi-tree"
   viewBox="0 0 30.236324 7.8178267"
   version="1.1"
   id="svg1"
   sodipodi:docname="NameLogo.svg"
   xml:space="preserve"
   inkscape:version="1.3.2 (091e20e, 2023-11-25, custom)"
   xmlns:inkscape="http://www.inkscape.org/namespaces/inkscape"
   xmlns:sodipodi="http://sodipodi.sourceforge.net/DTD/sodipodi-0.dtd"
   xmlns="http://www.w3.org/2000/svg"
   xmlns:svg="http://www.w3.org/2000/svg"><defs
     id="defs1"><linearGradient
       id="swatch15"
       inkscape:swatch="solid"><stop
         style="stop-color:#127019;stop-opacity:1;"
         offset="0"
         id="stop15" /></linearGradient></defs><sodipodi:namedview
     id="namedview1"
     pagecolor="#ffffff"
     bordercolor="#000000"
     borderopacity="0.25"
     inkscape:showpageshadow="2"
     inkscape:pageopacity="0.0"
     inkscape:pagecheckerboard="0"
     inkscape:deskcolor="#d1d1d1"
     showgrid="false"
     inkscape:zoom="32"
     inkscape:cx="12.640625"
     inkscape:cy="4.140625"
     inkscape:window-width="1920"
     inkscape:window-height="974"
     inkscape:window-x="-11"
     inkscape:window-y="-11"
     inkscape:window-maximized="1"
     inkscape:current-layer="g16" /><g
     id="g16"
     transform="matrix(1.2041332,0,0,1.2083884,-5.3056325,-4.105461)"><g
       id="g2"><g
         id="g17"
         transform="translate(-2.4332171,0.90687666)"><g
           style="fill:#127019;fill-opacity:1;stroke:none;stroke-width:0;stroke-dasharray:none;stroke-dashoffset:0"
           id="g1"
           transform="matrix(0.14144024,0.21632123,-0.21632123,0.14144024,5.2791276,1.5549367)"><path
             d="m 22.81329,-12.191771 c 0.28,-0.56 0.785,-1.151 1.572,-1.151 0.787,0 1.292,0.592 1.572,1.151 0.289,0.579 0.428,1.28 0.428,1.849 v 3.6910004 l 5.17,2.585 a 1.5,1.5 0 0 1 0.83,1.342 v 1.382 a 0.5,0.5 0 0 1 -0.582,0.49300001 l -5.507,-0.91800001 -0.375,2.25300001 1.318,1.31799999 a 0.5,0.5 0 0 1 -0.354,0.854 h -5 a 0.5,0.5 0 0 1 -0.354,-0.854 l 1.319,-1.31799999 -0.376,-2.25300001 -5.507,0.91800001 a 0.5,0.5 0 0 1 -0.582,-0.49300001 v -1.382 a 1.5,1.5 0 0 1 0.83,-1.342 l 5.17,-2.585 v -3.6910004 c 0,-0.568 0.14,-1.271 0.428,-1.849 m 0.894,0.448 c -0.211,0.421 -0.322,0.97 -0.322,1.401 v 4.0000004 a 0.5,0.5 0 0 1 -0.276,0.447 l -5.448,2.724 a 0.5,0.5 0 0 0 -0.276,0.447 v 0.792 l 5.418,-0.903 a 0.5,0.5 0 0 1 0.575,0.41 l 0.5,3.00000001 a 0.5,0.5 0 0 1 -0.14,0.43699999 l -0.645,0.646 h 2.586 l -0.647,-0.646 a 0.5,0.5 0 0 1 -0.14,-0.43599999 l 0.5,-3.00000001 a 0.5,0.5 0 0 1 0.576,-0.411 l 5.417,0.903 v -0.792 a 0.5,0.5 0 0 0 -0.276,-0.447 l -5.448,-2.724 a 0.5,0.5 0 0 1 -0.276,-0.447 v -4.0000004 c 0,-0.432 -0.11,-0.979 -0.322,-1.401 -0.22,-0.44 -0.465,-0.599 -0.678,-0.599 -0.213,0 -0.458,0.158 -0.678,0.599"
             id="path1-5"
             inkscape:label="path1-5"
             style="fill:#127019;fill-opacity:1;stroke:none;stroke-width:0;stroke-dasharray:none;stroke-dashoffset:0" /></g><g
           id="g15"><path
             d="m 10.88996,2.6222724 c 0,0 -0.353868,0.058591 -0.639993,-0.017316 -2.1189834,-0.5618027 -2.2324344,1.1277774 -2.2118824,1.14783 0,0 0.209729,-0.099527 0.403439,-0.1049822 1.229422,-0.034033 1.8727034,-0.6084023 1.8727034,-0.6084023 0,0 -0.7576494,0.7025351 -1.8398314,0.7161834 -0.239001,0.00295 -0.5418,0.2082905 -0.7818876,0.4567519 0,0 0.1451676,0.032825 0.2025986,0.054266 0.10507,-0.1109154 0.227255,-0.2022275 0.368044,-0.2617818 0.928973,0.8225204 1.8262664,0.2366299 2.0668224,-0.017915 0.56806,-0.6010136 0.560042,-1.3647165 0.560042,-1.3647165 z"
             id="path1"
             style="fill:#21c637;fill-opacity:1;stroke-width:0.0993534" /><path
             style="display:inline;fill:none;fill-opacity:1;stroke:#21c637;stroke-width:0.181417;stroke-dasharray:none;stroke-dashoffset:0;stroke-opacity:1;paint-order:normal"
             id="path2"
             sodipodi:type="arc"
             sodipodi:cx="9.5990467"
             sodipodi:cy="6.2003407"
             sodipodi:rx="2.6689763"
             sodipodi:ry="2.6689763"
             sodipodi:start="0"
             sodipodi:end="4.0095405"
             sodipodi:open="true"
             sodipodi:arc-type="arc"
             d="M 12.268023,6.2003407 A 2.6689763,2.6689763 0 0 1 10.218637,8.7964035 2.6689763,2.6689763 0 0 1 7.2177408,7.4056691 2.6689763,2.6689763 0 0 1 7.8738372,4.163901" /></g></g><path
         style="font-size:4.15068px;font-family:'Protest Riot';-inkscape-font-specification:'Protest Riot';opacity:0.99;fill:#127019;stroke:#21c637;stroke-width:0"
         d="m 11.57102,8.3934929 q -0.116219,0 -0.240739,-0.049808 -0.124521,-0.045658 -0.18263,-0.1494245 -0.12037,-0.053959 -0.174329,-0.1701779 -0.04981,-0.1203697 -0.04151,-0.2656435 0.03321,-0.5022323 0.05396,-1.0044646 0.02075,-0.5022323 0.07886,-1.0044646 -0.08301,-0.074712 -0.149424,-0.1618765 -0.06226,-0.091315 -0.06226,-0.1535752 0,-0.066411 0.07886,-0.066411 0.05811,0 0.190931,-0.0083 0.132822,-0.012452 0.290547,-0.024904 0.157726,-0.016603 0.303,-0.024904 0.145274,-0.012452 0.228288,-0.012452 0.240739,0 0.390163,0.066411 0.153576,0.066411 0.224137,0.1701779 0.07471,0.099616 0.07471,0.2116847 0,0.041507 -0.04151,0.041507 -0.03736,0 -0.07056,0 -0.03321,-0.00415 -0.06641,-0.00415 -0.18678,0 -0.390164,0.020753 -0.203383,0.020753 -0.377712,0.045657 -0.03736,0.3279037 -0.06226,0.6724101 0.195082,-0.024904 0.340356,-0.024904 0.06226,0 0.145274,0.037356 0.08716,0.033205 0.166027,0.087164 0.07886,0.053959 0.132822,0.1162191 0.05396,0.058109 0.05396,0.1079177 0,0.074712 -0.03736,0.095466 -0.03736,0.020753 -0.116219,0.020753 -0.07471,0 -0.199232,0.016603 -0.12037,0.016603 -0.261493,0.037356 -0.136973,0.016603 -0.257342,0.024904 -0.01245,0.1992327 -0.02075,0.402616 -0.0083,0.1992326 -0.01245,0.3984653 0.170178,-0.1120684 0.327904,-0.1784793 0.157726,-0.070561 0.282246,-0.070561 0.08301,0 0.186781,0.049808 0.103767,0.049808 0.18263,0.1245204 0.07886,0.070562 0.07886,0.1328218 0,0.053959 -0.04981,0.074712 z m 2.013085,-0.00415 q -0.153575,0 -0.319602,-0.041507 -0.161877,-0.037356 -0.286397,-0.1784793 -0.141124,-0.1369724 -0.195082,-0.3029996 -0.04981,-0.1701779 -0.04981,-0.4109174 0,-0.2988489 0.07056,-0.5727938 0.07056,-0.2780956 0.203383,-0.4897803 0.136973,-0.2158353 0.327904,-0.3403557 0.190931,-0.1245204 0.42752,-0.1245204 0.12037,0 0.211685,0.024904 0.09131,0.024904 0.170178,0.1203697 0.145274,0.041507 0.207534,0.1535751 0.06641,0.1120684 0.06641,0.2324381 0,0.1079177 -0.05811,0.2490408 -0.05396,0.1369725 -0.103767,0.2822463 -0.01245,0.029055 -0.0249,0.049808 -0.01245,0.020753 -0.05396,0.020753 -0.04566,0 -0.112068,-0.041507 -0.06641,-0.045657 -0.132822,-0.1079176 -0.06226,-0.06226 -0.103767,-0.1245204 -0.04151,-0.06226 -0.04151,-0.095466 0.0042,-0.05811 0.03736,-0.1452738 0.03736,-0.087164 0.09962,-0.1784792 -0.112069,-0.020753 -0.215836,0.083014 -0.09962,0.103767 -0.178479,0.2905476 -0.07886,0.1826299 -0.128671,0.4026159 -0.04566,0.2199861 -0.04566,0.4316708 0,0.066411 0.0042,0.1328217 0.0042,0.066411 0.0166,0.1245204 0.06641,0.016603 0.141123,0.016603 0.153575,0 0.269794,-0.06226 0.12037,-0.066411 0.203384,-0.1535751 0.08716,-0.087164 0.136972,-0.1494245 0.05396,-0.066411 0.07471,-0.066411 0.08301,0 0.136973,0.06226 0.05396,0.06226 0.05396,0.1701779 0,0.195082 -0.112069,0.3652599 -0.112068,0.1701778 -0.294698,0.2739448 -0.18263,0.099616 -0.402616,0.099616 z m 1.892712,0.0083 q -0.136972,0 -0.265643,-0.053959 Q 15.086654,8.2938766 15.007791,8.1693562 14.808558,8.0738906 14.70064,7.8373018 14.592723,7.600713 14.592723,7.2852614 q 0,-0.2739449 0.07471,-0.518835 0.07471,-0.2490409 0.203383,-0.4399721 0.128671,-0.1909313 0.294698,-0.298849 0.170178,-0.1120684 0.356959,-0.1120684 0.157726,0 0.315452,0.05811 0.157725,0.053959 0.273945,0.1992326 0.203383,0.103767 0.311301,0.3029996 0.112068,0.1992327 0.112068,0.4358215 0,0.3029996 -0.06226,0.5727938 -0.06226,0.2697942 -0.190932,0.4773282 -0.128671,0.2033833 -0.327903,0.3196024 -0.199233,0.116219 -0.477329,0.116219 z m -0.08301,-0.4565748 q 0.12452,0 0.219986,-0.1079177 0.09547,-0.1079177 0.161876,-0.2739449 0.06641,-0.1701778 0.09962,-0.3652598 0.03736,-0.195082 0.03736,-0.3694105 0,-0.1909313 -0.04566,-0.3196024 -0.04151,-0.1286711 -0.136972,-0.1286711 -0.12452,0 -0.219986,0.1079177 -0.09547,0.1079177 -0.161877,0.2780956 -0.06641,0.1660272 -0.103767,0.3611091 -0.03321,0.195082 -0.03321,0.3694106 0,0.1909312 0.04566,0.3196023 0.04566,0.1286711 0.136973,0.1286711 z m 2.299481,0.4565748 q -0.120369,0 -0.211684,-0.041507 -0.08716,-0.037356 -0.170178,-0.116219 -0.315452,-0.103767 -0.352808,-0.4607255 L 16.734478,5.3842499 q 0.03321,-0.049808 0.136973,-0.049808 0.116219,0 0.224137,0.066411 0.112068,0.066411 0.18678,0.1867806 0.07886,0.1162191 0.09131,0.2780956 l 0.149425,1.7349842 h 0.01245 q 0.112068,-0.1909312 0.224136,-0.4441227 0.112069,-0.2573422 0.215836,-0.5312871 0.103767,-0.2780955 0.18678,-0.531287 0.08716,-0.2573422 0.145274,-0.4482735 0.06226,-0.1909312 0.08716,-0.2739449 0.0083,-0.029055 0.04566,-0.049808 0.04151,-0.024904 0.09547,-0.024904 0.07886,0 0.157725,0.041507 0.08301,0.037356 0.136973,0.1162191 0.05396,0.074712 0.05396,0.1867806 0,0.029055 -0.0042,0.06226 -0.0042,0.033205 -0.0166,0.070561 -0.01245,0.037356 -0.06641,0.1784793 -0.05396,0.1411231 -0.141123,0.3611091 -0.08301,0.2158354 -0.190931,0.4773282 -0.107918,0.2573422 -0.224137,0.5312871 -0.116219,0.2739449 -0.236588,0.5354377 -0.11622,0.2614929 -0.224137,0.4731775 -0.01245,0.020753 -0.03321,0.041507 -0.0166,0.024904 -0.05396,0.024904 z m 1.751589,-0.00415 q -0.107918,0 -0.228287,-0.041507 -0.116219,-0.041507 -0.199233,-0.1203697 -0.07886,-0.078863 -0.07886,-0.1909313 0,-0.066411 0.0083,-0.2365887 0.0083,-0.1701779 0.02075,-0.3943146 0.01245,-0.2282874 0.02905,-0.4690269 0.0166,-0.2448901 0.03736,-0.4648762 0.02075,-0.219986 0.03736,-0.3735612 0.0041,-0.033205 0.04151,-0.041507 0.03736,-0.012452 0.06226,-0.012452 0.09546,0 0.211684,0.053959 0.116219,0.053959 0.199233,0.1369725 0.08716,0.083014 0.08716,0.1743285 0,0.053959 -0.0166,0.2158354 -0.0166,0.1577259 -0.04151,0.3777119 -0.02075,0.219986 -0.04566,0.4607255 -0.02075,0.2407394 -0.03736,0.4690268 -0.0166,0.2241368 -0.0166,0.390164 0,0.020753 -0.0166,0.041507 -0.0166,0.024904 -0.05396,0.024904 z m 0.05811,-2.7560515 q -0.136972,0 -0.253191,-0.029055 -0.112068,-0.033205 -0.178479,-0.116219 -0.06226,-0.083014 -0.05396,-0.2365888 0.0083,-0.078863 0.02075,-0.1701779 0.0166,-0.095466 0.107918,-0.116219 0.04981,-0.0083 0.12037,-0.012452 0.07056,-0.00415 0.12452,-0.00415 0.116219,0 0.257342,0.037356 0.07056,0.016603 0.07056,0.053959 0,0.095466 -0.02905,0.2241367 -0.02905,0.1286711 -0.06226,0.3528079 -0.06641,0.016603 -0.124521,0.016603 z m 1.02937,2.7560515 q -0.128671,0 -0.24489,-0.045657 -0.112068,-0.041507 -0.18263,-0.1660272 -0.128671,-0.070562 -0.178479,-0.1577259 -0.04566,-0.091315 -0.04566,-0.2033833 0,-0.2407395 0.112069,-0.4275201 0.116219,-0.1867806 0.30715,-0.2946982 0.190931,-0.1079177 0.419219,-0.1079177 0.09547,0 0.18263,0.012452 0.09132,0.0083 0.18678,0.053959 0.01245,-0.083014 0.02905,-0.207534 0.0166,-0.1245205 0.0166,-0.2324381 0,-0.095466 -0.02075,-0.1577259 -0.0166,-0.066411 -0.07056,-0.066411 -0.07056,0 -0.132822,0.045657 -0.06226,0.041507 -0.12452,0.103767 -0.05811,0.058109 -0.124521,0.103767 -0.06226,0.041507 -0.136972,0.041507 -0.08301,0 -0.195082,-0.05811 -0.107918,-0.058109 -0.186781,-0.1369724 -0.07886,-0.083014 -0.07886,-0.1452738 0,-0.041507 0.07886,-0.1120684 0.07886,-0.070562 0.211685,-0.1452738 0.132822,-0.074712 0.294698,-0.1245204 0.161877,-0.053959 0.327904,-0.053959 0.107918,0 0.211685,0.029055 0.103767,0.029055 0.195082,0.095466 0.199232,0.05811 0.286397,0.1867806 0.09131,0.128671 0.09131,0.3735612 0,0.074712 -0.0166,0.2614928 -0.01245,0.1867806 -0.03321,0.4358214 -0.02075,0.2448901 -0.04566,0.5105337 -0.0042,0.099616 0.02075,0.2324381 0.02905,0.128671 0.02905,0.2241367 0,0.058109 -0.02075,0.095466 -0.02075,0.037356 -0.07886,0.037356 -0.07471,0 -0.17848,-0.037356 -0.103767,-0.033205 -0.203383,-0.095466 -0.09962,-0.066411 -0.161876,-0.1494245 -0.107918,0.1203697 -0.249041,0.2033833 -0.141123,0.078863 -0.290548,0.078863 z m 0.04151,-0.518835 q 0.06641,0 0.161877,-0.037356 0.09547,-0.037356 0.18678,-0.091315 0.09132,-0.058109 0.145274,-0.1120683 l 0.0083,-0.1286711 q -0.07056,-0.070562 -0.166027,-0.070562 -0.09131,0 -0.186781,0.06226 -0.09547,0.05811 -0.161876,0.1452738 -0.06641,0.083014 -0.06641,0.1618766 0,0.041507 0.02075,0.05811 0.02491,0.012452 0.05811,0.012452 z m 2.241369,0.3694106 q -0.132822,0 -0.282246,-0.087164 -0.149425,-0.091315 -0.253192,-0.2656436 -0.153575,-0.1203697 -0.228287,-0.2780955 -0.07056,-0.1618765 -0.07056,-0.3237531 0,-0.2697942 0.07471,-0.5146843 0.07471,-0.2490408 0.203384,-0.4441228 0.132821,-0.1950819 0.302999,-0.3071503 0.174329,-0.1120683 0.369411,-0.1120683 0.228287,0 0.464876,0.1992326 0.0042,-0.087164 0.01245,-0.1784792 0.0042,-0.037356 0.03321,-0.05811 0.02905,-0.024904 0.06641,-0.024904 0.128671,0 0.244891,0.070561 0.116219,0.070562 0.18678,0.1909313 0.07471,0.1203697 0.06226,0.2780956 l -0.09547,1.3240669 q -0.03736,0.5229857 -0.170178,0.8218347 -0.128671,0.3029996 -0.323753,0.42752 -0.195082,0.1245204 -0.435822,0.1245204 -0.298849,0 -0.527136,-0.078863 -0.224137,-0.074712 -0.352808,-0.1909313 -0.12452,-0.1120684 -0.12452,-0.2282874 0,-0.1245204 0.05396,-0.1826299 0.05811,-0.058109 0.141123,-0.06226 0.161876,0.1411231 0.290547,0.2033833 0.132822,0.06226 0.319603,0.06226 0.203383,0 0.311301,-0.116219 0.107917,-0.1120684 0.136972,-0.402616 0,-0.016603 0.0042,-0.029055 -0.112069,0.095466 -0.224137,0.1411232 -0.107918,0.041507 -0.190931,0.041507 z m -0.24074,-0.6765609 q 0,0.1660272 0.161877,0.1660272 0.06641,0 0.170178,-0.041507 0.107917,-0.041507 0.215835,-0.1203697 0.107918,-0.078863 0.170178,-0.1909313 0.02075,-0.2282874 0.04151,-0.4565748 0.02075,-0.2282874 0.03736,-0.4565748 Q 23.2469,6.355509 23.12653,6.355509 q -0.149425,0 -0.278096,0.1577259 -0.12452,0.1577258 -0.199232,0.4316707 -0.07471,0.2697942 -0.07471,0.622602 z m 2.4489,0.6765609 q -0.132822,0 -0.282246,-0.087164 -0.149425,-0.091315 -0.253192,-0.2656436 -0.153575,-0.1203697 -0.228287,-0.2780955 -0.07056,-0.1618765 -0.07056,-0.3237531 0,-0.2697942 0.07471,-0.5146843 0.07471,-0.2490408 0.203383,-0.4441228 0.132822,-0.1950819 0.303,-0.3071503 0.174328,-0.1120683 0.36941,-0.1120683 0.228288,0 0.464876,0.1992326 0.0042,-0.087164 0.01245,-0.1784792 0.0042,-0.037356 0.03321,-0.05811 0.02905,-0.024904 0.06641,-0.024904 0.128671,0 0.24489,0.070561 0.116219,0.070562 0.186781,0.1909313 0.07471,0.1203697 0.06226,0.2780956 l -0.09547,1.3240669 q -0.03736,0.5229857 -0.170178,0.8218347 -0.128671,0.3029996 -0.323753,0.42752 -0.195082,0.1245204 -0.435821,0.1245204 -0.298849,0 -0.527137,-0.078863 -0.224136,-0.074712 -0.352807,-0.1909313 -0.124521,-0.1120684 -0.124521,-0.2282874 0,-0.1245204 0.05396,-0.1826299 0.05811,-0.058109 0.141123,-0.06226 0.161877,0.1411231 0.290548,0.2033833 0.132821,0.06226 0.319602,0.06226 0.203383,0 0.311301,-0.116219 0.107918,-0.1120684 0.136973,-0.402616 0,-0.016603 0.0041,-0.029055 -0.112068,0.095466 -0.224136,0.1411232 -0.107918,0.041507 -0.190932,0.041507 z M 24.78265,7.5675076 q 0,0.1660272 0.161876,0.1660272 0.06641,0 0.170178,-0.041507 0.107918,-0.041507 0.215836,-0.1203697 0.107917,-0.078863 0.170177,-0.1909313 0.02075,-0.2282874 0.04151,-0.4565748 0.02075,-0.2282874 0.03736,-0.4565748 -0.12452,-0.1120684 -0.24489,-0.1120684 -0.149424,0 -0.278095,0.1577259 -0.124521,0.1577258 -0.199233,0.4316707 -0.07471,0.2697942 -0.07471,0.622602 z m 2.199859,0.8259853 q -0.107918,0 -0.228288,-0.041507 -0.116219,-0.041507 -0.199232,-0.1203697 -0.07886,-0.078863 -0.07886,-0.1909313 0,-0.066411 0.0083,-0.2365887 0.0083,-0.1701779 0.02075,-0.3943146 0.01245,-0.2282874 0.02905,-0.4690269 0.0166,-0.2448901 0.03736,-0.4648762 0.02075,-0.219986 0.03736,-0.3735612 0.0041,-0.033205 0.04151,-0.041507 0.03736,-0.012452 0.06226,-0.012452 0.09547,0 0.211684,0.053959 0.116219,0.053959 0.199233,0.1369725 0.08716,0.083014 0.08716,0.1743285 0,0.053959 -0.0166,0.2158354 -0.0166,0.1577259 -0.04151,0.3777119 -0.02075,0.219986 -0.04566,0.4607255 -0.02075,0.2407394 -0.03736,0.4690268 -0.0166,0.2241368 -0.0166,0.390164 0,0.020753 -0.0166,0.041507 -0.0166,0.024904 -0.05396,0.024904 z m 0.05811,-2.7560515 q -0.136972,0 -0.253191,-0.029055 -0.112069,-0.033205 -0.178479,-0.116219 -0.06226,-0.083014 -0.05396,-0.2365888 0.0083,-0.078863 0.02075,-0.1701779 0.0166,-0.095466 0.107918,-0.116219 0.04981,-0.0083 0.12037,-0.012452 0.07056,-0.00415 0.12452,-0.00415 0.116219,0 0.257342,0.037356 0.07056,0.016603 0.07056,0.053959 0,0.095466 -0.02906,0.2241367 -0.02905,0.1286711 -0.06226,0.3528079 -0.06641,0.016603 -0.124521,0.016603 z m 1.365574,2.7602022 q -0.136972,0 -0.265643,-0.053959 -0.124521,-0.049808 -0.203384,-0.1743286 -0.199232,-0.095466 -0.30715,-0.3320544 -0.107918,-0.2365888 -0.107918,-0.5520404 0,-0.2739449 0.07471,-0.518835 0.07471,-0.2490409 0.203383,-0.4399721 0.128671,-0.1909313 0.294698,-0.298849 0.170178,-0.1120684 0.356959,-0.1120684 0.157725,0 0.315451,0.05811 0.157726,0.053959 0.273945,0.1992326 0.203384,0.103767 0.311301,0.3029996 0.112069,0.1992327 0.112069,0.4358215 0,0.3029996 -0.06226,0.5727938 -0.06226,0.2697942 -0.190931,0.4773282 -0.128671,0.2033833 -0.327904,0.3196024 -0.199232,0.116219 -0.477328,0.116219 z m -0.08301,-0.4565748 q 0.12452,0 0.219986,-0.1079177 0.09547,-0.1079177 0.161876,-0.2739449 0.06641,-0.1701778 0.09962,-0.3652598 0.03736,-0.195082 0.03736,-0.3694105 0,-0.1909313 -0.04566,-0.3196024 -0.04151,-0.1286711 -0.136972,-0.1286711 -0.124521,0 -0.219986,0.1079177 -0.09547,0.1079177 -0.161877,0.2780956 -0.06641,0.1660272 -0.103767,0.3611091 -0.0332,0.195082 -0.0332,0.3694106 0,0.1909312 0.04566,0.3196023 0.04566,0.1286711 0.136973,0.1286711 z"
         id="text17"
         transform="scale(1.0017654,0.99823772)"
         aria-label="EcoViaggio" /></g></g></svg>
