<?xml version="1.0" encoding="UTF-8" standalone="no"?>
<svg
   width="267"
   zoomAndPan="magnify"
   viewBox="0 0 200.25 221.8824"
   height="295.8432"
   preserveAspectRatio="xMidYMid"
   version="1.0"
   id="svg4"
   sodipodi:docname="SymbolLogo.svg"
   inkscape:version="1.3.2 (091e20e, 2023-11-25, custom)"
   xmlns:inkscape="http://www.inkscape.org/namespaces/inkscape"
   xmlns:sodipodi="http://sodipodi.sourceforge.net/DTD/sodipodi-0.dtd"
   xmlns="http://www.w3.org/2000/svg"
   xmlns:svg="http://www.w3.org/2000/svg">
  <sodipodi:namedview
     id="namedview4"
     pagecolor="#ffffff"
     bordercolor="#000000"
     borderopacity="0.25"
     inkscape:showpageshadow="2"
     inkscape:pageopacity="0.0"
     inkscape:pagecheckerboard="0"
     inkscape:deskcolor="#d1d1d1"
     inkscape:zoom="1.478"
     inkscape:cx="133.28823"
     inkscape:cy="174.89851"
     inkscape:window-width="1920"
     inkscape:window-height="974"
     inkscape:window-x="-11"
     inkscape:window-y="-11"
     inkscape:window-maximized="1"
     inkscape:current-layer="svg4" />
  <defs
     id="defs2">
    <clipPath
       id="47400c96fa">
      <path
         d="M 87.347656,56 H 287.59766 V 278.25 H 87.347656 Z m 0,0"
         clip-rule="nonzero"
         id="path1" />
    </clipPath>
    <clipPath
       id="6505005e20">
      <path
         d="M 129.16797,138.58203 H 245.82812 V 255.29297 H 129.16797 Z m 0,0"
         clip-rule="nonzero"
         id="path2" />
    </clipPath>
  </defs>
  <g
     id="g5"
     transform="translate(-87.347656,-56.332441)">
    <g
       clip-path="url(#47400c96fa)"
       id="g3">
      <path
         fill="#21c637"
         d="m 287.60937,180.79687 c 0.0234,2.23438 -0.16796,4.46485 -0.29296,6.69922 -0.0664,1.1211 -0.23047,2.22657 -0.34375,3.34375 -0.12891,1.10938 -0.22657,2.23047 -0.4336,3.32813 -2.57422,17.75781 -10.34765,34.75 -21.97265,48.57422 -11.60938,13.83593 -27.09766,24.53906 -44.40235,30.29687 -4.33203,1.39844 -8.73437,2.64063 -13.23047,3.42969 l -1.68359,0.32422 c -0.55859,0.10937 -1.125,0.17187 -1.69141,0.2539 l -3.39062,0.48438 -3.41016,0.31641 -1.71094,0.15625 -1.71093,0.0742 -3.42578,0.13672 -3.42969,-0.0312 -1.71875,-0.0195 c -0.57031,-0.0195 -1.14063,-0.0625 -1.71094,-0.0976 l -3.42969,-0.21094 -3.41797,-0.37891 -1.70703,-0.1914 -1.69922,-0.27735 -3.39453,-0.5664 -3.36718,-0.72266 c -17.92188,-4.0509 -34.71875,-13.19543 -47.97657,-26.12121 -13.27343,-12.90625 -22.957028,-29.57813 -27.546871,-47.67579 l -0.828125,-3.40234 -0.664063,-3.4375 c -0.105469,-0.57422 -0.234375,-1.14844 -0.320312,-1.72266 L 88.453125,191.625 c -0.15625,-1.15625 -0.34375,-2.3125 -0.472656,-3.47266 C 87.789062,185.82422 87.5,183.5 87.460938,181.16016 c -0.03906,-1.16407 -0.113282,-2.33204 -0.117188,-3.50391 l 0.04297,-3.50781 c 0.160156,-9.35938 1.734375,-18.70703 4.480469,-27.70313 2.695312,-9.01953 6.8125,-17.59765 11.886721,-25.54687 0.60156,-1.01563 1.3125,-1.96094 1.97656,-2.9375 0.6875,-0.96094 1.33594,-1.94922 2.05469,-2.88281 1.46875,-1.85157 2.85937,-3.76563 4.44922,-5.51954 0.77734,-0.88671 1.53906,-1.79296 2.33593,-2.66796 0.57813,-0.59766 1.02735,-1.3086 1.33985,-2.08204 19.76562,-48.699215 88.39062,-67.210934 141.16406,-24.921871 0.82031,0.660156 0.39062,1.984375 -0.65625,2.027343 -17.64844,0.710938 -30.19922,16.246094 -48.16406,30.156248 -19.03907,14.74219 -44.15625,27.64844 -87.85547,19.14844 -0.17578,-0.0312 -0.34766,-0.0703 -0.51563,-0.10938 -1.8125,-0.44531 -2.35156,-2.7539 -0.89062,-3.91015 1.53906,-1.21875 3.10156,-2.41797 4.67969,-3.60156 3.96484,-2.96485 8.03906,-5.81641 12.18749,-8.57032 2.07032,-1.375 4.16407,-2.72656 6.27344,-4.05859 2.10938,-1.32422 4.23438,-2.62891 6.375,-3.90625 4.28516,-2.55859 8.63672,-5.01172 13.04688,-7.351562 4.41015,-2.339844 8.89062,-4.558594 13.4414,-6.625 4.55469,-2.0625 9.17969,-3.96875 13.90625,-5.613282 2.36328,-0.816406 4.75391,-1.566406 7.17578,-2.214844 1.34766,-0.359374 2.70313,-0.6875 4.07032,-0.972656 0.16015,-0.03516 0.11718,-0.273437 -0.043,-0.253906 -1.39063,0.183594 -2.77344,0.40625 -4.15625,0.664062 -2.48047,0.464844 -4.94141,1.03125 -7.38281,1.675782 -4.88282,1.285156 -9.69141,2.847656 -14.44141,4.574218 -4.74609,1.730469 -9.4375,3.621094 -14.07422,5.644532 -4.63672,2.019531 -9.21875,4.160156 -13.75391,6.417966 -2.26562,1.125 -4.51953,2.28125 -6.76171,3.46094 -2.24219,1.18359 -4.46875,2.39453 -6.6836,3.62891 -3.00781,1.68359 -5.98437,3.41797 -8.9375,5.21093 l -0.22265,0.21875 c -0.72266,0.7461 -1.41407,1.52344 -2.125,2.28516 -1.45313,1.49609 -2.71485,3.14844 -4.06641,4.73828 -0.66016,0.80469 -1.25,1.66406 -1.88281,2.49219 -0.61328,0.83984 -1.27344,1.65234 -1.82813,2.53516 -4.6875,6.88671 -8.57812,14.37499 -11.21484,22.32421 -2.679688,7.92578 -4.351563,16.22657 -4.742188,24.64063 l -0.140625,3.15625 c -0.03125,1.05078 0.01172,2.10547 0.01172,3.16015 -0.03125,2.10938 0.171875,4.20704 0.277344,6.3125 0.08203,1.05469 0.226562,2.09766 0.332031,3.14454 l 0.175781,1.57421 c 0.05859,0.52344 0.164063,1.04297 0.242188,1.5625 l 0.503906,3.125 0.660156,3.09375 c 3.656247,16.49219 11.992187,31.99219 23.855467,44.25 11.84766,12.26954 27.15625,21.25 43.80078,25.54688 l 3.12891,0.77344 3.16406,0.625 1.58594,0.30859 4.79297,0.67969 3.21875,0.29687 c 0.53906,0.0469 1.07421,0.10547 1.61328,0.14063 l 1.61328,0.0664 3.23437,0.12891 3.23828,-0.0352 1.6211,-0.0195 1.61328,-0.0976 3.23437,-0.20313 3.22266,-0.35937 c 0.53516,-0.0625 1.07422,-0.10547 1.60938,-0.19141 l 1.60156,-0.26172 c 4.28515,-0.61328 8.49219,-1.67187 12.65234,-2.8789 16.61719,-4.96875 31.80469,-14.75391 43.44141,-27.80079 11.64453,-13.03125 19.76172,-29.35156 22.8164,-46.73437 0.23438,-1.07422 0.36719,-2.17188 0.52344,-3.26172 0.14453,-1.09375 0.34375,-2.18359 0.44141,-3.27734 0.1914,-2.19922 0.44531,-4.39453 0.48437,-6.60547 0.10547,-2.20703 0.16016,-4.41797 0.0859,-6.62891 -0.0547,-2.21094 -0.17969,-4.41797 -0.39062,-6.62109 -0.81641,-8.81641 -2.85157,-17.53516 -6.05469,-25.82813 3.44922,8.19141 5.76172,16.88282 6.85156,25.73828 0.28125,2.21875 0.47656,4.44141 0.59766,6.67188 0.14062,2.23047 0.15625,4.46875 0.11718,6.70312"
         fill-opacity="1"
         fill-rule="nonzero"
         id="path3" />
    </g>
    <g
       clip-path="url(#6505005e20)"
       id="g4">
      <path
         fill="#127019"
         d="m 239.88281,150.48047 c -0.85937,4.78515 -3.07812,9.09375 -6.51562,12.40625 l -17.32813,17.32812 c -0.60937,0.60938 -0.85937,1.59375 -0.60937,2.45313 l 16.34375,54.4375 -5.16016,5.15625 -14.13672,-24.07813 c -3.80859,-6.51562 -8.48047,-12.40625 -13.76172,-17.69922 -0.98437,-0.97265 -2.45703,-0.97265 -3.4414,-0.11328 l -25.79688,22.60938 c -0.62109,0.60937 -0.98437,1.46875 -0.87109,2.32812 l 4.42187,21.5 -2.20703,2.21875 -12.28125,-16.83203 c -0.49609,-0.62109 -1.23437,-0.98437 -1.96875,-0.98437 -0.37109,0 -0.62109,0.11718 -0.98437,0.23828 l -4.54688,1.96875 1.96875,-4.54688 c 0.48828,-1.09765 0.125,-2.32812 -0.85937,-2.94922 l -16.71485,-12.41015 2.20313,-2.20703 21.51172,4.42578 c 0.85937,0.12109 1.72265,-0.125 2.33203,-0.85938 l 22.60937,-25.8125 c 0.85938,-0.98437 0.85938,-2.45312 -0.125,-3.4375 -5.28125,-5.28125 -11.30078,-9.95312 -17.6875,-13.76562 l -24.08203,-14.01172 5.15625,-5.15625 54.4375,16.34375 c 0.85938,0.24609 1.84375,0 2.45313,-0.61328 l 17.32812,-17.32813 c 3.44922,-3.3125 7.7461,-5.65234 12.41016,-6.51172 l 5.65234,-0.98437 c 0.4961,-0.125 0.7461,0.125 0.85938,0.24609 0.125,0.125 0.375,0.48828 0.25,0.86328 z m 4.29688,-10.20313 c -1.34766,-1.35547 -3.3125,-1.96484 -5.28125,-1.60547 l -5.65625,0.98438 c -5.76953,1.10937 -10.92578,3.8125 -15.10938,7.87109 l -16.34375,16.34375 -54.4375,-16.34375 c -0.85937,-0.24609 -1.83984,0 -2.45312,0.61328 l -8.48047,8.48047 c -0.48828,0.48828 -0.85938,1.34766 -0.73828,2.08203 0.11718,0.7461 0.48828,1.48047 1.22265,1.84375 l 26.79297,15.73438 c 5.40625,3.19922 10.56641,7 15.11328,11.30859 l -20.15625,22.97266 -21.375,-4.42578 c -0.85937,-0.1211 -1.71875,0.125 -2.20703,0.73828 l -5.16797,5.16797 c -0.48828,0.48437 -0.73437,1.22265 -0.73437,1.96484 0,0.73828 0.37109,1.34766 0.98437,1.84375 l 17.44922,12.89453 -1.60547,3.8125 c -0.73437,1.71875 -0.36328,3.6875 0.98438,4.91797 1.35547,1.22266 3.19922,1.72266 4.91797,0.98438 l 3.8125,-1.60547 12.90625,17.45312 c 0.48437,0.60938 1.09765,0.98438 1.83203,0.98438 h 0.25 c 0.62109,0 1.23047,-0.25 1.71875,-0.73438 l 5.16797,-5.16015 c 0.60937,-0.6211 0.85937,-1.48047 0.73437,-2.21485 l -4.42187,-21.3789 22.84765,-20.15235 c 4.3086,4.54688 8.10938,9.70313 11.3086,15.10938 l 15.73437,26.79297 c 0.35938,0.61328 1.09766,1.09765 1.83985,1.22265 0.73828,0.125 1.47265,-0.125 2.08203,-0.73437 l 8.48437,-8.48438 c 0.60938,-0.60937 0.85938,-1.59375 0.60938,-2.45312 l -16.21875,-54.4375 16.21875,-16.21875 c 4.18359,-4.0586 6.88672,-9.33985 7.87109,-15.10938 l 0.98438,-5.65625 c 0.48828,-1.96484 -0.125,-3.93359 -1.46875,-5.40625 h -0.0117"
         fill-opacity="1"
         fill-rule="nonzero"
         id="path4" />
    </g>
  </g>
</svg>
