<?xml version="1.0" encoding="UTF-8" standalone="no"?>
<svg
   width="496.44736"
   zoomAndPan="magnify"
   viewBox="0 0 372.33552 50.686162"
   height="67.581551"
   preserveAspectRatio="xMidYMid"
   version="1.0"
   id="svg196"
   sodipodi:docname="EcoViaggio.svg"
   inkscape:version="1.3.2 (091e20e, 2023-11-25, custom)"
   xmlns:inkscape="http://www.inkscape.org/namespaces/inkscape"
   xmlns:sodipodi="http://sodipodi.sourceforge.net/DTD/sodipodi-0.dtd"
   xmlns="http://www.w3.org/2000/svg"
   xmlns:svg="http://www.w3.org/2000/svg">
  <sodipodi:namedview
     id="namedview196"
     pagecolor="#ffffff"
     bordercolor="#000000"
     borderopacity="0.25"
     inkscape:showpageshadow="2"
     inkscape:pageopacity="0.0"
     inkscape:pagecheckerboard="0"
     inkscape:deskcolor="#d1d1d1"
     inkscape:zoom="1.478"
     inkscape:cx="248.30853"
     inkscape:cy="130.24357"
     inkscape:window-width="1920"
     inkscape:window-height="974"
     inkscape:window-x="-11"
     inkscape:window-y="-11"
     inkscape:window-maximized="1"
     inkscape:current-layer="svg196" />
  <defs
     id="defs1">
    <g
       id="g1" />
  </defs>
  <g
     fill="#127019"
     fill-opacity="1"
     id="g25"
     transform="translate(-1.0041205,-89.874498)">
    <g
       transform="translate(145.27153,112.79637)"
       id="g24">
      <g
         id="g23" />
    </g>
  </g>
  <g
     fill="#127019"
     fill-opacity="1"
     id="g34"
     transform="translate(-1.0041205,-89.874498)">
    <g
       transform="translate(188.52034,112.79637)"
       id="g33">
      <g
         id="g32" />
    </g>
  </g>
  <g
     fill="#21c637"
     fill-opacity="1"
     id="g85"
     transform="translate(-1.0041205,-89.874498)">
    <g
       transform="translate(57.135674,136.42003)"
       id="g84">
      <g
         id="g83" />
    </g>
  </g>
  <g
     fill="#21c637"
     fill-opacity="1"
     id="g124"
     transform="translate(-1.0041205,-89.874498)">
    <g
       transform="translate(156.81422,136.42003)"
       id="g123">
      <g
         id="g122" />
    </g>
  </g>
  <g
     fill="#21c637"
     fill-opacity="1"
     id="g142"
     transform="translate(-1.0041205,-89.874498)">
    <g
       transform="translate(203.69159,136.42003)"
       id="g141">
      <g
         id="g140" />
    </g>
  </g>
  <g
     fill="#21c637"
     fill-opacity="1"
     id="g148"
     transform="translate(-1.0041205,-89.874498)">
    <g
       transform="translate(218.41835,136.42003)"
       id="g147">
      <g
         id="g146" />
    </g>
  </g>
  <g
     fill="#21c637"
     fill-opacity="1"
     id="g172"
     transform="translate(-1.0041205,-89.874498)">
    <g
       transform="translate(284.92035,136.42003)"
       id="g171">
      <g
         id="g170" />
    </g>
  </g>
  <g
     id="g197"
     transform="translate(-1.0041205,-89.874498)">
    <g
       fill="#127019"
       fill-opacity="1"
       id="g4">
      <g
         transform="translate(0.0353705,112.79637)"
         id="g3">
        <g
           id="g2">
          <path
             d="M 0.96875,-22.546875 8.953125,0 h 1.9375 l 6.140625,-17.609375 h 0.171875 L 23.15625,0 h 1.890625 l 8,-22.546875 H 31.5625 l -6.671875,18.8125 h -0.125 l -6.28125,-18.8125 H 17.09375 l -6.40625,18.71875 h -0.125 l -6.640625,-18.71875 z m 0,0"
             id="path1" />
        </g>
      </g>
    </g>
    <g
       fill="#127019"
       fill-opacity="1"
       id="g7">
      <g
         transform="translate(34.041888,112.79637)"
         id="g6">
        <g
           id="g5">
          <path
             d="m 16.875,-7.34375 v -0.671875 c 0,-1.4375 -0.203125,-2.679687 -0.609375,-3.734375 -0.40625,-1.050781 -0.960937,-1.921875 -1.65625,-2.609375 -0.699219,-0.6875 -1.511719,-1.203125 -2.4375,-1.546875 C 11.242188,-16.25 10.269531,-16.421875 9.25,-16.421875 c -1.105469,0 -2.121094,0.1875 -3.046875,0.5625 -0.917969,0.375 -1.71875,0.921875 -2.40625,1.640625 -0.6875,0.71875 -1.226563,1.589844 -1.609375,2.609375 -0.386719,1.023437 -0.578125,2.179687 -0.578125,3.46875 0,1.074219 0.164063,2.121094 0.5,3.140625 0.332031,1.011719 0.835937,1.921875 1.515625,2.734375 0.675781,0.804687 1.535156,1.449219 2.578125,1.9375 1.039063,0.476563 2.269531,0.71875 3.6875,0.71875 1.375,0 2.640625,-0.242187 3.796875,-0.71875 1.15625,-0.488281 2.164062,-1.1875 3.03125,-2.09375 l -1.03125,-1.03125 c -0.460938,0.398437 -0.886719,0.757813 -1.28125,1.078125 -0.398438,0.3125 -0.796875,0.578125 -1.203125,0.796875 -0.40625,0.21875 -0.835937,0.386719 -1.28125,0.5 C 11.484375,-0.960938 11,-0.90625 10.46875,-0.90625 9.863281,-0.90625 9.222656,-0.992188 8.546875,-1.171875 7.867188,-1.359375 7.238281,-1.6875 6.65625,-2.15625 6.082031,-2.625 5.601562,-3.273438 5.21875,-4.109375 4.832031,-4.953125 4.640625,-6.03125 4.640625,-7.34375 Z M 4.640625,-8.625 c 0,-0.863281 0.085937,-1.695312 0.265625,-2.5 0.1875,-0.800781 0.46875,-1.515625 0.84375,-2.140625 0.375,-0.625 0.847656,-1.125 1.421875,-1.5 0.582031,-0.375 1.273437,-0.5625 2.078125,-0.5625 1.519531,0 2.703125,0.601563 3.546875,1.796875 0.851563,1.1875 1.28125,2.824219 1.28125,4.90625 z m 0,0"
             id="path4" />
        </g>
      </g>
    </g>
    <g
       fill="#127019"
       fill-opacity="1"
       id="g10">
      <g
         transform="translate(52.526486,112.79637)"
         id="g9">
        <g
           id="g8">
          <path
             d="M 5.953125,-22.546875 H 3.21875 V 0 h 2.734375 z m 0,0"
             id="path7" />
        </g>
      </g>
    </g>
    <g
       fill="#127019"
       fill-opacity="1"
       id="g13">
      <g
         transform="translate(61.704384,112.79637)"
         id="g12">
        <g
           id="g11">
          <path
             d="m 10.65625,-1.28125 c -0.773438,0 -1.515625,-0.117188 -2.234375,-0.359375 C 7.703125,-1.878906 7.0625,-2.257812 6.5,-2.78125 5.945312,-3.3125 5.503906,-4.007812 5.171875,-4.875 c -0.335937,-0.875 -0.5,-1.941406 -0.5,-3.203125 0,-1.3125 0.179687,-2.421875 0.546875,-3.328125 0.363281,-0.914062 0.816406,-1.644531 1.359375,-2.1875 0.550781,-0.550781 1.160156,-0.953125 1.828125,-1.203125 0.664062,-0.25 1.300781,-0.375 1.90625,-0.375 0.976562,0 1.832031,0.261719 2.5625,0.78125 0.726562,0.511719 1.210938,1.140625 1.453125,1.890625 h 2.21875 c -0.210937,-0.769531 -0.554687,-1.40625 -1.03125,-1.90625 -0.46875,-0.507812 -1.011719,-0.921875 -1.625,-1.234375 -0.605469,-0.3125 -1.257813,-0.523437 -1.953125,-0.640625 -0.699219,-0.113281 -1.371094,-0.171875 -2.015625,-0.171875 -1.355469,0 -2.546875,0.21875 -3.578125,0.65625 -1.03125,0.4375 -1.902344,1.039063 -2.609375,1.796875 -0.710937,0.75 -1.242187,1.632812 -1.59375,2.640625 -0.355469,1 -0.53125,2.074219 -0.53125,3.21875 0,1.199219 0.191406,2.320313 0.578125,3.359375 0.382812,1.042969 0.9375,1.945312 1.65625,2.703125 0.71875,0.761719 1.582031,1.367187 2.59375,1.8125 1.007812,0.4375 2.148438,0.65625 3.421875,0.65625 1.414063,0 2.65625,-0.234375 3.71875,-0.703125 1.0625,-0.476562 1.957031,-1 2.6875,-1.5625 l -0.9375,-1.21875 c -0.75,0.625 -1.496094,1.085938 -2.234375,1.375 -0.742188,0.292969 -1.554688,0.4375 -2.4375,0.4375 z m 0,0"
             id="path10" />
        </g>
      </g>
    </g>
    <g
       fill="#127019"
       fill-opacity="1"
       id="g16">
      <g
         transform="translate(79.222896,112.79637)"
         id="g15">
        <g
           id="g14">
          <path
             d="m 18.296875,-8.015625 c 0,1.117187 -0.199219,2.183594 -0.59375,3.203125 -0.386719,1.023438 -0.9375,1.917969 -1.65625,2.6875 -0.71875,0.773438 -1.589844,1.386719 -2.609375,1.84375 -1.011719,0.445312 -2.152344,0.671875 -3.421875,0.671875 -1.292969,0 -2.460937,-0.230469 -3.5,-0.6875 C 5.472656,-0.765625 4.59375,-1.382812 3.875,-2.15625 3.15625,-2.925781 2.597656,-3.820312 2.203125,-4.84375 1.804688,-5.863281 1.609375,-6.921875 1.609375,-8.015625 c 0,-1.113281 0.195313,-2.179687 0.59375,-3.203125 0.394531,-1.019531 0.953125,-1.914062 1.671875,-2.6875 0.71875,-0.78125 1.597656,-1.398438 2.640625,-1.859375 1.039063,-0.457031 2.207031,-0.6875 3.5,-0.6875 1.269531,0 2.410156,0.230469 3.421875,0.6875 1.019531,0.460937 1.890625,1.078125 2.609375,1.859375 0.71875,0.773438 1.269531,1.667969 1.65625,2.6875 0.394531,1.023438 0.59375,2.089844 0.59375,3.203125 z m -3.0625,0 c 0,-1.5 -0.164063,-2.71875 -0.484375,-3.65625 -0.324219,-0.9375 -0.746094,-1.660156 -1.265625,-2.171875 -0.511719,-0.519531 -1.078125,-0.867188 -1.703125,-1.046875 -0.617188,-0.1875 -1.214844,-0.28125 -1.796875,-0.28125 -0.585937,0 -1.1875,0.09375 -1.8125,0.28125 -0.617187,0.179687 -1.1875,0.527344 -1.71875,1.046875 -0.523437,0.511719 -0.949219,1.234375 -1.28125,2.171875 -0.335937,0.9375 -0.5,2.15625 -0.5,3.65625 0,1.480469 0.164063,2.6875 0.5,3.625 0.332031,0.929687 0.757813,1.652344 1.28125,2.171875 0.53125,0.511719 1.101563,0.859375 1.71875,1.046875 0.625,0.179687 1.226563,0.265625 1.8125,0.265625 0.582031,0 1.179687,-0.085938 1.796875,-0.265625 0.625,-0.1875 1.191406,-0.535156 1.703125,-1.046875 0.519531,-0.519531 0.941406,-1.242188 1.265625,-2.171875 0.320312,-0.9375 0.484375,-2.144531 0.484375,-3.625 z m 0,0"
             id="path13" />
        </g>
      </g>
    </g>
    <g
       fill="#127019"
       fill-opacity="1"
       id="g19">
      <g
         transform="translate(99.124433,112.79637)"
         id="g18">
        <g
           id="g17">
          <path
             d="m 5.3125,0 v -9.171875 c 0,-0.382813 0.03125,-0.894531 0.09375,-1.53125 0.0625,-0.632813 0.226562,-1.257813 0.5,-1.875 0.269531,-0.613281 0.679688,-1.140625 1.234375,-1.578125 0.5625,-0.4375 1.347656,-0.65625 2.359375,-0.65625 0.726562,0 1.289062,0.164062 1.6875,0.484375 0.394531,0.324219 0.6875,0.71875 0.875,1.1875 0.195312,0.46875 0.3125,0.964844 0.34375,1.484375 0.03906,0.511719 0.0625,0.960938 0.0625,1.34375 V 0 h 2.734375 v -9.171875 c 0,-0.476563 0.03906,-1.039063 0.125,-1.6875 0.08203,-0.65625 0.265625,-1.273437 0.546875,-1.859375 0.28125,-0.582031 0.679688,-1.078125 1.203125,-1.484375 0.53125,-0.40625 1.242187,-0.609375 2.140625,-0.609375 0.664062,0 1.203125,0.101562 1.609375,0.296875 0.414063,0.1875 0.734375,0.476563 0.953125,0.859375 0.226562,0.386719 0.378906,0.859375 0.453125,1.421875 0.07031,0.554687 0.109375,1.195313 0.109375,1.921875 V 0 h 2.75 v -11.234375 c 0,-0.5 -0.05859,-1.050781 -0.171875,-1.65625 -0.105469,-0.613281 -0.335937,-1.179687 -0.6875,-1.703125 -0.355469,-0.53125 -0.871094,-0.972656 -1.546875,-1.328125 -0.679688,-0.351563 -1.574219,-0.53125 -2.6875,-0.53125 -0.324219,0 -0.699219,0.03125 -1.125,0.09375 -0.429688,0.0625 -0.882812,0.203125 -1.359375,0.421875 -0.46875,0.210938 -0.929687,0.523438 -1.375,0.9375 -0.4375,0.40625 -0.820313,0.945312 -1.140625,1.609375 h -0.21875 c -0.125,-0.34375 -0.308594,-0.691406 -0.546875,-1.046875 -0.242187,-0.351562 -0.542969,-0.679688 -0.90625,-0.984375 -0.367187,-0.300781 -0.804687,-0.546875 -1.3125,-0.734375 -0.5,-0.195312 -1.105469,-0.296875 -1.8125,-0.296875 -0.324219,0 -0.710937,0.03906 -1.15625,0.109375 -0.449219,0.07422 -0.902344,0.21875 -1.359375,0.4375 -0.449219,0.210938 -0.871094,0.511719 -1.265625,0.90625 -0.398437,0.386719 -0.726563,0.886719 -0.984375,1.5 h -0.125 v -2.609375 H 2.578125 V 0 Z m 0,0"
             id="path16" />
        </g>
      </g>
    </g>
    <g
       fill="#127019"
       fill-opacity="1"
       id="g22">
      <g
         transform="translate(126.78693,112.79637)"
         id="g21">
        <g
           id="g20">
          <path
             d="m 16.875,-7.34375 v -0.671875 c 0,-1.4375 -0.203125,-2.679687 -0.609375,-3.734375 -0.40625,-1.050781 -0.960937,-1.921875 -1.65625,-2.609375 -0.699219,-0.6875 -1.511719,-1.203125 -2.4375,-1.546875 C 11.242188,-16.25 10.269531,-16.421875 9.25,-16.421875 c -1.105469,0 -2.121094,0.1875 -3.046875,0.5625 -0.917969,0.375 -1.71875,0.921875 -2.40625,1.640625 -0.6875,0.71875 -1.226563,1.589844 -1.609375,2.609375 -0.386719,1.023437 -0.578125,2.179687 -0.578125,3.46875 0,1.074219 0.164063,2.121094 0.5,3.140625 0.332031,1.011719 0.835937,1.921875 1.515625,2.734375 0.675781,0.804687 1.535156,1.449219 2.578125,1.9375 1.039063,0.476563 2.269531,0.71875 3.6875,0.71875 1.375,0 2.640625,-0.242187 3.796875,-0.71875 1.15625,-0.488281 2.164062,-1.1875 3.03125,-2.09375 l -1.03125,-1.03125 c -0.460938,0.398437 -0.886719,0.757813 -1.28125,1.078125 -0.398438,0.3125 -0.796875,0.578125 -1.203125,0.796875 -0.40625,0.21875 -0.835937,0.386719 -1.28125,0.5 C 11.484375,-0.960938 11,-0.90625 10.46875,-0.90625 9.863281,-0.90625 9.222656,-0.992188 8.546875,-1.171875 7.867188,-1.359375 7.238281,-1.6875 6.65625,-2.15625 6.082031,-2.625 5.601562,-3.273438 5.21875,-4.109375 4.832031,-4.953125 4.640625,-6.03125 4.640625,-7.34375 Z M 4.640625,-8.625 c 0,-0.863281 0.085937,-1.695312 0.265625,-2.5 0.1875,-0.800781 0.46875,-1.515625 0.84375,-2.140625 0.375,-0.625 0.847656,-1.125 1.421875,-1.5 0.582031,-0.375 1.273437,-0.5625 2.078125,-0.5625 1.519531,0 2.703125,0.601563 3.546875,1.796875 0.851563,1.1875 1.28125,2.824219 1.28125,4.90625 z m 0,0"
             id="path19" />
        </g>
      </g>
    </g>
    <g
       fill="#127019"
       fill-opacity="1"
       id="g28">
      <g
         transform="translate(156.54263,112.79637)"
         id="g27">
        <g
           id="g26">
          <path
             d="m 0.96875,-14.8125 v -1.296875 H 3.765625 V -21.0625 H 6.5 v 4.953125 h 3.90625 V -14.8125 H 6.5 V -4.125 c 0,0.261719 0.00781,0.558594 0.03125,0.890625 0.019531,0.335937 0.082031,0.648437 0.1875,0.9375 0.113281,0.28125 0.28125,0.523437 0.5,0.71875 0.226562,0.199219 0.546875,0.296875 0.953125,0.296875 0.519531,0 0.953125,-0.191406 1.296875,-0.578125 0.34375,-0.394531 0.625,-0.816406 0.84375,-1.265625 l 1.5,1.546875 C 10.757812,-0.523438 9.570312,0 8.25,0 7.6875,0 7.132812,-0.09375 6.59375,-0.28125 6.0625,-0.476562 5.585938,-0.773438 5.171875,-1.171875 4.753906,-1.566406 4.414062,-2.078125 4.15625,-2.703125 3.894531,-3.328125 3.765625,-4.054688 3.765625,-4.890625 V -14.8125 Z m 0,0"
             id="path25" />
        </g>
      </g>
    </g>
    <g
       fill="#127019"
       fill-opacity="1"
       id="g31">
      <g
         transform="translate(168.6188,112.79637)"
         id="g30">
        <g
           id="g29">
          <path
             d="m 18.296875,-8.015625 c 0,1.117187 -0.199219,2.183594 -0.59375,3.203125 -0.386719,1.023438 -0.9375,1.917969 -1.65625,2.6875 -0.71875,0.773438 -1.589844,1.386719 -2.609375,1.84375 -1.011719,0.445312 -2.152344,0.671875 -3.421875,0.671875 -1.292969,0 -2.460937,-0.230469 -3.5,-0.6875 C 5.472656,-0.765625 4.59375,-1.382812 3.875,-2.15625 3.15625,-2.925781 2.597656,-3.820312 2.203125,-4.84375 1.804688,-5.863281 1.609375,-6.921875 1.609375,-8.015625 c 0,-1.113281 0.195313,-2.179687 0.59375,-3.203125 0.394531,-1.019531 0.953125,-1.914062 1.671875,-2.6875 0.71875,-0.78125 1.597656,-1.398438 2.640625,-1.859375 1.039063,-0.457031 2.207031,-0.6875 3.5,-0.6875 1.269531,0 2.410156,0.230469 3.421875,0.6875 1.019531,0.460937 1.890625,1.078125 2.609375,1.859375 0.71875,0.773438 1.269531,1.667969 1.65625,2.6875 0.394531,1.023438 0.59375,2.089844 0.59375,3.203125 z m -3.0625,0 c 0,-1.5 -0.164063,-2.71875 -0.484375,-3.65625 -0.324219,-0.9375 -0.746094,-1.660156 -1.265625,-2.171875 -0.511719,-0.519531 -1.078125,-0.867188 -1.703125,-1.046875 -0.617188,-0.1875 -1.214844,-0.28125 -1.796875,-0.28125 -0.585937,0 -1.1875,0.09375 -1.8125,0.28125 -0.617187,0.179687 -1.1875,0.527344 -1.71875,1.046875 -0.523437,0.511719 -0.949219,1.234375 -1.28125,2.171875 -0.335937,0.9375 -0.5,2.15625 -0.5,3.65625 0,1.480469 0.164063,2.6875 0.5,3.625 0.332031,0.929687 0.757813,1.652344 1.28125,2.171875 0.53125,0.511719 1.101563,0.859375 1.71875,1.046875 0.625,0.179687 1.226563,0.265625 1.8125,0.265625 0.582031,0 1.179687,-0.085938 1.796875,-0.265625 0.625,-0.1875 1.191406,-0.535156 1.703125,-1.046875 0.519531,-0.519531 0.941406,-1.242188 1.265625,-2.171875 0.320312,-0.9375 0.484375,-2.144531 0.484375,-3.625 z m 0,0"
             id="path28" />
        </g>
      </g>
    </g>
    <g
       fill="#127019"
       fill-opacity="1"
       id="g37">
      <g
         transform="translate(199.79143,112.79637)"
         id="g36">
        <g
           id="g35">
          <path
             d="M 3.859375,-22.546875 V 0 h 14.5625 v -1.765625 h -11.625 v -9.4375 H 16.78125 V -12.6875 H 6.796875 v -8.078125 h 11.625 v -1.78125 z m 0,0"
             id="path34" />
        </g>
      </g>
    </g>
    <g
       fill="#127019"
       fill-opacity="1"
       id="g40">
      <g
         transform="translate(219.17772,112.79637)"
         id="g39">
        <g
           id="g38">
          <path
             d="m 10.65625,-1.28125 c -0.773438,0 -1.515625,-0.117188 -2.234375,-0.359375 C 7.703125,-1.878906 7.0625,-2.257812 6.5,-2.78125 5.945312,-3.3125 5.503906,-4.007812 5.171875,-4.875 c -0.335937,-0.875 -0.5,-1.941406 -0.5,-3.203125 0,-1.3125 0.179687,-2.421875 0.546875,-3.328125 0.363281,-0.914062 0.816406,-1.644531 1.359375,-2.1875 0.550781,-0.550781 1.160156,-0.953125 1.828125,-1.203125 0.664062,-0.25 1.300781,-0.375 1.90625,-0.375 0.976562,0 1.832031,0.261719 2.5625,0.78125 0.726562,0.511719 1.210938,1.140625 1.453125,1.890625 h 2.21875 c -0.210937,-0.769531 -0.554687,-1.40625 -1.03125,-1.90625 -0.46875,-0.507812 -1.011719,-0.921875 -1.625,-1.234375 -0.605469,-0.3125 -1.257813,-0.523437 -1.953125,-0.640625 -0.699219,-0.113281 -1.371094,-0.171875 -2.015625,-0.171875 -1.355469,0 -2.546875,0.21875 -3.578125,0.65625 -1.03125,0.4375 -1.902344,1.039063 -2.609375,1.796875 -0.710937,0.75 -1.242187,1.632812 -1.59375,2.640625 -0.355469,1 -0.53125,2.074219 -0.53125,3.21875 0,1.199219 0.191406,2.320313 0.578125,3.359375 0.382812,1.042969 0.9375,1.945312 1.65625,2.703125 0.71875,0.761719 1.582031,1.367187 2.59375,1.8125 1.007812,0.4375 2.148438,0.65625 3.421875,0.65625 1.414063,0 2.65625,-0.234375 3.71875,-0.703125 1.0625,-0.476562 1.957031,-1 2.6875,-1.5625 l -0.9375,-1.21875 c -0.75,0.625 -1.496094,1.085938 -2.234375,1.375 -0.742188,0.292969 -1.554688,0.4375 -2.4375,0.4375 z m 0,0"
             id="path37" />
        </g>
      </g>
    </g>
    <g
       fill="#127019"
       fill-opacity="1"
       id="g43">
      <g
         transform="translate(236.69624,112.79637)"
         id="g42">
        <g
           id="g41">
          <path
             d="m 18.296875,-8.015625 c 0,1.117187 -0.199219,2.183594 -0.59375,3.203125 -0.386719,1.023438 -0.9375,1.917969 -1.65625,2.6875 -0.71875,0.773438 -1.589844,1.386719 -2.609375,1.84375 -1.011719,0.445312 -2.152344,0.671875 -3.421875,0.671875 -1.292969,0 -2.460937,-0.230469 -3.5,-0.6875 C 5.472656,-0.765625 4.59375,-1.382812 3.875,-2.15625 3.15625,-2.925781 2.597656,-3.820312 2.203125,-4.84375 1.804688,-5.863281 1.609375,-6.921875 1.609375,-8.015625 c 0,-1.113281 0.195313,-2.179687 0.59375,-3.203125 0.394531,-1.019531 0.953125,-1.914062 1.671875,-2.6875 0.71875,-0.78125 1.597656,-1.398438 2.640625,-1.859375 1.039063,-0.457031 2.207031,-0.6875 3.5,-0.6875 1.269531,0 2.410156,0.230469 3.421875,0.6875 1.019531,0.460937 1.890625,1.078125 2.609375,1.859375 0.71875,0.773438 1.269531,1.667969 1.65625,2.6875 0.394531,1.023438 0.59375,2.089844 0.59375,3.203125 z m -3.0625,0 c 0,-1.5 -0.164063,-2.71875 -0.484375,-3.65625 -0.324219,-0.9375 -0.746094,-1.660156 -1.265625,-2.171875 -0.511719,-0.519531 -1.078125,-0.867188 -1.703125,-1.046875 -0.617188,-0.1875 -1.214844,-0.28125 -1.796875,-0.28125 -0.585937,0 -1.1875,0.09375 -1.8125,0.28125 -0.617187,0.179687 -1.1875,0.527344 -1.71875,1.046875 -0.523437,0.511719 -0.949219,1.234375 -1.28125,2.171875 -0.335937,0.9375 -0.5,2.15625 -0.5,3.65625 0,1.480469 0.164063,2.6875 0.5,3.625 0.332031,0.929687 0.757813,1.652344 1.28125,2.171875 0.53125,0.511719 1.101563,0.859375 1.71875,1.046875 0.625,0.179687 1.226563,0.265625 1.8125,0.265625 0.582031,0 1.179687,-0.085938 1.796875,-0.265625 0.625,-0.1875 1.191406,-0.535156 1.703125,-1.046875 0.519531,-0.519531 0.941406,-1.242188 1.265625,-2.171875 0.320312,-0.9375 0.484375,-2.144531 0.484375,-3.625 z m 0,0"
             id="path40" />
        </g>
      </g>
    </g>
    <g
       fill="#127019"
       fill-opacity="1"
       id="g46">
      <g
         transform="translate(256.59779,112.79637)"
         id="g45">
        <g
           id="g44">
          <path
             d="M 0.96875,-22.546875 10.40625,0 h 1.921875 l 9.15625,-22.546875 H 19.8125 L 12.296875,-4 h -0.125 L 4.4375,-22.546875 Z m 0,0"
             id="path43" />
        </g>
      </g>
    </g>
    <g
       fill="#127019"
       fill-opacity="1"
       id="g49">
      <g
         transform="translate(279.04336,112.79637)"
         id="g48">
        <g
           id="g47">
          <path
             d="M 3.609375,-16.109375 V 0 H 6.34375 V -16.109375 Z M 3.21875,-21.1875 c 0,0.46875 0.171875,0.875 0.515625,1.21875 0.34375,0.34375 0.75,0.515625 1.21875,0.515625 0.476563,0 0.890625,-0.171875 1.234375,-0.515625 0.34375,-0.34375 0.515625,-0.75 0.515625,-1.21875 0,-0.46875 -0.171875,-0.875 -0.515625,-1.21875 -0.34375,-0.34375 -0.757812,-0.515625 -1.234375,-0.515625 -0.46875,0 -0.875,0.171875 -1.21875,0.515625 -0.34375,0.34375 -0.515625,0.75 -0.515625,1.21875 z m 0,0"
             id="path46" />
        </g>
      </g>
    </g>
    <g
       fill="#127019"
       fill-opacity="1"
       id="g52">
      <g
         transform="translate(288.96193,112.79637)"
         id="g51">
        <g
           id="g50">
          <path
             d="m 8.5,-16.453125 c 1.570312,0 2.785156,0.21875 3.640625,0.65625 0.851563,0.4375 1.476563,1.011719 1.875,1.71875 0.40625,0.710937 0.640625,1.527344 0.703125,2.453125 0.0625,0.929688 0.09375,1.871094 0.09375,2.828125 V 0 h -2.609375 v -1.578125 c -0.625,0.605469 -1.421875,1.085937 -2.390625,1.4375 -0.960938,0.351563 -1.921875,0.53125 -2.890625,0.53125 -0.929687,0 -1.746094,-0.164063 -2.453125,-0.484375 -0.710938,-0.320312 -1.296875,-0.738281 -1.765625,-1.25 -0.46875,-0.519531 -0.824219,-1.101562 -1.0625,-1.75 C 1.398438,-3.738281 1.28125,-4.394531 1.28125,-5.0625 c 0,-0.6875 0.128906,-1.367188 0.390625,-2.046875 0.257813,-0.6875 0.644531,-1.304687 1.15625,-1.859375 0.519531,-0.550781 1.15625,-0.992188 1.90625,-1.328125 0.75,-0.34375 1.609375,-0.515625 2.578125,-0.515625 0.96875,0 1.882812,0.1875 2.75,0.5625 0.875,0.375 1.585938,0.90625 2.140625,1.59375 v -1.390625 c 0,-1.757813 -0.265625,-3.066406 -0.796875,-3.921875 -0.523438,-0.863281 -1.480469,-1.296875 -2.875,-1.296875 -0.605469,0 -1.132812,0.07813 -1.578125,0.234375 -0.449219,0.148438 -0.851563,0.355469 -1.203125,0.625 -0.355469,0.261719 -0.683594,0.59375 -0.984375,1 -0.304687,0.398438 -0.605469,0.839844 -0.90625,1.328125 L 2.1875,-13.75 c 0.300781,-0.320312 0.617188,-0.644531 0.953125,-0.96875 0.332031,-0.320312 0.738281,-0.609375 1.21875,-0.859375 0.488281,-0.257813 1.0625,-0.46875 1.71875,-0.625 0.664063,-0.164063 1.472656,-0.25 2.421875,-0.25 z M 12.203125,-6.375 c -0.105469,-0.257812 -0.261719,-0.5625 -0.46875,-0.90625 -0.199219,-0.34375 -0.460937,-0.675781 -0.78125,-1 C 10.628906,-8.601562 10.238281,-8.875 9.78125,-9.09375 9.332031,-9.320312 8.796875,-9.4375 8.171875,-9.4375 c -0.617187,0 -1.183594,0.125 -1.703125,0.375 -0.511719,0.25 -0.945312,0.574219 -1.296875,0.96875 -0.355469,0.398438 -0.632813,0.867188 -0.828125,1.40625 -0.1875,0.53125 -0.28125,1.085938 -0.28125,1.65625 0,0.6875 0.117188,1.289062 0.359375,1.796875 0.25,0.5 0.566406,0.929687 0.953125,1.28125 0.382812,0.355469 0.8125,0.621094 1.28125,0.796875 0.476562,0.167969 0.929688,0.25 1.359375,0.25 0.40625,0 0.816406,-0.070312 1.234375,-0.21875 0.425781,-0.15625 0.828125,-0.363281 1.203125,-0.625 0.375,-0.269531 0.710937,-0.585938 1.015625,-0.953125 0.300781,-0.363281 0.546875,-0.757813 0.734375,-1.1875 z m 0,0"
             id="path49" />
        </g>
      </g>
    </g>
    <g
       fill="#127019"
       fill-opacity="1"
       id="g55">
      <g
         transform="translate(306.35162,112.79637)"
         id="g54">
        <g
           id="g53">
          <path
             d="m 14.078125,1.359375 c 0,0.976563 -0.121094,1.8125 -0.359375,2.5 -0.242188,0.6875 -0.570312,1.242187 -0.984375,1.671875 -0.417969,0.4375 -0.914063,0.75 -1.484375,0.9375 -0.5625,0.195312 -1.167969,0.296875 -1.8125,0.296875 -1.136719,0 -2.054688,-0.292969 -2.75,-0.875 C 5.988281,5.316406 5.347656,4.546875 4.765625,3.578125 L 3,5.1875 c 0.144531,0.1875 0.378906,0.4375 0.703125,0.75 0.320313,0.3125 0.726563,0.625 1.21875,0.9375 0.5,0.3125 1.09375,0.578125 1.78125,0.796875 0.6875,0.226563 1.46875,0.34375 2.34375,0.34375 1.632813,0 2.957031,-0.230469 3.96875,-0.6875 C 14.023438,6.867188 14.804688,6.25 15.359375,5.46875 15.921875,4.695312 16.300781,3.8125 16.5,2.8125 16.707031,1.820312 16.8125,0.785156 16.8125,-0.296875 v -15.8125 h -2.734375 v 2.515625 H 13.9375 c -0.25,-0.894531 -0.804688,-1.59375 -1.65625,-2.09375 -0.84375,-0.507812 -1.953125,-0.765625 -3.328125,-0.765625 -1.09375,0 -2.09375,0.199219 -3,0.59375 -0.898437,0.398437 -1.667969,0.960937 -2.3125,1.6875 -0.648437,0.730469 -1.148437,1.609375 -1.5,2.640625 -0.355469,1.03125 -0.53125,2.183594 -0.53125,3.453125 0,1.28125 0.175781,2.445313 0.53125,3.484375 0.351563,1.042969 0.851563,1.933594 1.5,2.671875 0.644531,0.742187 1.410156,1.3125 2.296875,1.71875 0.894531,0.394531 1.890625,0.59375 2.984375,0.59375 1.195313,0 2.238281,-0.234375 3.125,-0.703125 0.894531,-0.476562 1.523437,-1.234375 1.890625,-2.265625 h 0.140625 z m 0,-8.21875 c 0,0.90625 -0.125,1.703125 -0.375,2.390625 -0.25,0.679688 -0.578125,1.257812 -0.984375,1.734375 -0.40625,0.46875 -0.882812,0.828125 -1.421875,1.078125 -0.53125,0.25 -1.089844,0.375 -1.671875,0.375 -0.511719,0 -1.0625,-0.085938 -1.65625,-0.265625 C 7.375,-1.734375 6.828125,-2.070312 6.328125,-2.5625 c -0.5,-0.5 -0.917969,-1.195312 -1.25,-2.09375 -0.335937,-0.90625 -0.5,-2.066406 -0.5,-3.484375 0,-1.507813 0.203125,-2.707031 0.609375,-3.59375 0.40625,-0.894531 0.878906,-1.578125 1.421875,-2.046875 0.550781,-0.46875 1.109375,-0.769531 1.671875,-0.90625 0.570312,-0.144531 1.019531,-0.21875 1.34375,-0.21875 0.707031,0 1.335938,0.15625 1.890625,0.46875 0.5625,0.3125 1.03125,0.734375 1.40625,1.265625 0.382813,0.523437 0.671875,1.125 0.859375,1.8125 0.195312,0.679687 0.296875,1.382813 0.296875,2.109375 z m 0,0"
             id="path52" />
        </g>
      </g>
    </g>
    <g
       fill="#127019"
       fill-opacity="1"
       id="g58">
      <g
         transform="translate(325.73791,112.79637)"
         id="g57">
        <g
           id="g56">
          <path
             d="m 14.078125,1.359375 c 0,0.976563 -0.121094,1.8125 -0.359375,2.5 -0.242188,0.6875 -0.570312,1.242187 -0.984375,1.671875 -0.417969,0.4375 -0.914063,0.75 -1.484375,0.9375 -0.5625,0.195312 -1.167969,0.296875 -1.8125,0.296875 -1.136719,0 -2.054688,-0.292969 -2.75,-0.875 C 5.988281,5.316406 5.347656,4.546875 4.765625,3.578125 L 3,5.1875 c 0.144531,0.1875 0.378906,0.4375 0.703125,0.75 0.320313,0.3125 0.726563,0.625 1.21875,0.9375 0.5,0.3125 1.09375,0.578125 1.78125,0.796875 0.6875,0.226563 1.46875,0.34375 2.34375,0.34375 1.632813,0 2.957031,-0.230469 3.96875,-0.6875 C 14.023438,6.867188 14.804688,6.25 15.359375,5.46875 15.921875,4.695312 16.300781,3.8125 16.5,2.8125 16.707031,1.820312 16.8125,0.785156 16.8125,-0.296875 v -15.8125 h -2.734375 v 2.515625 H 13.9375 c -0.25,-0.894531 -0.804688,-1.59375 -1.65625,-2.09375 -0.84375,-0.507812 -1.953125,-0.765625 -3.328125,-0.765625 -1.09375,0 -2.09375,0.199219 -3,0.59375 -0.898437,0.398437 -1.667969,0.960937 -2.3125,1.6875 -0.648437,0.730469 -1.148437,1.609375 -1.5,2.640625 -0.355469,1.03125 -0.53125,2.183594 -0.53125,3.453125 0,1.28125 0.175781,2.445313 0.53125,3.484375 0.351563,1.042969 0.851563,1.933594 1.5,2.671875 0.644531,0.742187 1.410156,1.3125 2.296875,1.71875 0.894531,0.394531 1.890625,0.59375 2.984375,0.59375 1.195313,0 2.238281,-0.234375 3.125,-0.703125 0.894531,-0.476562 1.523437,-1.234375 1.890625,-2.265625 h 0.140625 z m 0,-8.21875 c 0,0.90625 -0.125,1.703125 -0.375,2.390625 -0.25,0.679688 -0.578125,1.257812 -0.984375,1.734375 -0.40625,0.46875 -0.882812,0.828125 -1.421875,1.078125 -0.53125,0.25 -1.089844,0.375 -1.671875,0.375 -0.511719,0 -1.0625,-0.085938 -1.65625,-0.265625 C 7.375,-1.734375 6.828125,-2.070312 6.328125,-2.5625 c -0.5,-0.5 -0.917969,-1.195312 -1.25,-2.09375 -0.335937,-0.90625 -0.5,-2.066406 -0.5,-3.484375 0,-1.507813 0.203125,-2.707031 0.609375,-3.59375 0.40625,-0.894531 0.878906,-1.578125 1.421875,-2.046875 0.550781,-0.46875 1.109375,-0.769531 1.671875,-0.90625 0.570312,-0.144531 1.019531,-0.21875 1.34375,-0.21875 0.707031,0 1.335938,0.15625 1.890625,0.46875 0.5625,0.3125 1.03125,0.734375 1.40625,1.265625 0.382813,0.523437 0.671875,1.125 0.859375,1.8125 0.195312,0.679687 0.296875,1.382813 0.296875,2.109375 z m 0,0"
             id="path55" />
        </g>
      </g>
    </g>
    <g
       fill="#127019"
       fill-opacity="1"
       id="g61">
      <g
         transform="translate(345.1242,112.79637)"
         id="g60">
        <g
           id="g59">
          <path
             d="M 3.609375,-16.109375 V 0 H 6.34375 V -16.109375 Z M 3.21875,-21.1875 c 0,0.46875 0.171875,0.875 0.515625,1.21875 0.34375,0.34375 0.75,0.515625 1.21875,0.515625 0.476563,0 0.890625,-0.171875 1.234375,-0.515625 0.34375,-0.34375 0.515625,-0.75 0.515625,-1.21875 0,-0.46875 -0.171875,-0.875 -0.515625,-1.21875 -0.34375,-0.34375 -0.757812,-0.515625 -1.234375,-0.515625 -0.46875,0 -0.875,0.171875 -1.21875,0.515625 -0.34375,0.34375 -0.515625,0.75 -0.515625,1.21875 z m 0,0"
             id="path58" />
        </g>
      </g>
    </g>
    <g
       fill="#127019"
       fill-opacity="1"
       id="g64">
      <g
         transform="translate(355.04277,112.79637)"
         id="g63">
        <g
           id="g62">
          <path
             d="m 18.296875,-8.015625 c 0,1.117187 -0.199219,2.183594 -0.59375,3.203125 -0.386719,1.023438 -0.9375,1.917969 -1.65625,2.6875 -0.71875,0.773438 -1.589844,1.386719 -2.609375,1.84375 -1.011719,0.445312 -2.152344,0.671875 -3.421875,0.671875 -1.292969,0 -2.460937,-0.230469 -3.5,-0.6875 C 5.472656,-0.765625 4.59375,-1.382812 3.875,-2.15625 3.15625,-2.925781 2.597656,-3.820312 2.203125,-4.84375 1.804688,-5.863281 1.609375,-6.921875 1.609375,-8.015625 c 0,-1.113281 0.195313,-2.179687 0.59375,-3.203125 0.394531,-1.019531 0.953125,-1.914062 1.671875,-2.6875 0.71875,-0.78125 1.597656,-1.398438 2.640625,-1.859375 1.039063,-0.457031 2.207031,-0.6875 3.5,-0.6875 1.269531,0 2.410156,0.230469 3.421875,0.6875 1.019531,0.460937 1.890625,1.078125 2.609375,1.859375 0.71875,0.773438 1.269531,1.667969 1.65625,2.6875 0.394531,1.023438 0.59375,2.089844 0.59375,3.203125 z m -3.0625,0 c 0,-1.5 -0.164063,-2.71875 -0.484375,-3.65625 -0.324219,-0.9375 -0.746094,-1.660156 -1.265625,-2.171875 -0.511719,-0.519531 -1.078125,-0.867188 -1.703125,-1.046875 -0.617188,-0.1875 -1.214844,-0.28125 -1.796875,-0.28125 -0.585937,0 -1.1875,0.09375 -1.8125,0.28125 -0.617187,0.179687 -1.1875,0.527344 -1.71875,1.046875 -0.523437,0.511719 -0.949219,1.234375 -1.28125,2.171875 -0.335937,0.9375 -0.5,2.15625 -0.5,3.65625 0,1.480469 0.164063,2.6875 0.5,3.625 0.332031,0.929687 0.757813,1.652344 1.28125,2.171875 0.53125,0.511719 1.101563,0.859375 1.71875,1.046875 0.625,0.179687 1.226563,0.265625 1.8125,0.265625 0.582031,0 1.179687,-0.085938 1.796875,-0.265625 0.625,-0.1875 1.191406,-0.535156 1.703125,-1.046875 0.519531,-0.519531 0.941406,-1.242188 1.265625,-2.171875 0.320312,-0.9375 0.484375,-2.144531 0.484375,-3.625 z m 0,0"
             id="path61" />
        </g>
      </g>
    </g>
    <g
       fill="#21c637"
       fill-opacity="1"
       id="g67">
      <g
         transform="translate(8.189938,136.42003)"
         id="g66">
        <g
           id="g65">
          <path
             d="m 6.265625,0 v -10.671875 h 4.4375 v -0.90625 h -10.375 v 0.90625 h 4.4375 V 0 Z m 0,0"
             id="path64" />
        </g>
      </g>
    </g>
    <g
       fill="#21c637"
       fill-opacity="1"
       id="g70">
      <g
         transform="translate(19.226722,136.42003)"
         id="g69">
        <g
           id="g68">
          <path
             d="M 1.328125,-8.28125 V 0 h 1.40625 v -5 c 0,-0.445312 0.050781,-0.828125 0.15625,-1.140625 0.101563,-0.320313 0.238281,-0.582031 0.40625,-0.78125 0.164063,-0.195313 0.347656,-0.335937 0.546875,-0.421875 0.195312,-0.09375 0.390625,-0.140625 0.578125,-0.140625 0.25,0 0.476563,0.085937 0.6875,0.25 0.21875,0.167969 0.378906,0.324219 0.484375,0.46875 l 0.5625,-1.03125 C 6.050781,-7.921875 5.929688,-8.023438 5.796875,-8.109375 5.660156,-8.203125 5.519531,-8.273438 5.375,-8.328125 5.238281,-8.378906 5.113281,-8.410156 5,-8.421875 4.882812,-8.441406 4.800781,-8.453125 4.75,-8.453125 c -0.46875,0 -0.859375,0.132813 -1.171875,0.390625 -0.304687,0.25 -0.554687,0.621094 -0.75,1.109375 H 2.734375 V -8.28125 Z m 0,0"
             id="path67" />
        </g>
      </g>
    </g>
    <g
       fill="#21c637"
       fill-opacity="1"
       id="g73">
      <g
         transform="translate(25.547637,136.42003)"
         id="g72">
        <g
           id="g71">
          <path
             d="m 4.375,-8.453125 c 0.800781,0 1.421875,0.117187 1.859375,0.34375 0.445313,0.21875 0.769531,0.511719 0.96875,0.875 C 7.410156,-6.867188 7.53125,-6.445312 7.5625,-5.96875 7.59375,-5.5 7.609375,-5.015625 7.609375,-4.515625 V 0 h -1.34375 v -0.8125 c -0.3125,0.3125 -0.71875,0.5625 -1.21875,0.75 -0.5,0.175781 -0.996094,0.265625 -1.484375,0.265625 -0.480469,0 -0.902344,-0.085937 -1.265625,-0.25 C 1.929688,-0.210938 1.628906,-0.425781 1.390625,-0.6875 1.148438,-0.957031 0.96875,-1.253906 0.84375,-1.578125 0.71875,-1.910156 0.65625,-2.25 0.65625,-2.59375 c 0,-0.351562 0.066406,-0.707031 0.203125,-1.0625 0.132813,-0.351562 0.332031,-0.671875 0.59375,-0.953125 0.269531,-0.28125 0.597656,-0.507813 0.984375,-0.6875 C 2.820312,-5.472656 3.257812,-5.5625 3.75,-5.5625 c 0.5,0 0.972656,0.101562 1.421875,0.296875 0.445313,0.1875 0.8125,0.460937 1.09375,0.8125 V -5.15625 c 0,-0.90625 -0.136719,-1.578125 -0.40625,-2.015625 -0.273437,-0.445313 -0.761719,-0.671875 -1.46875,-0.671875 -0.3125,0 -0.585937,0.042969 -0.8125,0.125 -0.230469,0.074219 -0.4375,0.179688 -0.625,0.3125 -0.179687,0.136719 -0.34375,0.308594 -0.5,0.515625 -0.15625,0.210937 -0.3125,0.4375 -0.46875,0.6875 L 1.125,-7.0625 c 0.15625,-0.164062 0.316406,-0.332031 0.484375,-0.5 0.175781,-0.164062 0.382813,-0.3125 0.625,-0.4375 0.25,-0.132812 0.546875,-0.242188 0.890625,-0.328125 0.34375,-0.082031 0.757812,-0.125 1.25,-0.125 z M 6.265625,-3.28125 C 6.210938,-3.40625 6.132812,-3.554688 6.03125,-3.734375 5.925781,-3.910156 5.789062,-4.082031 5.625,-4.25 5.457031,-4.414062 5.257812,-4.554688 5.03125,-4.671875 4.800781,-4.785156 4.523438,-4.84375 4.203125,-4.84375 c -0.324219,0 -0.621094,0.0625 -0.890625,0.1875 -0.261719,0.125 -0.484375,0.292969 -0.671875,0.5 -0.179687,0.199219 -0.320313,0.4375 -0.421875,0.71875 -0.09375,0.273438 -0.140625,0.558594 -0.140625,0.859375 0,0.355469 0.0625,0.664063 0.1875,0.921875 0.132813,0.25 0.300781,0.46875 0.5,0.65625 0.195313,0.179688 0.414063,0.3125 0.65625,0.40625 0.25,0.085938 0.484375,0.125 0.703125,0.125 0.207031,0 0.414062,-0.035156 0.625,-0.109375 0.21875,-0.070313 0.421875,-0.175781 0.609375,-0.3125 0.195313,-0.144531 0.375,-0.3125 0.53125,-0.5 0.15625,-0.1875 0.28125,-0.390625 0.375,-0.609375 z m 0,0"
             id="path70" />
        </g>
      </g>
    </g>
    <g
       fill="#21c637"
       fill-opacity="1"
       id="g76">
      <g
         transform="translate(34.482966,136.42003)"
         id="g75">
        <g
           id="g74">
          <path
             d="M 0.328125,-8.28125 3.765625,0 h 1 l 3.34375,-8.28125 H 7.328125 L 4.65625,-1.640625 H 4.546875 L 1.78125,-8.28125 Z m 0,0"
             id="path73" />
        </g>
      </g>
    </g>
    <g
       fill="#21c637"
       fill-opacity="1"
       id="g79">
      <g
         transform="translate(42.921884,136.42003)"
         id="g78">
        <g
           id="g77">
          <path
             d="M 8.671875,-3.765625 V -4.125 c 0,-0.738281 -0.105469,-1.375 -0.3125,-1.90625 C 8.148438,-6.570312 7.863281,-7.019531 7.5,-7.375 7.144531,-7.726562 6.726562,-7.992188 6.25,-8.171875 5.78125,-8.347656 5.28125,-8.4375 4.75,-8.4375 c -0.5625,0 -1.085938,0.101562 -1.5625,0.296875 -0.46875,0.1875 -0.882812,0.46875 -1.234375,0.84375 -0.355469,0.367187 -0.632813,0.8125 -0.828125,1.34375 -0.199219,0.523437 -0.296875,1.109375 -0.296875,1.765625 0,0.554688 0.082031,1.09375 0.25,1.625 0.175781,0.523438 0.4375,0.992188 0.78125,1.40625 0.34375,0.40625 0.78125,0.734375 1.3125,0.984375 0.539063,0.25 1.175781,0.375 1.90625,0.375 0.707031,0 1.359375,-0.125 1.953125,-0.375 0.59375,-0.25 1.113281,-0.601563 1.5625,-1.0625 L 8.0625,-1.765625 c -0.242188,0.199219 -0.464844,0.382813 -0.671875,0.546875 -0.199219,0.167969 -0.402344,0.308594 -0.609375,0.421875 -0.210938,0.105469 -0.429688,0.1875 -0.65625,0.25 -0.21875,0.054687 -0.46875,0.078125 -0.75,0.078125 -0.304688,0 -0.632812,-0.046875 -0.984375,-0.140625 -0.34375,-0.09375 -0.667969,-0.257813 -0.96875,-0.5 -0.292969,-0.238281 -0.542969,-0.570313 -0.75,-1 C 2.472656,-2.546875 2.375,-3.097656 2.375,-3.765625 Z M 2.375,-4.4375 c 0,-0.4375 0.046875,-0.863281 0.140625,-1.28125 C 2.609375,-6.132812 2.753906,-6.5 2.953125,-6.8125 3.148438,-7.132812 3.394531,-7.390625 3.6875,-7.578125 3.988281,-7.773438 4.34375,-7.875 4.75,-7.875 c 0.78125,0 1.390625,0.308594 1.828125,0.921875 0.4375,0.605469 0.65625,1.445313 0.65625,2.515625 z m 0,0"
             id="path76" />
        </g>
      </g>
    </g>
    <g
       fill="#21c637"
       fill-opacity="1"
       id="g82">
      <g
         transform="translate(52.419805,136.42003)"
         id="g81">
        <g
           id="g80">
          <path
             d="M 3.0625,-11.578125 H 1.65625 V 0 H 3.0625 Z m 0,0"
             id="path79" />
        </g>
      </g>
    </g>
    <g
       fill="#21c637"
       fill-opacity="1"
       id="g88">
      <g
         transform="translate(62.927094,136.42003)"
         id="g87">
        <g
           id="g86">
          <path
             d="M 1.328125,-8.28125 V 0 h 1.40625 v -5 c 0,-0.445312 0.050781,-0.828125 0.15625,-1.140625 0.101563,-0.320313 0.238281,-0.582031 0.40625,-0.78125 0.164063,-0.195313 0.347656,-0.335937 0.546875,-0.421875 0.195312,-0.09375 0.390625,-0.140625 0.578125,-0.140625 0.25,0 0.476563,0.085937 0.6875,0.25 0.21875,0.167969 0.378906,0.324219 0.484375,0.46875 l 0.5625,-1.03125 C 6.050781,-7.921875 5.929688,-8.023438 5.796875,-8.109375 5.660156,-8.203125 5.519531,-8.273438 5.375,-8.328125 5.238281,-8.378906 5.113281,-8.410156 5,-8.421875 4.882812,-8.441406 4.800781,-8.453125 4.75,-8.453125 c -0.46875,0 -0.859375,0.132813 -1.171875,0.390625 -0.304687,0.25 -0.554687,0.621094 -0.75,1.109375 H 2.734375 V -8.28125 Z m 0,0"
             id="path85" />
        </g>
      </g>
    </g>
    <g
       fill="#21c637"
       fill-opacity="1"
       id="g91">
      <g
         transform="translate(69.248009,136.42003)"
         id="g90">
        <g
           id="g89">
          <path
             d="M 8.671875,-3.765625 V -4.125 c 0,-0.738281 -0.105469,-1.375 -0.3125,-1.90625 C 8.148438,-6.570312 7.863281,-7.019531 7.5,-7.375 7.144531,-7.726562 6.726562,-7.992188 6.25,-8.171875 5.78125,-8.347656 5.28125,-8.4375 4.75,-8.4375 c -0.5625,0 -1.085938,0.101562 -1.5625,0.296875 -0.46875,0.1875 -0.882812,0.46875 -1.234375,0.84375 -0.355469,0.367187 -0.632813,0.8125 -0.828125,1.34375 -0.199219,0.523437 -0.296875,1.109375 -0.296875,1.765625 0,0.554688 0.082031,1.09375 0.25,1.625 0.175781,0.523438 0.4375,0.992188 0.78125,1.40625 0.34375,0.40625 0.78125,0.734375 1.3125,0.984375 0.539063,0.25 1.175781,0.375 1.90625,0.375 0.707031,0 1.359375,-0.125 1.953125,-0.375 0.59375,-0.25 1.113281,-0.601563 1.5625,-1.0625 L 8.0625,-1.765625 c -0.242188,0.199219 -0.464844,0.382813 -0.671875,0.546875 -0.199219,0.167969 -0.402344,0.308594 -0.609375,0.421875 -0.210938,0.105469 -0.429688,0.1875 -0.65625,0.25 -0.21875,0.054687 -0.46875,0.078125 -0.75,0.078125 -0.304688,0 -0.632812,-0.046875 -0.984375,-0.140625 -0.34375,-0.09375 -0.667969,-0.257813 -0.96875,-0.5 -0.292969,-0.238281 -0.542969,-0.570313 -0.75,-1 C 2.472656,-2.546875 2.375,-3.097656 2.375,-3.765625 Z M 2.375,-4.4375 c 0,-0.4375 0.046875,-0.863281 0.140625,-1.28125 C 2.609375,-6.132812 2.753906,-6.5 2.953125,-6.8125 3.148438,-7.132812 3.394531,-7.390625 3.6875,-7.578125 3.988281,-7.773438 4.34375,-7.875 4.75,-7.875 c 0.78125,0 1.390625,0.308594 1.828125,0.921875 0.4375,0.605469 0.65625,1.445313 0.65625,2.515625 z m 0,0"
             id="path88" />
        </g>
      </g>
    </g>
    <g
       fill="#21c637"
       fill-opacity="1"
       id="g94">
      <g
         transform="translate(78.745929,136.42003)"
         id="g93">
        <g
           id="g92">
          <path
             d="m 6.609375,-6.390625 c 0,-0.289063 -0.078125,-0.5625 -0.234375,-0.8125 -0.15625,-0.257813 -0.371094,-0.476563 -0.640625,-0.65625 -0.273437,-0.1875 -0.589844,-0.332031 -0.953125,-0.4375 -0.355469,-0.101563 -0.734375,-0.15625 -1.140625,-0.15625 -0.386719,0 -0.75,0.054687 -1.09375,0.15625 -0.335937,0.09375 -0.625,0.242187 -0.875,0.4375 C 1.429688,-7.660156 1.238281,-7.414062 1.09375,-7.125 0.945312,-6.832031 0.875,-6.492188 0.875,-6.109375 c 0,0.53125 0.117188,0.953125 0.359375,1.265625 0.25,0.304688 0.554687,0.546875 0.921875,0.734375 0.363281,0.1875 0.753906,0.34375 1.171875,0.46875 0.425781,0.117187 0.820313,0.242187 1.1875,0.375 0.363281,0.136719 0.664063,0.308594 0.90625,0.515625 0.25,0.210938 0.375,0.496094 0.375,0.859375 0,0.15625 -0.027344,0.320313 -0.078125,0.484375 -0.054688,0.167969 -0.148438,0.320312 -0.28125,0.453125 -0.125,0.136719 -0.308594,0.25 -0.546875,0.34375 -0.230469,0.09375 -0.523437,0.140625 -0.875,0.140625 -0.4375,0 -0.808594,-0.066406 -1.109375,-0.203125 C 2.601562,-0.804688 2.351562,-0.96875 2.15625,-1.15625 1.96875,-1.351562 1.832031,-1.550781 1.75,-1.75 1.664062,-1.945312 1.625,-2.113281 1.625,-2.25 H 0.546875 c 0,0.3125 0.066406,0.617188 0.203125,0.90625 0.144531,0.292969 0.363281,0.554688 0.65625,0.78125 C 1.707031,-0.332031 2.066406,-0.144531 2.484375,0 2.910156,0.132812 3.40625,0.203125 3.96875,0.203125 c 1.019531,0 1.785156,-0.2226562 2.296875,-0.671875 0.507813,-0.445312 0.765625,-1.035156 0.765625,-1.765625 0,-0.53125 -0.125,-0.953125 -0.375,-1.265625 -0.25,-0.320312 -0.5625,-0.578125 -0.9375,-0.765625 C 5.34375,-4.460938 4.9375,-4.625 4.5,-4.75 4.070312,-4.875 3.671875,-5 3.296875,-5.125 c -0.375,-0.132812 -0.6875,-0.296875 -0.9375,-0.484375 -0.25,-0.1875 -0.375,-0.453125 -0.375,-0.796875 0,-0.144531 0.023437,-0.296875 0.078125,-0.453125 0.0625,-0.15625 0.15625,-0.300781 0.28125,-0.4375 C 2.476562,-7.441406 2.65625,-7.5625 2.875,-7.65625 3.09375,-7.75 3.367188,-7.796875 3.703125,-7.796875 c 0.332031,0 0.617187,0.046875 0.859375,0.140625 0.25,0.09375 0.453125,0.214844 0.609375,0.359375 0.164063,0.136719 0.285156,0.289063 0.359375,0.453125 0.082031,0.15625 0.125,0.308594 0.125,0.453125 z m 0,0"
             id="path91" />
        </g>
      </g>
    </g>
    <g
       fill="#21c637"
       fill-opacity="1"
       id="g97">
      <g
         transform="translate(86.688449,136.42003)"
         id="g96">
        <g
           id="g95">
          <path
             d="m 1.328125,4.140625 h 1.40625 v -5.5 h 0.0625 c 0.113281,0.292969 0.257813,0.539063 0.4375,0.734375 0.1875,0.199219 0.394531,0.359375 0.625,0.484375 0.226563,0.1171875 0.472656,0.1953125 0.734375,0.25 0.257812,0.0625 0.519531,0.09375 0.78125,0.09375 0.550781,0 1.054688,-0.101563 1.515625,-0.296875 0.46875,-0.207031 0.867187,-0.5 1.203125,-0.875 0.34375,-0.375 0.609375,-0.828125 0.796875,-1.359375 0.1875,-0.539063 0.28125,-1.140625 0.28125,-1.796875 0,-0.65625 -0.09375,-1.25 -0.28125,-1.78125 C 8.703125,-6.4375 8.4375,-6.890625 8.09375,-7.265625 7.757812,-7.648438 7.359375,-7.941406 6.890625,-8.140625 6.429688,-8.347656 5.925781,-8.453125 5.375,-8.453125 c -1.3125,0 -2.171875,0.507813 -2.578125,1.515625 h -0.0625 V -8.28125 H 1.328125 Z M 2.734375,-4.96875 C 2.734375,-5.332031 2.789062,-5.675781 2.90625,-6 3.019531,-6.320312 3.179688,-6.601562 3.390625,-6.84375 3.597656,-7.082031 3.84375,-7.269531 4.125,-7.40625 c 0.28125,-0.132812 0.582031,-0.203125 0.90625,-0.203125 0.34375,0 0.671875,0.0625 0.984375,0.1875 0.3125,0.125 0.582031,0.328125 0.8125,0.609375 0.238281,0.273438 0.425781,0.632812 0.5625,1.078125 0.132813,0.4375 0.203125,0.964844 0.203125,1.578125 0,0.636719 -0.070312,1.171875 -0.203125,1.609375 C 7.253906,-2.109375 7.066406,-1.75 6.828125,-1.46875 6.585938,-1.1875 6.3125,-0.976562 6,-0.84375 c -0.304688,0.125 -0.625,0.1875 -0.96875,0.1875 -0.3125,0 -0.609375,-0.0625 -0.890625,-0.1875 -0.273437,-0.132812 -0.511719,-0.320312 -0.71875,-0.5625 -0.210937,-0.25 -0.375,-0.550781 -0.5,-0.90625 -0.125,-0.351562 -0.1875,-0.757812 -0.1875,-1.21875 z m 0,0"
             id="path94" />
        </g>
      </g>
    </g>
    <g
       fill="#21c637"
       fill-opacity="1"
       id="g100">
      <g
         transform="translate(96.682779,136.42003)"
         id="g99">
        <g
           id="g98">
          <path
             d="m 9.40625,-4.125 c 0,0.574219 -0.105469,1.125 -0.3125,1.65625 -0.199219,0.523438 -0.484375,0.980469 -0.859375,1.375 C 7.867188,-0.695312 7.425781,-0.378906 6.90625,-0.140625 6.382812,0.0859375 5.796875,0.203125 5.140625,0.203125 4.484375,0.203125 3.882812,0.0820312 3.34375,-0.15625 2.8125,-0.394531 2.359375,-0.710938 1.984375,-1.109375 1.617188,-1.503906 1.332031,-1.960938 1.125,-2.484375 0.925781,-3.015625 0.828125,-3.5625 0.828125,-4.125 c 0,-0.570312 0.097656,-1.117188 0.296875,-1.640625 0.207031,-0.519531 0.492188,-0.976563 0.859375,-1.375 0.375,-0.40625 0.828125,-0.722656 1.359375,-0.953125 0.539062,-0.238281 1.140625,-0.359375 1.796875,-0.359375 0.65625,0 1.242187,0.121094 1.765625,0.359375 0.519531,0.230469 0.960938,0.546875 1.328125,0.953125 0.375,0.398437 0.660156,0.855469 0.859375,1.375 0.207031,0.523437 0.3125,1.070313 0.3125,1.640625 z m -1.578125,0 c 0,-0.769531 -0.085937,-1.394531 -0.25,-1.875 C 7.410156,-6.476562 7.191406,-6.847656 6.921875,-7.109375 6.660156,-7.378906 6.367188,-7.5625 6.046875,-7.65625 5.734375,-7.75 5.425781,-7.796875 5.125,-7.796875 4.832031,-7.796875 4.523438,-7.75 4.203125,-7.65625 3.878906,-7.5625 3.582031,-7.378906 3.3125,-7.109375 3.039062,-6.847656 2.820312,-6.476562 2.65625,-6 c -0.167969,0.480469 -0.25,1.105469 -0.25,1.875 0,0.761719 0.082031,1.386719 0.25,1.875 0.164062,0.480469 0.382812,0.851562 0.65625,1.109375 0.269531,0.261719 0.566406,0.4375 0.890625,0.53125 0.320313,0.09375 0.628906,0.140625 0.921875,0.140625 0.300781,0 0.609375,-0.046875 0.921875,-0.140625 0.320313,-0.09375 0.613281,-0.269531 0.875,-0.53125 0.269531,-0.257813 0.488281,-0.628906 0.65625,-1.109375 0.164063,-0.488281 0.25,-1.113281 0.25,-1.875 z m 0,0"
             id="path97" />
        </g>
      </g>
    </g>
    <g
       fill="#21c637"
       fill-opacity="1"
       id="g103">
      <g
         transform="translate(106.90876,136.42003)"
         id="g102">
        <g
           id="g101">
          <path
             d="m 8.234375,0 v -5.359375 c 0,-0.195313 -0.015625,-0.46875 -0.046875,-0.8125 C 8.15625,-6.523438 8.046875,-6.867188 7.859375,-7.203125 7.679688,-7.535156 7.394531,-7.828125 7,-8.078125 c -0.398438,-0.25 -0.960938,-0.375 -1.6875,-0.375 -0.324219,-0.00781 -0.683594,0.054687 -1.078125,0.1875 -0.398437,0.136719 -0.789063,0.398437 -1.171875,0.78125 L 2.796875,-7.21875 h -0.0625 v -1.0625 H 1.328125 V 0 h 1.40625 v -5.109375 c 0,-0.4375 0.054687,-0.804687 0.171875,-1.109375 0.125,-0.3125 0.289062,-0.570312 0.5,-0.78125 0.207031,-0.207031 0.445312,-0.359375 0.71875,-0.453125 0.269531,-0.101563 0.550781,-0.15625 0.84375,-0.15625 0.457031,0 0.8125,0.09375 1.0625,0.28125 0.257812,0.179687 0.445312,0.386719 0.5625,0.625 0.113281,0.242187 0.179688,0.484375 0.203125,0.734375 0.019531,0.242188 0.03125,0.417969 0.03125,0.53125 V 0 Z m 0,0"
             id="path100" />
        </g>
      </g>
    </g>
    <g
       fill="#21c637"
       fill-opacity="1"
       id="g106">
      <g
         transform="translate(116.52251,136.42003)"
         id="g105">
        <g
           id="g104">
          <path
             d="m 6.609375,-6.390625 c 0,-0.289063 -0.078125,-0.5625 -0.234375,-0.8125 -0.15625,-0.257813 -0.371094,-0.476563 -0.640625,-0.65625 -0.273437,-0.1875 -0.589844,-0.332031 -0.953125,-0.4375 -0.355469,-0.101563 -0.734375,-0.15625 -1.140625,-0.15625 -0.386719,0 -0.75,0.054687 -1.09375,0.15625 -0.335937,0.09375 -0.625,0.242187 -0.875,0.4375 C 1.429688,-7.660156 1.238281,-7.414062 1.09375,-7.125 0.945312,-6.832031 0.875,-6.492188 0.875,-6.109375 c 0,0.53125 0.117188,0.953125 0.359375,1.265625 0.25,0.304688 0.554687,0.546875 0.921875,0.734375 0.363281,0.1875 0.753906,0.34375 1.171875,0.46875 0.425781,0.117187 0.820313,0.242187 1.1875,0.375 0.363281,0.136719 0.664063,0.308594 0.90625,0.515625 0.25,0.210938 0.375,0.496094 0.375,0.859375 0,0.15625 -0.027344,0.320313 -0.078125,0.484375 -0.054688,0.167969 -0.148438,0.320312 -0.28125,0.453125 -0.125,0.136719 -0.308594,0.25 -0.546875,0.34375 -0.230469,0.09375 -0.523437,0.140625 -0.875,0.140625 -0.4375,0 -0.808594,-0.066406 -1.109375,-0.203125 C 2.601562,-0.804688 2.351562,-0.96875 2.15625,-1.15625 1.96875,-1.351562 1.832031,-1.550781 1.75,-1.75 1.664062,-1.945312 1.625,-2.113281 1.625,-2.25 H 0.546875 c 0,0.3125 0.066406,0.617188 0.203125,0.90625 0.144531,0.292969 0.363281,0.554688 0.65625,0.78125 C 1.707031,-0.332031 2.066406,-0.144531 2.484375,0 2.910156,0.132812 3.40625,0.203125 3.96875,0.203125 c 1.019531,0 1.785156,-0.2226562 2.296875,-0.671875 0.507813,-0.445312 0.765625,-1.035156 0.765625,-1.765625 0,-0.53125 -0.125,-0.953125 -0.375,-1.265625 -0.25,-0.320312 -0.5625,-0.578125 -0.9375,-0.765625 C 5.34375,-4.460938 4.9375,-4.625 4.5,-4.75 4.070312,-4.875 3.671875,-5 3.296875,-5.125 c -0.375,-0.132812 -0.6875,-0.296875 -0.9375,-0.484375 -0.25,-0.1875 -0.375,-0.453125 -0.375,-0.796875 0,-0.144531 0.023437,-0.296875 0.078125,-0.453125 0.0625,-0.15625 0.15625,-0.300781 0.28125,-0.4375 C 2.476562,-7.441406 2.65625,-7.5625 2.875,-7.65625 3.09375,-7.75 3.367188,-7.796875 3.703125,-7.796875 c 0.332031,0 0.617187,0.046875 0.859375,0.140625 0.25,0.09375 0.453125,0.214844 0.609375,0.359375 0.164063,0.136719 0.285156,0.289063 0.359375,0.453125 0.082031,0.15625 0.125,0.308594 0.125,0.453125 z m 0,0"
             id="path103" />
        </g>
      </g>
    </g>
    <g
       fill="#21c637"
       fill-opacity="1"
       id="g109">
      <g
         transform="translate(124.46503,136.42003)"
         id="g108">
        <g
           id="g107">
          <path
             d="M 1.859375,-8.28125 V 0 h 1.40625 V -8.28125 Z M 1.65625,-10.890625 c 0,0.242187 0.085938,0.449219 0.265625,0.625 C 2.097656,-10.085938 2.304688,-10 2.546875,-10 c 0.238281,0 0.445313,-0.08594 0.625,-0.265625 0.175781,-0.175781 0.265625,-0.382813 0.265625,-0.625 0,-0.238281 -0.089844,-0.445313 -0.265625,-0.625 -0.179687,-0.175781 -0.386719,-0.265625 -0.625,-0.265625 -0.242187,0 -0.449219,0.08984 -0.625,0.265625 -0.179687,0.179687 -0.265625,0.386719 -0.265625,0.625 z m 0,0"
             id="path106" />
        </g>
      </g>
    </g>
    <g
       fill="#21c637"
       fill-opacity="1"
       id="g112">
      <g
         transform="translate(129.56147,136.42003)"
         id="g111">
        <g
           id="g110">
          <path
             d="m 1.328125,-11.578125 h 1.40625 v 4.65625 h 0.0625 c 0.113281,-0.28125 0.257813,-0.515625 0.4375,-0.703125 0.1875,-0.195312 0.394531,-0.359375 0.625,-0.484375 0.226563,-0.125 0.472656,-0.210937 0.734375,-0.265625 0.257812,-0.050781 0.519531,-0.078125 0.78125,-0.078125 0.550781,0 1.054688,0.105469 1.515625,0.3125 0.46875,0.199219 0.867187,0.484375 1.203125,0.859375 0.34375,0.375 0.609375,0.828125 0.796875,1.359375 0.1875,0.53125 0.28125,1.121094 0.28125,1.765625 0,0.667969 -0.09375,1.265625 -0.28125,1.796875 -0.1875,0.53125 -0.453125,0.992187 -0.796875,1.375 C 7.757812,-0.597656 7.359375,-0.300781 6.890625,-0.09375 6.429688,0.101562 5.925781,0.203125 5.375,0.203125 4.0625,0.203125 3.203125,-0.3125 2.796875,-1.34375 h -0.0625 V 0 h -1.40625 z m 1.40625,8.265625 c 0,0.367188 0.054687,0.714844 0.171875,1.046875 0.113281,0.324219 0.273438,0.605469 0.484375,0.84375 0.207031,0.230469 0.453125,0.417969 0.734375,0.5625 0.28125,0.136719 0.582031,0.203125 0.90625,0.203125 0.34375,0 0.671875,-0.0625 0.984375,-0.1875 0.3125,-0.132812 0.582031,-0.335938 0.8125,-0.609375 0.238281,-0.28125 0.425781,-0.640625 0.5625,-1.078125 C 7.523438,-2.96875 7.59375,-3.5 7.59375,-4.125 7.59375,-4.75 7.523438,-5.28125 7.390625,-5.71875 7.253906,-6.164062 7.066406,-6.53125 6.828125,-6.8125 6.585938,-7.09375 6.3125,-7.296875 6,-7.421875 c -0.304688,-0.125 -0.625,-0.1875 -0.96875,-0.1875 -0.3125,0 -0.609375,0.0625 -0.890625,0.1875 -0.273437,0.125 -0.511719,0.3125 -0.71875,0.5625 -0.210937,0.25 -0.375,0.554687 -0.5,0.90625 -0.125,0.355469 -0.1875,0.757813 -0.1875,1.203125 z m 0,0"
             id="path109" />
        </g>
      </g>
    </g>
    <g
       fill="#21c637"
       fill-opacity="1"
       id="g115">
      <g
         transform="translate(139.5558,136.42003)"
         id="g114">
        <g
           id="g113">
          <path
             d="M 3.0625,-11.578125 H 1.65625 V 0 H 3.0625 Z m 0,0"
             id="path112" />
        </g>
      </g>
    </g>
    <g
       fill="#21c637"
       fill-opacity="1"
       id="g118">
      <g
         transform="translate(144.27167,136.42003)"
         id="g117">
        <g
           id="g116">
          <path
             d="M 4.53125,-1.9375 1.671875,-8.28125 h -1.5 L 3.875,-0.09375 3,2.046875 C 2.894531,2.304688 2.757812,2.507812 2.59375,2.65625 2.4375,2.8125 2.253906,2.890625 2.046875,2.890625 1.847656,2.890625 1.65625,2.832031 1.46875,2.71875 1.289062,2.601562 1.15625,2.4375 1.0625,2.21875 l -0.734375,1.375 c 0.207031,0.1875 0.4375,0.320312 0.6875,0.40625 0.257813,0.09375 0.5,0.140625 0.71875,0.140625 0.3125,0 0.582031,-0.078125 0.8125,-0.234375 C 2.773438,3.75 2.976562,3.546875 3.15625,3.296875 3.332031,3.046875 3.488281,2.769531 3.625,2.46875 3.757812,2.164062 3.882812,1.867188 4,1.578125 L 8.015625,-8.28125 h -0.8125 L 4.59375,-1.9375 Z m 0,0"
             id="path115" />
        </g>
      </g>
    </g>
    <g
       fill="#21c637"
       fill-opacity="1"
       id="g121">
      <g
         transform="translate(152.61131,136.42003)"
         id="g120">
        <g
           id="g119">
          <path
             d="M 1.53125,2.25 H 1 v -4.265625 h 1.546875 z m 0,0"
             id="path118" />
        </g>
      </g>
    </g>
    <g
       fill="#21c637"
       fill-opacity="1"
       id="g127">
      <g
         transform="translate(162.60564,136.42003)"
         id="g126">
        <g
           id="g125">
          <path
             d="M 3.0625,-11.578125 H 1.65625 V 0 H 3.0625 Z m 0,0"
             id="path124" />
        </g>
      </g>
    </g>
    <g
       fill="#21c637"
       fill-opacity="1"
       id="g130">
      <g
         transform="translate(167.32151,136.42003)"
         id="g129">
        <g
           id="g128">
          <path
             d="M 8.671875,-3.765625 V -4.125 c 0,-0.738281 -0.105469,-1.375 -0.3125,-1.90625 C 8.148438,-6.570312 7.863281,-7.019531 7.5,-7.375 7.144531,-7.726562 6.726562,-7.992188 6.25,-8.171875 5.78125,-8.347656 5.28125,-8.4375 4.75,-8.4375 c -0.5625,0 -1.085938,0.101562 -1.5625,0.296875 -0.46875,0.1875 -0.882812,0.46875 -1.234375,0.84375 -0.355469,0.367187 -0.632813,0.8125 -0.828125,1.34375 -0.199219,0.523437 -0.296875,1.109375 -0.296875,1.765625 0,0.554688 0.082031,1.09375 0.25,1.625 0.175781,0.523438 0.4375,0.992188 0.78125,1.40625 0.34375,0.40625 0.78125,0.734375 1.3125,0.984375 0.539063,0.25 1.175781,0.375 1.90625,0.375 0.707031,0 1.359375,-0.125 1.953125,-0.375 0.59375,-0.25 1.113281,-0.601563 1.5625,-1.0625 L 8.0625,-1.765625 c -0.242188,0.199219 -0.464844,0.382813 -0.671875,0.546875 -0.199219,0.167969 -0.402344,0.308594 -0.609375,0.421875 -0.210938,0.105469 -0.429688,0.1875 -0.65625,0.25 -0.21875,0.054687 -0.46875,0.078125 -0.75,0.078125 -0.304688,0 -0.632812,-0.046875 -0.984375,-0.140625 -0.34375,-0.09375 -0.667969,-0.257813 -0.96875,-0.5 -0.292969,-0.238281 -0.542969,-0.570313 -0.75,-1 C 2.472656,-2.546875 2.375,-3.097656 2.375,-3.765625 Z M 2.375,-4.4375 c 0,-0.4375 0.046875,-0.863281 0.140625,-1.28125 C 2.609375,-6.132812 2.753906,-6.5 2.953125,-6.8125 3.148438,-7.132812 3.394531,-7.390625 3.6875,-7.578125 3.988281,-7.773438 4.34375,-7.875 4.75,-7.875 c 0.78125,0 1.390625,0.308594 1.828125,0.921875 0.4375,0.605469 0.65625,1.445313 0.65625,2.515625 z m 0,0"
             id="path127" />
        </g>
      </g>
    </g>
    <g
       fill="#21c637"
       fill-opacity="1"
       id="g133">
      <g
         transform="translate(176.81943,136.42003)"
         id="g132">
        <g
           id="g131">
          <path
             d="m 4.375,-8.453125 c 0.800781,0 1.421875,0.117187 1.859375,0.34375 0.445313,0.21875 0.769531,0.511719 0.96875,0.875 C 7.410156,-6.867188 7.53125,-6.445312 7.5625,-5.96875 7.59375,-5.5 7.609375,-5.015625 7.609375,-4.515625 V 0 h -1.34375 v -0.8125 c -0.3125,0.3125 -0.71875,0.5625 -1.21875,0.75 -0.5,0.175781 -0.996094,0.265625 -1.484375,0.265625 -0.480469,0 -0.902344,-0.085937 -1.265625,-0.25 C 1.929688,-0.210938 1.628906,-0.425781 1.390625,-0.6875 1.148438,-0.957031 0.96875,-1.253906 0.84375,-1.578125 0.71875,-1.910156 0.65625,-2.25 0.65625,-2.59375 c 0,-0.351562 0.066406,-0.707031 0.203125,-1.0625 0.132813,-0.351562 0.332031,-0.671875 0.59375,-0.953125 0.269531,-0.28125 0.597656,-0.507813 0.984375,-0.6875 C 2.820312,-5.472656 3.257812,-5.5625 3.75,-5.5625 c 0.5,0 0.972656,0.101562 1.421875,0.296875 0.445313,0.1875 0.8125,0.460937 1.09375,0.8125 V -5.15625 c 0,-0.90625 -0.136719,-1.578125 -0.40625,-2.015625 -0.273437,-0.445313 -0.761719,-0.671875 -1.46875,-0.671875 -0.3125,0 -0.585937,0.042969 -0.8125,0.125 -0.230469,0.074219 -0.4375,0.179688 -0.625,0.3125 -0.179687,0.136719 -0.34375,0.308594 -0.5,0.515625 -0.15625,0.210937 -0.3125,0.4375 -0.46875,0.6875 L 1.125,-7.0625 c 0.15625,-0.164062 0.316406,-0.332031 0.484375,-0.5 0.175781,-0.164062 0.382813,-0.3125 0.625,-0.4375 0.25,-0.132812 0.546875,-0.242188 0.890625,-0.328125 0.34375,-0.082031 0.757812,-0.125 1.25,-0.125 z M 6.265625,-3.28125 C 6.210938,-3.40625 6.132812,-3.554688 6.03125,-3.734375 5.925781,-3.910156 5.789062,-4.082031 5.625,-4.25 5.457031,-4.414062 5.257812,-4.554688 5.03125,-4.671875 4.800781,-4.785156 4.523438,-4.84375 4.203125,-4.84375 c -0.324219,0 -0.621094,0.0625 -0.890625,0.1875 -0.261719,0.125 -0.484375,0.292969 -0.671875,0.5 -0.179687,0.199219 -0.320313,0.4375 -0.421875,0.71875 -0.09375,0.273438 -0.140625,0.558594 -0.140625,0.859375 0,0.355469 0.0625,0.664063 0.1875,0.921875 0.132813,0.25 0.300781,0.46875 0.5,0.65625 0.195313,0.179688 0.414063,0.3125 0.65625,0.40625 0.25,0.085938 0.484375,0.125 0.703125,0.125 0.207031,0 0.414062,-0.035156 0.625,-0.109375 0.21875,-0.070313 0.421875,-0.175781 0.609375,-0.3125 0.195313,-0.144531 0.375,-0.3125 0.53125,-0.5 0.15625,-0.1875 0.28125,-0.390625 0.375,-0.609375 z m 0,0"
             id="path130" />
        </g>
      </g>
    </g>
    <g
       fill="#21c637"
       fill-opacity="1"
       id="g136">
      <g
         transform="translate(185.75476,136.42003)"
         id="g135">
        <g
           id="g134">
          <path
             d="M 0.328125,-8.28125 3.765625,0 h 1 l 3.34375,-8.28125 H 7.328125 L 4.65625,-1.640625 H 4.546875 L 1.78125,-8.28125 Z m 0,0"
             id="path133" />
        </g>
      </g>
    </g>
    <g
       fill="#21c637"
       fill-opacity="1"
       id="g139">
      <g
         transform="translate(194.19368,136.42003)"
         id="g138">
        <g
           id="g137">
          <path
             d="M 8.671875,-3.765625 V -4.125 c 0,-0.738281 -0.105469,-1.375 -0.3125,-1.90625 C 8.148438,-6.570312 7.863281,-7.019531 7.5,-7.375 7.144531,-7.726562 6.726562,-7.992188 6.25,-8.171875 5.78125,-8.347656 5.28125,-8.4375 4.75,-8.4375 c -0.5625,0 -1.085938,0.101562 -1.5625,0.296875 -0.46875,0.1875 -0.882812,0.46875 -1.234375,0.84375 -0.355469,0.367187 -0.632813,0.8125 -0.828125,1.34375 -0.199219,0.523437 -0.296875,1.109375 -0.296875,1.765625 0,0.554688 0.082031,1.09375 0.25,1.625 0.175781,0.523438 0.4375,0.992188 0.78125,1.40625 0.34375,0.40625 0.78125,0.734375 1.3125,0.984375 0.539063,0.25 1.175781,0.375 1.90625,0.375 0.707031,0 1.359375,-0.125 1.953125,-0.375 0.59375,-0.25 1.113281,-0.601563 1.5625,-1.0625 L 8.0625,-1.765625 c -0.242188,0.199219 -0.464844,0.382813 -0.671875,0.546875 -0.199219,0.167969 -0.402344,0.308594 -0.609375,0.421875 -0.210938,0.105469 -0.429688,0.1875 -0.65625,0.25 -0.21875,0.054687 -0.46875,0.078125 -0.75,0.078125 -0.304688,0 -0.632812,-0.046875 -0.984375,-0.140625 -0.34375,-0.09375 -0.667969,-0.257813 -0.96875,-0.5 -0.292969,-0.238281 -0.542969,-0.570313 -0.75,-1 C 2.472656,-2.546875 2.375,-3.097656 2.375,-3.765625 Z M 2.375,-4.4375 c 0,-0.4375 0.046875,-0.863281 0.140625,-1.28125 C 2.609375,-6.132812 2.753906,-6.5 2.953125,-6.8125 3.148438,-7.132812 3.394531,-7.390625 3.6875,-7.578125 3.988281,-7.773438 4.34375,-7.875 4.75,-7.875 c 0.78125,0 1.390625,0.308594 1.828125,0.921875 0.4375,0.605469 0.65625,1.445313 0.65625,2.515625 z m 0,0"
             id="path136" />
        </g>
      </g>
    </g>
    <g
       fill="#21c637"
       fill-opacity="1"
       id="g145">
      <g
         transform="translate(209.48301,136.42003)"
         id="g144">
        <g
           id="g143">
          <path
             d="m 4.375,-8.453125 c 0.800781,0 1.421875,0.117187 1.859375,0.34375 0.445313,0.21875 0.769531,0.511719 0.96875,0.875 C 7.410156,-6.867188 7.53125,-6.445312 7.5625,-5.96875 7.59375,-5.5 7.609375,-5.015625 7.609375,-4.515625 V 0 h -1.34375 v -0.8125 c -0.3125,0.3125 -0.71875,0.5625 -1.21875,0.75 -0.5,0.175781 -0.996094,0.265625 -1.484375,0.265625 -0.480469,0 -0.902344,-0.085937 -1.265625,-0.25 C 1.929688,-0.210938 1.628906,-0.425781 1.390625,-0.6875 1.148438,-0.957031 0.96875,-1.253906 0.84375,-1.578125 0.71875,-1.910156 0.65625,-2.25 0.65625,-2.59375 c 0,-0.351562 0.066406,-0.707031 0.203125,-1.0625 0.132813,-0.351562 0.332031,-0.671875 0.59375,-0.953125 0.269531,-0.28125 0.597656,-0.507813 0.984375,-0.6875 C 2.820312,-5.472656 3.257812,-5.5625 3.75,-5.5625 c 0.5,0 0.972656,0.101562 1.421875,0.296875 0.445313,0.1875 0.8125,0.460937 1.09375,0.8125 V -5.15625 c 0,-0.90625 -0.136719,-1.578125 -0.40625,-2.015625 -0.273437,-0.445313 -0.761719,-0.671875 -1.46875,-0.671875 -0.3125,0 -0.585937,0.042969 -0.8125,0.125 -0.230469,0.074219 -0.4375,0.179688 -0.625,0.3125 -0.179687,0.136719 -0.34375,0.308594 -0.5,0.515625 -0.15625,0.210937 -0.3125,0.4375 -0.46875,0.6875 L 1.125,-7.0625 c 0.15625,-0.164062 0.316406,-0.332031 0.484375,-0.5 0.175781,-0.164062 0.382813,-0.3125 0.625,-0.4375 0.25,-0.132812 0.546875,-0.242188 0.890625,-0.328125 0.34375,-0.082031 0.757812,-0.125 1.25,-0.125 z M 6.265625,-3.28125 C 6.210938,-3.40625 6.132812,-3.554688 6.03125,-3.734375 5.925781,-3.910156 5.789062,-4.082031 5.625,-4.25 5.457031,-4.414062 5.257812,-4.554688 5.03125,-4.671875 4.800781,-4.785156 4.523438,-4.84375 4.203125,-4.84375 c -0.324219,0 -0.621094,0.0625 -0.890625,0.1875 -0.261719,0.125 -0.484375,0.292969 -0.671875,0.5 -0.179687,0.199219 -0.320313,0.4375 -0.421875,0.71875 -0.09375,0.273438 -0.140625,0.558594 -0.140625,0.859375 0,0.355469 0.0625,0.664063 0.1875,0.921875 0.132813,0.25 0.300781,0.46875 0.5,0.65625 0.195313,0.179688 0.414063,0.3125 0.65625,0.40625 0.25,0.085938 0.484375,0.125 0.703125,0.125 0.207031,0 0.414062,-0.035156 0.625,-0.109375 0.21875,-0.070313 0.421875,-0.175781 0.609375,-0.3125 0.195313,-0.144531 0.375,-0.3125 0.53125,-0.5 0.15625,-0.1875 0.28125,-0.390625 0.375,-0.609375 z m 0,0"
             id="path142" />
        </g>
      </g>
    </g>
    <g
       fill="#21c637"
       fill-opacity="1"
       id="g151">
      <g
         transform="translate(224.20977,136.42003)"
         id="g150">
        <g
           id="g149">
          <path
             d="m 7.234375,0.6875 c 0,0.507812 -0.0625,0.941406 -0.1875,1.296875 C 6.921875,2.335938 6.75,2.625 6.53125,2.84375 6.320312,3.0625 6.070312,3.21875 5.78125,3.3125 5.488281,3.414062 5.175781,3.46875 4.84375,3.46875 4.257812,3.46875 3.785156,3.316406 3.421875,3.015625 3.066406,2.722656 2.742188,2.332031 2.453125,1.84375 L 1.53125,2.65625 C 1.613281,2.757812 1.738281,2.890625 1.90625,3.046875 2.070312,3.210938 2.28125,3.375 2.53125,3.53125 2.78125,3.6875 3.082031,3.820312 3.4375,3.9375 3.789062,4.0625 4.195312,4.125 4.65625,4.125 5.488281,4.125 6.164062,4.003906 6.6875,3.765625 7.207031,3.523438 7.609375,3.207031 7.890625,2.8125 8.179688,2.414062 8.378906,1.957031 8.484375,1.4375 8.585938,0.925781 8.640625,0.394531 8.640625,-0.15625 v -8.125 h -1.40625 v 1.296875 h -0.0625 C 7.035156,-7.441406 6.75,-7.800781 6.3125,-8.0625 5.875,-8.320312 5.300781,-8.453125 4.59375,-8.453125 c -0.5625,0 -1.078125,0.105469 -1.546875,0.3125 -0.460937,0.199219 -0.855469,0.484375 -1.1875,0.859375 -0.324219,0.375 -0.578125,0.828125 -0.765625,1.359375 -0.179688,0.53125 -0.265625,1.121094 -0.265625,1.765625 0,0.667969 0.085937,1.265625 0.265625,1.796875 0.1875,0.53125 0.441406,0.992187 0.765625,1.375 0.332031,0.386719 0.726563,0.683594 1.1875,0.890625 0.457031,0.195312 0.96875,0.296875 1.53125,0.296875 0.625,0 1.164063,-0.1210938 1.625,-0.359375 0.457031,-0.25 0.78125,-0.640625 0.96875,-1.171875 h 0.0625 z m 0,-4.21875 c 0,0.46875 -0.070313,0.882812 -0.203125,1.234375 -0.125,0.355469 -0.292969,0.652344 -0.5,0.890625 -0.210938,0.242188 -0.453125,0.429688 -0.734375,0.5625 -0.273437,0.125 -0.554687,0.1875 -0.84375,0.1875 -0.273437,0 -0.558594,-0.046875 -0.859375,-0.140625 C 3.789062,-0.890625 3.507812,-1.0625 3.25,-1.3125 2.988281,-1.570312 2.769531,-1.929688 2.59375,-2.390625 c -0.167969,-0.46875 -0.25,-1.066406 -0.25,-1.796875 0,-0.769531 0.101562,-1.382812 0.3125,-1.84375 0.21875,-0.457031 0.46875,-0.804688 0.75,-1.046875 0.28125,-0.25 0.566406,-0.40625 0.859375,-0.46875 0.289063,-0.070313 0.519531,-0.109375 0.6875,-0.109375 0.363281,0 0.6875,0.078125 0.96875,0.234375 0.289063,0.15625 0.53125,0.371094 0.71875,0.640625 0.195313,0.273438 0.34375,0.585938 0.4375,0.9375 0.101563,0.355469 0.15625,0.71875 0.15625,1.09375 z m 0,0"
             id="path148" />
        </g>
      </g>
    </g>
    <g
       fill="#21c637"
       fill-opacity="1"
       id="g154">
      <g
         transform="translate(234.171,136.42003)"
         id="g153">
        <g
           id="g152">
          <path
             d="M 1.328125,-8.28125 V 0 h 1.40625 v -5 c 0,-0.445312 0.050781,-0.828125 0.15625,-1.140625 0.101563,-0.320313 0.238281,-0.582031 0.40625,-0.78125 0.164063,-0.195313 0.347656,-0.335937 0.546875,-0.421875 0.195312,-0.09375 0.390625,-0.140625 0.578125,-0.140625 0.25,0 0.476563,0.085937 0.6875,0.25 0.21875,0.167969 0.378906,0.324219 0.484375,0.46875 l 0.5625,-1.03125 C 6.050781,-7.921875 5.929688,-8.023438 5.796875,-8.109375 5.660156,-8.203125 5.519531,-8.273438 5.375,-8.328125 5.238281,-8.378906 5.113281,-8.410156 5,-8.421875 4.882812,-8.441406 4.800781,-8.453125 4.75,-8.453125 c -0.46875,0 -0.859375,0.132813 -1.171875,0.390625 -0.304687,0.25 -0.554687,0.621094 -0.75,1.109375 H 2.734375 V -8.28125 Z m 0,0"
             id="path151" />
        </g>
      </g>
    </g>
    <g
       fill="#21c637"
       fill-opacity="1"
       id="g157">
      <g
         transform="translate(240.49192,136.42003)"
         id="g156">
        <g
           id="g155">
          <path
             d="M 8.671875,-3.765625 V -4.125 c 0,-0.738281 -0.105469,-1.375 -0.3125,-1.90625 C 8.148438,-6.570312 7.863281,-7.019531 7.5,-7.375 7.144531,-7.726562 6.726562,-7.992188 6.25,-8.171875 5.78125,-8.347656 5.28125,-8.4375 4.75,-8.4375 c -0.5625,0 -1.085938,0.101562 -1.5625,0.296875 -0.46875,0.1875 -0.882812,0.46875 -1.234375,0.84375 -0.355469,0.367187 -0.632813,0.8125 -0.828125,1.34375 -0.199219,0.523437 -0.296875,1.109375 -0.296875,1.765625 0,0.554688 0.082031,1.09375 0.25,1.625 0.175781,0.523438 0.4375,0.992188 0.78125,1.40625 0.34375,0.40625 0.78125,0.734375 1.3125,0.984375 0.539063,0.25 1.175781,0.375 1.90625,0.375 0.707031,0 1.359375,-0.125 1.953125,-0.375 0.59375,-0.25 1.113281,-0.601563 1.5625,-1.0625 L 8.0625,-1.765625 c -0.242188,0.199219 -0.464844,0.382813 -0.671875,0.546875 -0.199219,0.167969 -0.402344,0.308594 -0.609375,0.421875 -0.210938,0.105469 -0.429688,0.1875 -0.65625,0.25 -0.21875,0.054687 -0.46875,0.078125 -0.75,0.078125 -0.304688,0 -0.632812,-0.046875 -0.984375,-0.140625 -0.34375,-0.09375 -0.667969,-0.257813 -0.96875,-0.5 -0.292969,-0.238281 -0.542969,-0.570313 -0.75,-1 C 2.472656,-2.546875 2.375,-3.097656 2.375,-3.765625 Z M 2.375,-4.4375 c 0,-0.4375 0.046875,-0.863281 0.140625,-1.28125 C 2.609375,-6.132812 2.753906,-6.5 2.953125,-6.8125 3.148438,-7.132812 3.394531,-7.390625 3.6875,-7.578125 3.988281,-7.773438 4.34375,-7.875 4.75,-7.875 c 0.78125,0 1.390625,0.308594 1.828125,0.921875 0.4375,0.605469 0.65625,1.445313 0.65625,2.515625 z m 0,0"
             id="path154" />
        </g>
      </g>
    </g>
    <g
       fill="#21c637"
       fill-opacity="1"
       id="g160">
      <g
         transform="translate(249.98985,136.42003)"
         id="g159">
        <g
           id="g158">
          <path
             d="M 8.671875,-3.765625 V -4.125 c 0,-0.738281 -0.105469,-1.375 -0.3125,-1.90625 C 8.148438,-6.570312 7.863281,-7.019531 7.5,-7.375 7.144531,-7.726562 6.726562,-7.992188 6.25,-8.171875 5.78125,-8.347656 5.28125,-8.4375 4.75,-8.4375 c -0.5625,0 -1.085938,0.101562 -1.5625,0.296875 -0.46875,0.1875 -0.882812,0.46875 -1.234375,0.84375 -0.355469,0.367187 -0.632813,0.8125 -0.828125,1.34375 -0.199219,0.523437 -0.296875,1.109375 -0.296875,1.765625 0,0.554688 0.082031,1.09375 0.25,1.625 0.175781,0.523438 0.4375,0.992188 0.78125,1.40625 0.34375,0.40625 0.78125,0.734375 1.3125,0.984375 0.539063,0.25 1.175781,0.375 1.90625,0.375 0.707031,0 1.359375,-0.125 1.953125,-0.375 0.59375,-0.25 1.113281,-0.601563 1.5625,-1.0625 L 8.0625,-1.765625 c -0.242188,0.199219 -0.464844,0.382813 -0.671875,0.546875 -0.199219,0.167969 -0.402344,0.308594 -0.609375,0.421875 -0.210938,0.105469 -0.429688,0.1875 -0.65625,0.25 -0.21875,0.054687 -0.46875,0.078125 -0.75,0.078125 -0.304688,0 -0.632812,-0.046875 -0.984375,-0.140625 -0.34375,-0.09375 -0.667969,-0.257813 -0.96875,-0.5 -0.292969,-0.238281 -0.542969,-0.570313 -0.75,-1 C 2.472656,-2.546875 2.375,-3.097656 2.375,-3.765625 Z M 2.375,-4.4375 c 0,-0.4375 0.046875,-0.863281 0.140625,-1.28125 C 2.609375,-6.132812 2.753906,-6.5 2.953125,-6.8125 3.148438,-7.132812 3.394531,-7.390625 3.6875,-7.578125 3.988281,-7.773438 4.34375,-7.875 4.75,-7.875 c 0.78125,0 1.390625,0.308594 1.828125,0.921875 0.4375,0.605469 0.65625,1.445313 0.65625,2.515625 z m 0,0"
             id="path157" />
        </g>
      </g>
    </g>
    <g
       fill="#21c637"
       fill-opacity="1"
       id="g163">
      <g
         transform="translate(259.48776,136.42003)"
         id="g162">
        <g
           id="g161">
          <path
             d="m 8.234375,0 v -5.359375 c 0,-0.195313 -0.015625,-0.46875 -0.046875,-0.8125 C 8.15625,-6.523438 8.046875,-6.867188 7.859375,-7.203125 7.679688,-7.535156 7.394531,-7.828125 7,-8.078125 c -0.398438,-0.25 -0.960938,-0.375 -1.6875,-0.375 -0.324219,-0.00781 -0.683594,0.054687 -1.078125,0.1875 -0.398437,0.136719 -0.789063,0.398437 -1.171875,0.78125 L 2.796875,-7.21875 h -0.0625 v -1.0625 H 1.328125 V 0 h 1.40625 v -5.109375 c 0,-0.4375 0.054687,-0.804687 0.171875,-1.109375 0.125,-0.3125 0.289062,-0.570312 0.5,-0.78125 0.207031,-0.207031 0.445312,-0.359375 0.71875,-0.453125 0.269531,-0.101563 0.550781,-0.15625 0.84375,-0.15625 0.457031,0 0.8125,0.09375 1.0625,0.28125 0.257812,0.179687 0.445312,0.386719 0.5625,0.625 0.113281,0.242187 0.179688,0.484375 0.203125,0.734375 0.019531,0.242188 0.03125,0.417969 0.03125,0.53125 V 0 Z m 0,0"
             id="path160" />
        </g>
      </g>
    </g>
    <g
       fill="#21c637"
       fill-opacity="1"
       id="g166">
      <g
         transform="translate(269.1015,136.42003)"
         id="g165">
        <g
           id="g164">
          <path
             d="M 8.671875,-3.765625 V -4.125 c 0,-0.738281 -0.105469,-1.375 -0.3125,-1.90625 C 8.148438,-6.570312 7.863281,-7.019531 7.5,-7.375 7.144531,-7.726562 6.726562,-7.992188 6.25,-8.171875 5.78125,-8.347656 5.28125,-8.4375 4.75,-8.4375 c -0.5625,0 -1.085938,0.101562 -1.5625,0.296875 -0.46875,0.1875 -0.882812,0.46875 -1.234375,0.84375 -0.355469,0.367187 -0.632813,0.8125 -0.828125,1.34375 -0.199219,0.523437 -0.296875,1.109375 -0.296875,1.765625 0,0.554688 0.082031,1.09375 0.25,1.625 0.175781,0.523438 0.4375,0.992188 0.78125,1.40625 0.34375,0.40625 0.78125,0.734375 1.3125,0.984375 0.539063,0.25 1.175781,0.375 1.90625,0.375 0.707031,0 1.359375,-0.125 1.953125,-0.375 0.59375,-0.25 1.113281,-0.601563 1.5625,-1.0625 L 8.0625,-1.765625 c -0.242188,0.199219 -0.464844,0.382813 -0.671875,0.546875 -0.199219,0.167969 -0.402344,0.308594 -0.609375,0.421875 -0.210938,0.105469 -0.429688,0.1875 -0.65625,0.25 -0.21875,0.054687 -0.46875,0.078125 -0.75,0.078125 -0.304688,0 -0.632812,-0.046875 -0.984375,-0.140625 -0.34375,-0.09375 -0.667969,-0.257813 -0.96875,-0.5 -0.292969,-0.238281 -0.542969,-0.570313 -0.75,-1 C 2.472656,-2.546875 2.375,-3.097656 2.375,-3.765625 Z M 2.375,-4.4375 c 0,-0.4375 0.046875,-0.863281 0.140625,-1.28125 C 2.609375,-6.132812 2.753906,-6.5 2.953125,-6.8125 3.148438,-7.132812 3.394531,-7.390625 3.6875,-7.578125 3.988281,-7.773438 4.34375,-7.875 4.75,-7.875 c 0.78125,0 1.390625,0.308594 1.828125,0.921875 0.4375,0.605469 0.65625,1.445313 0.65625,2.515625 z m 0,0"
             id="path163" />
        </g>
      </g>
    </g>
    <g
       fill="#21c637"
       fill-opacity="1"
       id="g169">
      <g
         transform="translate(278.59944,136.42003)"
         id="g168">
        <g
           id="g167">
          <path
             d="M 1.328125,-8.28125 V 0 h 1.40625 v -5 c 0,-0.445312 0.050781,-0.828125 0.15625,-1.140625 0.101563,-0.320313 0.238281,-0.582031 0.40625,-0.78125 0.164063,-0.195313 0.347656,-0.335937 0.546875,-0.421875 0.195312,-0.09375 0.390625,-0.140625 0.578125,-0.140625 0.25,0 0.476563,0.085937 0.6875,0.25 0.21875,0.167969 0.378906,0.324219 0.484375,0.46875 l 0.5625,-1.03125 C 6.050781,-7.921875 5.929688,-8.023438 5.796875,-8.109375 5.660156,-8.203125 5.519531,-8.273438 5.375,-8.328125 5.238281,-8.378906 5.113281,-8.410156 5,-8.421875 4.882812,-8.441406 4.800781,-8.453125 4.75,-8.453125 c -0.46875,0 -0.859375,0.132813 -1.171875,0.390625 -0.304687,0.25 -0.554687,0.621094 -0.75,1.109375 H 2.734375 V -8.28125 Z m 0,0"
             id="path166" />
        </g>
      </g>
    </g>
    <g
       fill="#21c637"
       fill-opacity="1"
       id="g175">
      <g
         transform="translate(290.71177,136.42003)"
         id="g174">
        <g
           id="g173">
          <path
             d="M 0.5,-7.609375 V -8.28125 h 1.4375 v -2.546875 h 1.40625 v 2.546875 h 2 v 0.671875 h -2 V -2.125 c 0,0.136719 0.00391,0.292969 0.015625,0.46875 0.00781,0.167969 0.039063,0.328125 0.09375,0.484375 0.0625,0.148437 0.148437,0.273437 0.265625,0.375 0.113281,0.09375 0.273438,0.140625 0.484375,0.140625 0.257813,0 0.476563,-0.097656 0.65625,-0.296875 0.175781,-0.195313 0.320313,-0.414063 0.4375,-0.65625 L 6.078125,-0.8125 C 5.535156,-0.269531 4.921875,0 4.234375,0 3.953125,0 3.671875,-0.046875 3.390625,-0.140625 3.117188,-0.242188 2.875,-0.394531 2.65625,-0.59375 2.4375,-0.800781 2.257812,-1.066406 2.125,-1.390625 2,-1.710938 1.9375,-2.085938 1.9375,-2.515625 v -5.09375 z m 0,0"
             id="path172" />
        </g>
      </g>
    </g>
    <g
       fill="#21c637"
       fill-opacity="1"
       id="g178">
      <g
         transform="translate(296.91685,136.42003)"
         id="g177">
        <g
           id="g176">
          <path
             d="m 9.40625,-4.125 c 0,0.574219 -0.105469,1.125 -0.3125,1.65625 -0.199219,0.523438 -0.484375,0.980469 -0.859375,1.375 C 7.867188,-0.695312 7.425781,-0.378906 6.90625,-0.140625 6.382812,0.0859375 5.796875,0.203125 5.140625,0.203125 4.484375,0.203125 3.882812,0.0820312 3.34375,-0.15625 2.8125,-0.394531 2.359375,-0.710938 1.984375,-1.109375 1.617188,-1.503906 1.332031,-1.960938 1.125,-2.484375 0.925781,-3.015625 0.828125,-3.5625 0.828125,-4.125 c 0,-0.570312 0.097656,-1.117188 0.296875,-1.640625 0.207031,-0.519531 0.492188,-0.976563 0.859375,-1.375 0.375,-0.40625 0.828125,-0.722656 1.359375,-0.953125 0.539062,-0.238281 1.140625,-0.359375 1.796875,-0.359375 0.65625,0 1.242187,0.121094 1.765625,0.359375 0.519531,0.230469 0.960938,0.546875 1.328125,0.953125 0.375,0.398437 0.660156,0.855469 0.859375,1.375 0.207031,0.523437 0.3125,1.070313 0.3125,1.640625 z m -1.578125,0 c 0,-0.769531 -0.085937,-1.394531 -0.25,-1.875 C 7.410156,-6.476562 7.191406,-6.847656 6.921875,-7.109375 6.660156,-7.378906 6.367188,-7.5625 6.046875,-7.65625 5.734375,-7.75 5.425781,-7.796875 5.125,-7.796875 4.832031,-7.796875 4.523438,-7.75 4.203125,-7.65625 3.878906,-7.5625 3.582031,-7.378906 3.3125,-7.109375 3.039062,-6.847656 2.820312,-6.476562 2.65625,-6 c -0.167969,0.480469 -0.25,1.105469 -0.25,1.875 0,0.761719 0.082031,1.386719 0.25,1.875 0.164062,0.480469 0.382812,0.851562 0.65625,1.109375 0.269531,0.261719 0.566406,0.4375 0.890625,0.53125 0.320313,0.09375 0.628906,0.140625 0.921875,0.140625 0.300781,0 0.609375,-0.046875 0.921875,-0.140625 0.320313,-0.09375 0.613281,-0.269531 0.875,-0.53125 0.269531,-0.257813 0.488281,-0.628906 0.65625,-1.109375 0.164063,-0.488281 0.25,-1.113281 0.25,-1.875 z m 0,0"
             id="path175" />
        </g>
      </g>
    </g>
    <g
       fill="#21c637"
       fill-opacity="1"
       id="g181">
      <g
         transform="translate(307.14283,136.42003)"
         id="g180">
        <g
           id="g179">
          <path
             d="m 2.734375,0 v -4.71875 c 0,-0.195312 0.015625,-0.457031 0.046875,-0.78125 0.03125,-0.320312 0.113281,-0.640625 0.25,-0.953125 0.144531,-0.320313 0.359375,-0.59375 0.640625,-0.8125 0.289063,-0.226563 0.691406,-0.34375 1.203125,-0.34375 0.375,0 0.664062,0.085937 0.875,0.25 0.207031,0.167969 0.359375,0.371094 0.453125,0.609375 0.101563,0.242188 0.160156,0.496094 0.171875,0.765625 0.019531,0.261719 0.03125,0.492187 0.03125,0.6875 V 0 H 7.8125 v -4.71875 c 0,-0.238281 0.019531,-0.523438 0.0625,-0.859375 0.039062,-0.34375 0.132812,-0.660156 0.28125,-0.953125 0.144531,-0.300781 0.351562,-0.554688 0.625,-0.765625 0.269531,-0.207031 0.632812,-0.3125 1.09375,-0.3125 0.34375,0 0.617188,0.054687 0.828125,0.15625 0.207031,0.09375 0.367187,0.242187 0.484375,0.4375 0.125,0.199219 0.203125,0.445313 0.234375,0.734375 0.03906,0.28125 0.0625,0.609375 0.0625,0.984375 V 0 h 1.40625 v -5.78125 c 0,-0.25 -0.03125,-0.53125 -0.09375,-0.84375 C 12.742188,-6.9375 12.625,-7.226562 12.4375,-7.5 12.257812,-7.769531 12,-7.992188 11.65625,-8.171875 c -0.34375,-0.1875 -0.804688,-0.28125 -1.375,-0.28125 -0.167969,0 -0.367188,0.015625 -0.59375,0.046875 C 9.46875,-8.375 9.238281,-8.300781 9,-8.1875 c -0.242188,0.105469 -0.476562,0.265625 -0.703125,0.484375 -0.230469,0.210937 -0.429687,0.480469 -0.59375,0.8125 H 7.59375 C 7.53125,-7.054688 7.4375,-7.226562 7.3125,-7.40625 7.1875,-7.59375 7.03125,-7.765625 6.84375,-7.921875 c -0.1875,-0.15625 -0.414062,-0.28125 -0.671875,-0.375 -0.25,-0.101563 -0.558594,-0.15625 -0.921875,-0.15625 -0.167969,0 -0.371094,0.023437 -0.609375,0.0625 -0.230469,0.03125 -0.460937,0.105469 -0.6875,0.21875 -0.230469,0.105469 -0.449219,0.261719 -0.65625,0.46875 -0.199219,0.199219 -0.367187,0.453125 -0.5,0.765625 h -0.0625 V -8.28125 H 1.328125 V 0 Z m 0,0"
             id="path178" />
        </g>
      </g>
    </g>
    <g
       fill="#21c637"
       fill-opacity="1"
       id="g184">
      <g
         transform="translate(321.35662,136.42003)"
         id="g183">
        <g
           id="g182">
          <path
             d="m 9.40625,-4.125 c 0,0.574219 -0.105469,1.125 -0.3125,1.65625 -0.199219,0.523438 -0.484375,0.980469 -0.859375,1.375 C 7.867188,-0.695312 7.425781,-0.378906 6.90625,-0.140625 6.382812,0.0859375 5.796875,0.203125 5.140625,0.203125 4.484375,0.203125 3.882812,0.0820312 3.34375,-0.15625 2.8125,-0.394531 2.359375,-0.710938 1.984375,-1.109375 1.617188,-1.503906 1.332031,-1.960938 1.125,-2.484375 0.925781,-3.015625 0.828125,-3.5625 0.828125,-4.125 c 0,-0.570312 0.097656,-1.117188 0.296875,-1.640625 0.207031,-0.519531 0.492188,-0.976563 0.859375,-1.375 0.375,-0.40625 0.828125,-0.722656 1.359375,-0.953125 0.539062,-0.238281 1.140625,-0.359375 1.796875,-0.359375 0.65625,0 1.242187,0.121094 1.765625,0.359375 0.519531,0.230469 0.960938,0.546875 1.328125,0.953125 0.375,0.398437 0.660156,0.855469 0.859375,1.375 0.207031,0.523437 0.3125,1.070313 0.3125,1.640625 z m -1.578125,0 c 0,-0.769531 -0.085937,-1.394531 -0.25,-1.875 C 7.410156,-6.476562 7.191406,-6.847656 6.921875,-7.109375 6.660156,-7.378906 6.367188,-7.5625 6.046875,-7.65625 5.734375,-7.75 5.425781,-7.796875 5.125,-7.796875 4.832031,-7.796875 4.523438,-7.75 4.203125,-7.65625 3.878906,-7.5625 3.582031,-7.378906 3.3125,-7.109375 3.039062,-6.847656 2.820312,-6.476562 2.65625,-6 c -0.167969,0.480469 -0.25,1.105469 -0.25,1.875 0,0.761719 0.082031,1.386719 0.25,1.875 0.164062,0.480469 0.382812,0.851562 0.65625,1.109375 0.269531,0.261719 0.566406,0.4375 0.890625,0.53125 0.320313,0.09375 0.628906,0.140625 0.921875,0.140625 0.300781,0 0.609375,-0.046875 0.921875,-0.140625 0.320313,-0.09375 0.613281,-0.269531 0.875,-0.53125 0.269531,-0.257813 0.488281,-0.628906 0.65625,-1.109375 0.164063,-0.488281 0.25,-1.113281 0.25,-1.875 z m 0,0"
             id="path181" />
        </g>
      </g>
    </g>
    <g
       fill="#21c637"
       fill-opacity="1"
       id="g187">
      <g
         transform="translate(331.5826,136.42003)"
         id="g186">
        <g
           id="g185">
          <path
             d="M 1.328125,-8.28125 V 0 h 1.40625 v -5 c 0,-0.445312 0.050781,-0.828125 0.15625,-1.140625 0.101563,-0.320313 0.238281,-0.582031 0.40625,-0.78125 0.164063,-0.195313 0.347656,-0.335937 0.546875,-0.421875 0.195312,-0.09375 0.390625,-0.140625 0.578125,-0.140625 0.25,0 0.476563,0.085937 0.6875,0.25 0.21875,0.167969 0.378906,0.324219 0.484375,0.46875 l 0.5625,-1.03125 C 6.050781,-7.921875 5.929688,-8.023438 5.796875,-8.109375 5.660156,-8.203125 5.519531,-8.273438 5.375,-8.328125 5.238281,-8.378906 5.113281,-8.410156 5,-8.421875 4.882812,-8.441406 4.800781,-8.453125 4.75,-8.453125 c -0.46875,0 -0.859375,0.132813 -1.171875,0.390625 -0.304687,0.25 -0.554687,0.621094 -0.75,1.109375 H 2.734375 V -8.28125 Z m 0,0"
             id="path184" />
        </g>
      </g>
    </g>
    <g
       fill="#21c637"
       fill-opacity="1"
       id="g190">
      <g
         transform="translate(337.90352,136.42003)"
         id="g189">
        <g
           id="g188">
          <path
             d="M 1.328125,-8.28125 V 0 h 1.40625 v -5 c 0,-0.445312 0.050781,-0.828125 0.15625,-1.140625 0.101563,-0.320313 0.238281,-0.582031 0.40625,-0.78125 0.164063,-0.195313 0.347656,-0.335937 0.546875,-0.421875 0.195312,-0.09375 0.390625,-0.140625 0.578125,-0.140625 0.25,0 0.476563,0.085937 0.6875,0.25 0.21875,0.167969 0.378906,0.324219 0.484375,0.46875 l 0.5625,-1.03125 C 6.050781,-7.921875 5.929688,-8.023438 5.796875,-8.109375 5.660156,-8.203125 5.519531,-8.273438 5.375,-8.328125 5.238281,-8.378906 5.113281,-8.410156 5,-8.421875 4.882812,-8.441406 4.800781,-8.453125 4.75,-8.453125 c -0.46875,0 -0.859375,0.132813 -1.171875,0.390625 -0.304687,0.25 -0.554687,0.621094 -0.75,1.109375 H 2.734375 V -8.28125 Z m 0,0"
             id="path187" />
        </g>
      </g>
    </g>
    <g
       fill="#21c637"
       fill-opacity="1"
       id="g193">
      <g
         transform="translate(344.22443,136.42003)"
         id="g192">
        <g
           id="g191">
          <path
             d="m 9.40625,-4.125 c 0,0.574219 -0.105469,1.125 -0.3125,1.65625 -0.199219,0.523438 -0.484375,0.980469 -0.859375,1.375 C 7.867188,-0.695312 7.425781,-0.378906 6.90625,-0.140625 6.382812,0.0859375 5.796875,0.203125 5.140625,0.203125 4.484375,0.203125 3.882812,0.0820312 3.34375,-0.15625 2.8125,-0.394531 2.359375,-0.710938 1.984375,-1.109375 1.617188,-1.503906 1.332031,-1.960938 1.125,-2.484375 0.925781,-3.015625 0.828125,-3.5625 0.828125,-4.125 c 0,-0.570312 0.097656,-1.117188 0.296875,-1.640625 0.207031,-0.519531 0.492188,-0.976563 0.859375,-1.375 0.375,-0.40625 0.828125,-0.722656 1.359375,-0.953125 0.539062,-0.238281 1.140625,-0.359375 1.796875,-0.359375 0.65625,0 1.242187,0.121094 1.765625,0.359375 0.519531,0.230469 0.960938,0.546875 1.328125,0.953125 0.375,0.398437 0.660156,0.855469 0.859375,1.375 0.207031,0.523437 0.3125,1.070313 0.3125,1.640625 z m -1.578125,0 c 0,-0.769531 -0.085937,-1.394531 -0.25,-1.875 C 7.410156,-6.476562 7.191406,-6.847656 6.921875,-7.109375 6.660156,-7.378906 6.367188,-7.5625 6.046875,-7.65625 5.734375,-7.75 5.425781,-7.796875 5.125,-7.796875 4.832031,-7.796875 4.523438,-7.75 4.203125,-7.65625 3.878906,-7.5625 3.582031,-7.378906 3.3125,-7.109375 3.039062,-6.847656 2.820312,-6.476562 2.65625,-6 c -0.167969,0.480469 -0.25,1.105469 -0.25,1.875 0,0.761719 0.082031,1.386719 0.25,1.875 0.164062,0.480469 0.382812,0.851562 0.65625,1.109375 0.269531,0.261719 0.566406,0.4375 0.890625,0.53125 0.320313,0.09375 0.628906,0.140625 0.921875,0.140625 0.300781,0 0.609375,-0.046875 0.921875,-0.140625 0.320313,-0.09375 0.613281,-0.269531 0.875,-0.53125 0.269531,-0.257813 0.488281,-0.628906 0.65625,-1.109375 0.164063,-0.488281 0.25,-1.113281 0.25,-1.875 z m 0,0"
             id="path190" />
        </g>
      </g>
    </g>
    <g
       fill="#21c637"
       fill-opacity="1"
       id="g196">
      <g
         transform="translate(354.45041,136.42003)"
         id="g195">
        <g
           id="g194">
          <path
             d="M 0.328125,-8.28125 3.1875,0 H 4.09375 L 6,-5.546875 H 6.078125 L 8.21875,0 H 9 l 3.015625,-8.28125 H 11.15625 l -2.25,6.203125 H 8.84375 L 6.484375,-8.28125 H 6.15625 l -2.171875,6.25 h -0.0625 l -2.15625,-6.25 z m 0,0"
             id="path193" />
        </g>
      </g>
    </g>
  </g>
</svg>
